{"glyphs":{"0":{"ha":804,"x_min":58,"x_max":746,"o":"m 746 404 q 656 95 746 203 q 403 -14 566 -14 q 148 96 238 -14 q 58 404 58 205 l 58 584 q 148 892 58 784 q 401 1001 237 1001 q 656 892 566 1001 q 746 583 746 783 l 746 404 m 517 613 q 490 772 517 720 q 401 825 462 825 q 316 776 342 825 q 287 628 289 727 l 287 376 q 315 214 287 265 q 403 163 342 163 q 489 213 461 163 q 517 369 517 262 l 517 613 z "},"1":{"ha":804,"x_min":113,"x_max":567,"o":"m 567 0 l 338 0 l 338 730 l 113 664 l 113 838 l 546 987 l 567 987 l 567 0 z "},"2":{"ha":804,"x_min":40,"x_max":749,"o":"m 749 0 l 60 0 l 60 149 l 378 483 q 495 695 495 616 q 467 792 495 759 q 387 825 439 825 q 302 781 334 825 q 269 670 269 736 l 40 670 q 85 838 40 761 q 212 958 131 915 q 392 1002 292 1002 q 638 928 552 1002 q 725 715 725 854 q 703 602 725 657 q 636 486 682 547 q 488 323 590 425 l 361 176 l 749 176 l 749 0 z "},"3":{"ha":804,"x_min":32,"x_max":749,"o":"m 269 589 l 377 589 q 505 715 505 589 q 475 794 505 764 q 389 825 444 825 q 310 799 343 825 q 276 733 276 772 l 47 733 q 91 872 47 811 q 211 967 134 933 q 380 1002 288 1002 q 640 926 545 1002 q 734 720 734 851 q 695 599 734 656 q 581 507 656 543 q 705 421 660 479 q 749 277 749 363 q 648 66 749 145 q 380 -14 546 -14 q 200 23 283 -14 q 75 126 117 60 q 32 275 32 191 l 262 275 q 298 196 262 229 q 389 163 335 163 q 485 196 449 163 q 521 282 521 230 q 484 388 521 357 q 380 419 446 419 l 269 419 l 269 589 z "},"4":{"ha":804,"x_min":40,"x_max":764,"o":"m 664 386 l 764 386 l 764 210 l 664 210 l 664 0 l 435 0 l 435 210 l 54 210 l 40 349 l 435 985 l 435 987 l 664 987 l 664 386 m 258 386 l 435 386 l 435 690 l 421 667 l 258 386 z "},"5":{"ha":804,"x_min":54,"x_max":745,"o":"m 74 483 l 134 987 l 711 987 l 711 810 l 320 810 l 298 614 q 362 639 322 628 q 439 650 401 650 q 666 563 587 650 q 745 318 745 475 q 702 146 745 223 q 583 28 660 69 q 402 -14 507 -14 q 228 25 309 -14 q 100 130 146 63 q 55 281 54 197 l 284 281 q 319 195 288 227 q 401 163 350 163 q 516 334 516 163 q 375 492 516 492 q 256 440 295 492 l 74 483 z "},"6":{"ha":804,"x_min":56,"x_max":766,"o":"m 612 1002 l 612 822 l 602 822 q 392 761 474 822 q 290 590 309 699 q 486 666 368 666 q 690 572 614 666 q 766 327 766 479 q 721 154 766 233 q 597 31 677 75 q 420 -14 517 -14 q 233 34 315 -14 q 104 171 150 82 q 56 376 58 260 l 56 467 q 122 742 56 620 q 309 932 187 863 q 578 1002 430 1002 l 612 1002 m 406 491 q 330 470 361 491 q 285 418 300 449 l 285 350 q 414 163 285 163 q 502 210 467 163 q 536 327 536 256 q 501 445 536 399 q 406 491 465 491 z "},"7":{"ha":804,"x_min":35,"x_max":747,"o":"m 747 865 l 378 0 l 136 0 l 506 811 l 35 811 l 35 987 l 747 987 l 747 865 z "},"8":{"ha":804,"x_min":57,"x_max":746,"o":"m 726 724 q 691 597 726 652 q 593 509 655 542 q 705 414 663 474 q 746 272 746 354 q 655 63 746 140 q 404 -14 564 -14 q 150 63 243 -14 q 57 272 57 140 q 98 412 57 351 q 213 509 138 473 q 114 597 150 542 q 78 724 78 652 q 165 927 78 852 q 401 1002 253 1002 q 639 927 551 1002 q 726 724 726 852 m 517 290 q 485 384 517 351 q 402 417 454 417 q 319 384 351 417 q 287 290 287 351 q 319 197 287 231 q 404 163 351 163 q 486 197 454 163 q 517 290 517 231 m 401 825 q 331 795 355 825 q 307 711 307 765 q 332 626 307 659 q 404 593 356 593 q 474 626 450 593 q 497 711 497 659 q 473 795 497 764 q 401 825 449 825 z "},"9":{"ha":804,"x_min":54,"x_max":743,"o":"m 511 382 q 345 315 437 315 q 132 406 211 315 q 54 649 54 497 q 98 825 54 744 q 221 954 142 907 q 397 1002 301 1002 q 574 952 495 1002 q 697 813 653 903 q 743 606 741 724 l 743 519 q 679 235 743 355 q 496 51 614 115 q 219 -14 377 -14 l 205 -14 l 205 170 l 248 170 q 511 382 484 182 m 407 480 q 514 545 481 480 l 514 640 q 482 780 514 734 q 396 825 450 825 q 315 774 348 825 q 283 649 283 722 q 316 526 283 572 q 407 480 349 480 z "},"\u0000":{"ha":0,"x_min":0,"x_max":0,"o":""},"\u0002":{"ha":0,"x_min":0,"x_max":0,"o":""},"\r":{"ha":346,"x_min":0,"x_max":0,"o":""}," ":{"ha":373,"x_min":0,"x_max":0,"o":""},"!":{"ha":429,"x_min":83,"x_max":345,"o":"m 108 940 l 323 940 l 311 334 l 121 334 l 108 940 m 83 132 q 122 224 83 186 q 214 263 160 263 q 307 224 269 263 q 345 132 345 186 q 307 39 345 78 q 214 1 269 1 q 122 38 161 1 q 83 132 83 76 z "},"\"":{"ha":440,"x_min":17,"x_max":411,"o":"m 173 948 l 144 657 l 17 657 l 17 1042 l 173 1042 l 173 948 m 411 948 l 382 657 l 256 657 l 256 1042 l 411 1042 l 411 948 z "},"#":{"ha":807,"x_min":20,"x_max":777,"o":"m 415 278 l 306 278 l 260 0 l 125 0 l 171 278 l 20 278 l 20 402 l 191 402 l 221 581 l 71 581 l 71 705 l 241 705 l 288 987 l 422 987 l 376 705 l 486 705 l 532 987 l 667 987 l 621 705 l 777 705 l 777 581 l 600 581 l 570 402 l 726 402 l 726 278 l 550 278 l 505 0 l 370 0 l 415 278 m 326 402 l 435 402 l 465 581 l 356 581 l 326 402 z "},"$":{"ha":804,"x_min":56,"x_max":749,"o":"m 515 262 q 489 346 515 315 q 396 404 463 376 q 273 458 330 431 q 176 523 217 486 q 114 608 136 559 q 92 724 92 656 q 170 913 92 839 q 376 1000 247 987 l 376 1143 l 484 1143 l 484 997 q 679 895 608 979 q 749 682 749 811 l 520 682 q 493 791 520 753 q 416 829 466 829 q 346 801 371 829 q 321 723 321 772 q 350 643 321 673 q 441 587 378 614 q 561 531 505 560 q 657 466 616 503 q 721 380 698 429 q 744 263 744 332 q 670 74 744 147 q 470 -12 597 1 l 470 -148 l 362 -148 l 362 -11 q 135 91 214 5 q 56 317 56 176 l 285 317 q 319 199 285 239 q 416 159 353 159 q 489 186 463 159 q 515 262 515 214 z "},"%":{"ha":1031,"x_min":61,"x_max":970,"o":"m 61 798 q 121 945 61 889 q 281 1002 180 1002 q 441 946 382 1002 q 500 794 500 890 l 500 745 q 441 598 500 654 q 282 543 382 543 q 122 598 182 543 q 61 749 61 653 l 61 798 m 208 745 q 228 688 208 710 q 282 666 248 666 q 353 757 353 666 l 353 798 q 334 856 353 833 q 281 878 315 878 q 228 856 248 878 q 208 796 208 834 l 208 745 m 530 242 q 590 390 530 334 q 750 446 650 446 q 911 391 851 446 q 970 237 970 336 l 970 190 q 911 42 970 98 q 751 -14 852 -14 q 591 42 652 -14 q 530 193 530 97 l 530 242 m 677 190 q 699 134 677 158 q 751 110 720 110 q 823 172 817 110 l 823 242 q 804 300 823 278 q 750 322 784 322 q 698 301 718 322 q 677 245 678 281 l 677 190 m 326 74 l 219 127 l 701 899 l 808 846 l 326 74 z "},"&":{"ha":936,"x_min":38,"x_max":912,"o":"m 211 520 q 148 629 171 577 q 125 735 125 680 q 203 928 125 854 q 405 1002 280 1002 q 590 933 517 1002 q 663 764 663 865 q 524 541 663 638 l 473 505 l 625 330 q 662 494 662 405 l 854 494 q 762 173 854 294 l 912 0 l 657 0 l 611 52 q 495 2 554 18 q 361 -14 435 -14 q 126 63 214 -14 q 38 265 38 140 q 73 389 38 334 q 209 519 108 445 l 211 520 m 376 162 q 490 190 435 162 l 312 392 l 306 388 q 267 281 267 340 q 298 197 267 231 q 376 162 330 162 m 323 738 q 374 623 323 690 l 420 651 q 465 693 451 671 q 479 748 479 715 q 458 802 479 779 q 404 825 436 825 q 345 801 366 825 q 323 738 323 777 z "},"'":{"ha":214,"x_min":29,"x_max":192,"o":"m 192 932 l 170 652 l 29 652 l 29 1042 l 192 1042 l 192 932 z "},"(":{"ha":490,"x_min":81,"x_max":463,"o":"m 81 401 q 125 709 81 567 q 247 951 170 852 q 420 1089 325 1050 l 463 977 q 316 759 368 907 q 264 411 264 610 l 264 381 q 316 27 264 177 q 463 -193 368 -123 l 420 -305 q 247 -166 326 -267 q 125 74 168 -66 q 81 371 83 214 l 81 401 z "},")":{"ha":489,"x_min":27,"x_max":425,"o":"m 425 382 q 378 80 425 223 q 249 -166 331 -63 q 71 -305 166 -269 l 27 -193 q 173 24 121 -122 q 227 361 224 171 l 227 403 q 175 757 227 607 q 27 977 123 907 l 71 1089 q 247 951 165 1052 q 376 709 329 850 q 425 412 423 568 l 425 382 z "},"*":{"ha":646,"x_min":18,"x_max":643,"o":"m 239 648 l 18 709 l 62 838 l 278 749 l 261 987 l 406 987 l 389 744 l 599 831 l 643 701 l 419 640 l 568 460 l 450 380 l 326 580 l 201 387 l 84 464 l 239 648 z "},"+":{"ha":742,"x_min":31,"x_max":707,"o":"m 476 560 l 707 560 l 707 364 l 476 364 l 476 99 l 262 99 l 262 364 l 31 364 l 31 560 l 262 560 l 262 818 l 476 818 l 476 560 z "},",":{"ha":374,"x_min":29,"x_max":285,"o":"m 144 -266 l 29 -212 l 52 -165 q 102 3 100 -77 l 102 172 l 285 172 l 284 25 q 244 -134 283 -53 q 144 -266 205 -214 z "},"-":{"ha":625,"x_min":103,"x_max":511,"o":"m 511 337 l 103 337 l 103 514 l 511 514 l 511 337 z "},".":{"ha":429,"x_min":83,"x_max":345,"o":"m 83 132 q 122 224 83 186 q 214 263 160 263 q 307 224 269 263 q 345 132 345 186 q 307 39 345 78 q 214 1 269 1 q 122 38 161 1 q 83 132 83 76 z "},"/":{"ha":488,"x_min":-20,"x_max":480,"o":"m 142 -85 l -20 -85 l 317 987 l 480 987 l 142 -85 z "},":":{"ha":429,"x_min":83,"x_max":345,"o":"m 83 552 q 122 645 83 606 q 214 684 160 684 q 307 645 269 684 q 345 552 345 606 q 307 460 345 498 q 214 421 269 421 q 122 459 161 421 q 83 552 83 496 m 83 132 q 122 224 83 186 q 214 263 160 263 q 307 224 269 263 q 345 132 345 186 q 307 39 345 78 q 214 1 269 1 q 122 38 161 1 q 83 132 83 76 z "},";":{"ha":400,"x_min":46,"x_max":339,"o":"m 77 673 q 116 766 77 727 q 208 804 154 804 q 301 766 262 804 q 339 673 339 727 q 301 581 339 619 q 208 542 262 542 q 116 579 155 542 q 77 673 77 617 m 161 -266 l 46 -212 l 69 -165 q 119 3 117 -77 l 119 172 l 302 172 l 301 25 q 261 -134 300 -53 q 161 -266 222 -214 z "},"<":{"ha":708,"x_min":31,"x_max":631,"o":"m 260 413 l 631 288 l 631 80 l 31 324 l 31 505 l 631 749 l 631 541 l 260 413 z "},"=":{"ha":813,"x_min":87,"x_max":715,"o":"m 715 490 l 87 490 l 87 666 l 715 666 l 715 490 m 715 192 l 87 192 l 87 368 l 715 368 l 715 192 z "},">":{"ha":712,"x_min":75,"x_max":671,"o":"m 444 415 l 75 541 l 75 748 l 671 504 l 671 323 l 75 79 l 75 287 l 444 415 z "},"?":{"ha":707,"x_min":21,"x_max":660,"o":"m 233 313 q 256 469 233 412 q 328 568 278 526 q 405 645 378 610 q 431 722 431 680 q 342 825 431 825 q 277 795 302 825 q 250 714 252 765 l 21 714 q 106 925 22 850 q 342 1001 191 1001 q 577 931 494 1001 q 660 732 660 861 q 637 630 660 676 q 566 536 615 584 l 488 463 q 441 398 454 431 q 427 313 429 364 l 233 313 m 205 106 q 242 189 205 157 q 332 221 278 221 q 423 189 387 221 q 459 106 459 157 q 423 24 459 56 q 332 -8 387 -8 q 242 24 278 -8 q 205 106 205 56 z "},"@":{"ha":1244,"x_min":40,"x_max":1198,"o":"m 1191 373 q 1103 91 1184 196 q 886 -14 1021 -14 q 787 10 830 -14 q 721 78 745 34 q 543 -12 654 -12 q 429 27 477 -12 q 357 136 380 65 q 343 296 334 206 q 452 568 363 465 q 670 671 541 671 q 842 625 770 671 l 884 597 l 850 199 q 915 104 838 104 q 1011 178 972 104 q 1055 366 1050 252 q 961 716 1066 593 q 652 840 855 840 q 421 773 522 840 q 262 586 321 707 q 196 311 203 465 q 291 -53 185 73 q 608 -178 397 -178 q 729 -165 665 -178 q 833 -134 793 -152 l 858 -247 q 746 -291 817 -274 q 606 -307 676 -307 q 293 -236 420 -307 q 102 -26 165 -165 q 47 311 40 113 q 133 646 55 498 q 348 875 212 794 q 654 956 484 956 q 949 885 825 956 q 1136 682 1074 814 q 1191 373 1198 549 m 513 296 q 527 162 505 208 q 595 117 548 117 q 654 146 627 117 q 699 227 681 174 l 726 536 q 684 542 705 542 q 567 483 608 542 q 513 296 526 423 z "},"A":{"ha":946,"x_min":-2,"x_max":949,"o":"m 635 184 l 309 184 l 252 0 l -2 0 l 360 987 l 584 987 l 949 0 l 693 0 l 635 184 m 366 368 l 578 368 l 472 711 l 366 368 z "},"B":{"ha":896,"x_min":75,"x_max":840,"o":"m 75 0 l 75 987 l 429 987 q 719 918 620 987 q 819 715 819 848 q 783 584 819 638 q 680 504 748 530 q 798 428 757 484 q 840 292 840 372 q 748 74 840 147 q 475 0 656 1 l 75 0 m 313 420 l 313 183 l 469 183 q 568 213 533 183 q 602 296 602 242 q 479 420 602 419 l 313 420 m 313 576 l 437 576 q 548 604 515 576 q 581 686 581 632 q 545 776 581 749 q 429 804 509 804 l 313 804 l 313 576 z "},"C":{"ha":911,"x_min":47,"x_max":876,"o":"m 873 334 q 818 152 869 231 q 675 30 767 73 q 465 -14 583 -14 q 159 113 271 -14 q 47 471 47 240 l 47 520 q 97 774 47 665 q 243 942 148 883 q 463 1002 338 1002 q 751 907 642 1002 q 876 646 861 812 l 638 646 q 593 776 635 736 q 463 815 550 815 q 332 749 374 815 q 289 536 291 682 l 289 467 q 329 241 289 309 q 465 173 368 173 q 591 212 547 173 q 637 334 634 250 l 873 334 z "},"D":{"ha":898,"x_min":75,"x_max":850,"o":"m 75 0 l 75 987 l 393 987 q 628 928 524 987 q 791 761 732 869 q 850 518 850 652 l 850 473 q 793 230 850 337 q 632 61 736 122 q 399 0 528 1 l 75 0 m 313 804 l 313 183 l 395 183 q 553 256 498 183 q 608 473 608 329 l 608 515 q 553 731 608 659 q 393 804 498 804 l 313 804 z "},"E":{"ha":777,"x_min":75,"x_max":756,"o":"m 687 418 l 313 418 l 313 183 l 755 183 l 755 0 l 75 0 l 75 987 l 756 987 l 756 804 l 313 804 l 313 595 l 687 595 l 687 418 z "},"F":{"ha":760,"x_min":75,"x_max":735,"o":"m 696 393 l 313 393 l 313 0 l 75 0 l 75 987 l 735 987 l 735 804 l 313 804 l 313 576 l 696 576 l 696 393 z "},"G":{"ha":947,"x_min":56,"x_max":883,"o":"m 883 122 q 722 24 828 61 q 490 -14 616 -14 q 180 105 296 -14 q 56 435 64 224 l 56 521 q 107 775 56 667 q 255 943 159 884 q 477 1002 351 1002 q 763 917 661 1002 q 882 665 865 833 l 653 665 q 600 783 641 748 q 485 819 559 819 q 347 743 395 819 q 297 526 298 667 l 297 466 q 348 244 297 318 q 507 170 398 170 q 645 211 600 170 l 645 364 l 479 364 l 479 528 l 883 528 l 883 122 z "},"H":{"ha":976,"x_min":75,"x_max":900,"o":"m 900 0 l 663 0 l 663 412 l 313 412 l 313 0 l 75 0 l 75 987 l 313 987 l 313 595 l 663 595 l 663 987 l 900 987 l 900 0 z "},"I":{"ha":419,"x_min":91,"x_max":328,"o":"m 328 0 l 91 0 l 91 987 l 328 987 l 328 0 z "},"J":{"ha":781,"x_min":24,"x_max":705,"o":"m 468 987 l 705 987 l 705 310 q 662 142 705 216 q 539 27 618 68 q 365 -14 461 -14 q 114 68 203 -14 q 24 298 24 149 l 263 298 q 287 200 263 231 q 365 170 310 170 q 441 207 414 170 q 468 310 468 243 l 468 987 z "},"K":{"ha":888,"x_min":75,"x_max":903,"o":"m 410 368 l 313 260 l 313 0 l 75 0 l 75 987 l 313 987 l 313 552 l 395 677 l 608 987 l 903 987 l 569 551 l 903 0 l 621 0 l 410 368 z "},"L":{"ha":753,"x_min":75,"x_max":727,"o":"m 313 183 l 727 183 l 727 0 l 75 0 l 75 987 l 313 987 l 313 183 z "},"M":{"ha":1217,"x_min":75,"x_max":1141,"o":"m 387 987 l 608 300 l 827 987 l 1141 987 l 1141 0 l 902 0 l 902 231 l 925 703 l 686 0 l 529 0 l 290 703 l 313 231 l 313 0 l 75 0 l 75 987 l 387 987 z "},"N":{"ha":975,"x_min":75,"x_max":899,"o":"m 899 0 l 663 0 l 313 614 l 313 0 l 75 0 l 75 987 l 313 987 l 662 373 l 662 987 l 899 987 l 899 0 z "},"O":{"ha":959,"x_min":47,"x_max":911,"o":"m 911 473 q 857 218 911 329 q 705 46 804 106 q 480 -14 606 -14 q 256 44 354 -14 q 104 210 159 102 q 47 458 50 318 l 47 513 q 100 769 47 659 q 253 941 153 880 q 479 1001 352 1001 q 703 941 604 1001 q 856 771 801 882 q 911 519 910 661 l 911 473 m 669 515 q 620 738 669 662 q 479 814 570 814 q 290 546 300 814 l 289 473 q 337 250 289 328 q 480 172 385 172 q 619 249 570 172 q 669 469 668 326 l 669 515 z "},"P":{"ha":904,"x_min":75,"x_max":852,"o":"m 313 335 l 313 0 l 75 0 l 75 987 l 469 987 q 669 946 582 987 q 804 827 756 904 q 852 652 852 750 q 748 421 852 508 q 465 335 645 335 l 313 335 m 313 519 l 469 519 q 574 553 538 519 q 610 651 610 588 q 573 762 610 720 q 471 804 536 803 l 313 804 l 313 519 z "},"Q":{"ha":959,"x_min":49,"x_max":912,"o":"m 912 473 q 867 234 912 336 q 741 71 821 132 l 901 -56 l 753 -180 l 541 -9 q 481 -14 511 -14 q 258 45 355 -14 q 105 212 160 103 q 49 461 51 320 l 49 513 q 102 770 49 659 q 254 941 155 880 q 480 1001 353 1001 q 704 941 606 1001 q 857 771 802 882 q 912 519 911 661 l 912 473 m 670 515 q 621 738 670 662 q 480 814 572 814 q 338 739 386 814 q 290 519 291 664 l 290 473 q 338 250 290 328 q 481 172 387 172 q 621 249 572 172 q 670 469 669 326 l 670 515 z "},"R":{"ha":906,"x_min":75,"x_max":871,"o":"m 441 349 l 313 349 l 313 0 l 75 0 l 75 987 l 463 987 q 738 909 639 987 q 837 689 837 831 q 795 518 837 586 q 665 408 753 450 l 871 10 l 871 0 l 616 0 l 441 349 m 313 532 l 463 532 q 565 568 531 532 q 600 667 600 604 q 565 767 600 731 q 463 804 530 804 l 313 804 l 313 532 z "},"S":{"ha":869,"x_min":43,"x_max":822,"o":"m 584 262 q 547 344 584 315 q 417 404 510 373 q 265 465 324 435 q 73 724 73 559 q 121 868 73 806 q 256 966 169 931 q 453 1001 344 1001 q 644 963 559 1001 q 775 855 728 925 q 822 694 822 785 l 585 694 q 548 788 585 755 q 448 821 511 821 q 347 793 384 821 q 310 722 310 765 q 351 653 310 684 q 494 589 391 622 q 662 518 596 556 q 822 264 822 426 q 724 60 822 134 q 456 -14 627 -14 q 239 30 336 -14 q 93 148 142 73 q 43 320 43 222 l 282 320 q 323 203 282 241 q 456 165 364 165 q 550 191 515 165 q 584 262 584 216 z "},"T":{"ha":876,"x_min":24,"x_max":850,"o":"m 850 804 l 553 804 l 553 0 l 315 0 l 315 804 l 24 804 l 24 987 l 850 987 l 850 804 z "},"U":{"ha":923,"x_min":71,"x_max":849,"o":"m 849 987 l 849 341 q 802 151 849 231 q 668 28 755 71 q 461 -14 581 -14 q 177 80 281 -14 q 71 336 73 174 l 71 987 l 311 987 l 311 332 q 461 170 315 170 q 573 210 535 170 q 611 342 611 251 l 611 987 l 849 987 z "},"V":{"ha":918,"x_min":-2,"x_max":920,"o":"m 458 269 l 654 987 l 920 987 l 588 0 l 328 0 l -2 987 l 262 987 l 458 269 z "},"W":{"ha":1207,"x_min":14,"x_max":1189,"o":"m 840 368 l 953 987 l 1189 987 l 979 0 l 732 0 l 600 563 l 471 0 l 224 0 l 14 987 l 251 987 l 364 368 l 500 987 l 702 987 l 840 368 z "},"X":{"ha":886,"x_min":3,"x_max":884,"o":"m 443 659 l 604 987 l 876 987 l 600 498 l 884 0 l 609 0 l 443 334 l 277 0 l 3 0 l 286 498 l 10 987 l 281 987 l 443 659 z "},"Y":{"ha":872,"x_min":-2,"x_max":875,"o":"m 436 559 l 618 987 l 875 987 l 557 355 l 557 0 l 315 0 l 315 355 l -2 987 l 254 987 l 436 559 z "},"Z":{"ha":847,"x_min":42,"x_max":814,"o":"m 342 183 l 814 183 l 814 0 l 45 0 l 45 125 l 515 804 l 42 804 l 42 987 l 809 987 l 809 865 l 342 183 z "},"[":{"ha":391,"x_min":73,"x_max":382,"o":"m 382 990 l 302 990 l 302 -71 l 382 -71 l 382 -237 l 73 -237 l 73 1157 l 382 1157 l 382 990 z "},"\\":{"ha":592,"x_min":-14,"x_max":637,"o":"m -14 987 l 224 987 l 637 -85 l 397 -85 l -14 987 z "},"]":{"ha":391,"x_min":9,"x_max":319,"o":"m 9 1157 l 319 1157 l 319 -237 l 9 -237 l 9 -71 l 90 -71 l 90 990 l 9 990 l 9 1157 z "},"^":{"ha":621,"x_min":24,"x_max":600,"o":"m 312 802 l 196 494 l 24 494 l 227 987 l 396 987 l 600 494 l 427 494 l 312 802 z "},"_":{"ha":613,"x_min":0,"x_max":612,"o":"m 612 -170 l 0 -170 l 0 0 l 612 0 l 612 -170 z "},"`":{"ha":471,"x_min":37,"x_max":414,"o":"m 414 829 l 228 829 l 37 1042 l 278 1042 l 414 829 z "},"a":{"ha":737,"x_min":31,"x_max":706,"o":"m 477 0 q 456 66 465 22 q 279 -14 393 -14 q 103 49 176 -14 q 31 207 31 112 q 119 387 31 326 q 375 448 207 448 l 446 448 l 446 487 q 358 588 446 588 q 277 508 277 588 l 48 508 q 139 681 48 614 q 370 747 229 747 q 591 679 510 747 q 675 491 673 610 l 675 166 q 706 12 676 65 l 706 0 l 477 0 m 334 149 q 405 168 377 149 q 446 209 433 186 l 446 326 l 379 326 q 260 219 260 326 q 281 169 260 188 q 334 149 302 149 z "},"b":{"ha":782,"x_min":66,"x_max":745,"o":"m 745 361 q 671 83 745 180 q 460 -14 596 -14 q 280 75 349 -14 l 271 0 l 66 0 l 66 1042 l 294 1042 l 294 675 q 459 747 358 747 q 671 649 596 747 q 745 372 745 551 l 745 361 m 516 375 q 488 526 516 481 q 401 571 460 571 q 294 512 324 571 l 294 220 q 403 162 323 162 q 505 241 484 162 q 516 375 516 279 z "},"c":{"ha":722,"x_min":35,"x_max":689,"o":"m 374 163 q 449 189 422 163 q 475 262 475 215 l 689 262 q 603 64 689 141 q 380 -14 516 -14 q 127 87 220 -14 q 35 365 35 187 l 35 374 q 76 571 35 486 q 195 702 117 656 q 378 747 272 747 q 605 668 521 747 q 689 453 689 589 l 475 453 q 447 541 475 510 q 372 571 419 571 q 269 458 283 571 q 264 359 264 422 q 290 205 264 248 q 374 163 317 163 z "},"d":{"ha":781,"x_min":35,"x_max":715,"o":"m 35 372 q 111 647 35 547 q 321 747 186 747 q 486 670 419 747 l 486 1042 l 715 1042 l 715 0 l 510 0 l 498 79 q 319 -14 428 -14 q 112 87 189 -14 q 35 372 35 187 m 264 358 q 378 163 264 163 q 486 227 454 163 l 486 506 q 379 571 455 571 q 264 400 273 571 l 264 358 z "},"e":{"ha":756,"x_min":41,"x_max":728,"o":"m 419 -14 q 146 87 250 -14 q 41 349 41 188 l 41 368 q 83 567 41 481 q 205 700 125 653 q 395 747 285 747 q 639 651 549 747 q 728 384 728 555 l 728 295 l 274 295 q 328 198 286 233 q 435 163 369 163 q 604 239 543 163 l 709 115 q 588 21 666 56 q 419 -14 509 -14 m 393 571 q 274 438 293 571 l 505 438 l 505 456 q 477 541 506 511 q 393 571 448 571 z "},"f":{"ha":503,"x_min":8,"x_max":504,"o":"m 115 0 l 115 575 l 8 575 l 8 734 l 115 734 l 115 792 q 189 987 115 918 q 396 1056 262 1056 q 503 1042 445 1056 l 504 873 q 448 880 483 880 q 344 790 344 880 l 344 734 l 487 734 l 487 575 l 344 575 l 344 0 l 115 0 z "},"g":{"ha":799,"x_min":37,"x_max":733,"o":"m 37 372 q 74 569 37 484 q 179 701 111 654 q 338 747 248 747 q 517 670 453 747 l 526 734 l 733 734 l 733 28 q 688 -141 733 -69 q 557 -251 643 -212 q 359 -289 472 -289 q 203 -258 279 -289 q 87 -179 127 -228 l 183 -45 q 351 -120 247 -120 q 503 36 503 -120 l 503 59 q 337 -14 437 -14 q 120 89 203 -14 q 37 364 37 192 l 37 372 m 267 358 q 300 215 267 268 q 395 163 334 163 q 503 212 469 163 l 503 521 q 397 571 470 571 q 301 516 336 571 q 267 358 267 462 z "},"h":{"ha":784,"x_min":59,"x_max":721,"o":"m 288 655 q 475 747 361 747 q 658 675 596 747 q 721 463 720 604 l 721 0 l 492 0 l 492 458 q 468 544 492 516 q 387 571 444 571 q 288 526 317 571 l 288 0 l 59 0 l 59 1042 l 288 1042 l 288 655 z "},"i":{"ha":382,"x_min":62,"x_max":316,"o":"m 305 0 l 76 0 l 76 734 l 305 734 l 305 0 m 62 923 q 98 1003 62 972 q 189 1034 133 1034 q 281 1003 245 1034 q 316 923 316 972 q 281 843 316 874 q 189 812 245 812 q 98 843 133 812 q 62 923 62 874 z "},"j":{"ha":375,"x_min":-79,"x_max":317,"o":"m 310 734 l 310 -25 q 235 -226 309 -155 q 29 -296 161 -296 q -79 -285 -28 -296 l -79 -112 q -14 -118 -39 -118 q 81 -24 81 -118 l 81 734 l 310 734 m 64 923 q 99 1003 64 972 q 191 1034 134 1034 q 282 1003 247 1034 q 317 923 317 972 q 282 843 317 874 q 191 812 247 812 q 99 843 134 812 q 64 923 64 874 z "},"k":{"ha":760,"x_min":66,"x_max":781,"o":"m 359 273 l 294 209 l 294 0 l 66 0 l 66 1042 l 294 1042 l 294 489 l 317 519 l 490 734 l 764 734 l 507 432 l 781 0 l 519 0 l 359 273 z "},"l":{"ha":382,"x_min":76,"x_max":305,"o":"m 305 0 l 76 0 l 76 1042 l 305 1042 l 305 0 z "},"m":{"ha":1196,"x_min":66,"x_max":1130,"o":"m 280 734 l 288 648 q 497 747 366 747 q 685 637 636 747 q 901 747 760 747 q 1130 477 1124 747 l 1130 0 l 901 0 l 901 463 q 882 545 901 519 q 812 571 863 571 q 711 511 745 571 l 712 501 l 712 0 l 483 0 l 483 462 q 465 545 483 519 q 395 571 446 571 q 294 511 329 571 l 294 0 l 66 0 l 66 734 l 280 734 z "},"n":{"ha":783,"x_min":60,"x_max":721,"o":"m 274 734 l 281 648 q 491 747 357 747 q 662 679 606 747 q 721 473 719 610 l 721 0 l 492 0 l 492 463 q 469 545 492 519 q 388 571 447 571 q 288 518 321 571 l 288 0 l 60 0 l 60 734 l 274 734 z "},"o":{"ha":780,"x_min":35,"x_max":743,"o":"m 35 374 q 78 569 35 484 q 201 701 121 655 q 389 747 281 747 q 648 645 553 747 q 743 368 743 543 l 743 359 q 648 87 743 188 q 390 -14 553 -14 q 138 80 233 -14 q 36 335 43 174 l 35 374 m 264 359 q 296 210 264 258 q 390 163 328 163 q 515 351 512 163 l 515 374 q 389 571 515 571 q 264 401 274 571 l 264 359 z "},"p":{"ha":782,"x_min":66,"x_max":745,"o":"m 745 361 q 668 89 745 191 q 460 -14 591 -14 q 294 60 359 -14 l 294 -282 l 66 -282 l 66 734 l 279 734 l 286 666 q 459 747 352 747 q 670 647 595 747 q 745 372 745 547 l 745 361 m 517 376 q 403 571 517 571 q 294 513 321 571 l 294 224 q 404 163 324 163 q 517 351 513 163 l 517 376 z "},"q":{"ha":781,"x_min":35,"x_max":715,"o":"m 35 374 q 111 648 35 549 q 321 747 187 747 q 501 655 433 747 l 517 734 l 715 734 l 715 -282 l 486 -282 l 486 61 q 319 -14 420 -14 q 112 87 189 -14 q 35 374 35 188 m 264 360 q 378 163 264 163 q 486 222 456 163 l 486 513 q 379 571 458 571 q 264 401 273 571 l 264 360 z "},"r":{"ha":526,"x_min":66,"x_max":512,"o":"m 508 527 l 433 532 q 294 465 325 532 l 294 0 l 66 0 l 66 734 l 280 734 l 288 640 q 448 747 345 747 q 512 739 485 747 l 508 527 z "},"s":{"ha":711,"x_min":24,"x_max":670,"o":"m 448 206 q 418 253 448 235 q 302 290 387 271 q 161 339 216 309 q 76 414 105 370 q 47 515 47 458 q 130 682 47 616 q 349 747 214 747 q 582 682 494 747 q 670 509 670 616 l 441 509 q 348 597 441 597 q 288 577 312 597 q 263 527 263 557 q 293 477 263 496 q 388 446 323 458 q 503 417 454 434 q 669 213 669 360 q 579 50 669 113 q 349 -14 490 -14 q 180 20 254 -14 q 65 113 106 54 q 24 235 24 171 l 237 235 q 271 161 239 184 q 355 138 304 138 q 425 157 401 138 q 448 206 448 176 z "},"t":{"ha":477,"x_min":8,"x_max":461,"o":"m 330 916 l 330 734 l 451 734 l 451 575 l 330 575 l 330 239 q 345 182 330 198 q 404 165 360 165 q 461 170 438 165 l 461 6 q 332 -14 399 -14 q 158 42 214 -14 q 102 211 102 98 l 102 575 l 8 575 l 8 734 l 102 734 l 102 916 l 330 916 z "},"u":{"ha":783,"x_min":60,"x_max":722,"o":"m 501 79 q 305 -14 429 -14 q 122 57 184 -14 q 60 258 60 127 l 60 734 l 289 734 l 289 257 q 380 163 289 163 q 492 219 459 163 l 492 734 l 722 734 l 722 0 l 508 0 l 501 79 z "},"v":{"ha":718,"x_min":1,"x_max":713,"o":"m 357 272 l 473 734 l 713 734 l 474 0 l 241 0 l 1 734 l 243 734 l 357 272 z "},"w":{"ha":1008,"x_min":15,"x_max":991,"o":"m 698 301 l 772 734 l 991 734 l 818 0 l 625 0 l 503 435 l 381 0 l 188 0 l 15 734 l 234 734 l 307 291 l 423 734 l 583 734 l 698 301 z "},"x":{"ha":715,"x_min":7,"x_max":715,"o":"m 361 532 l 468 734 l 705 734 l 512 376 l 715 0 l 476 0 l 361 217 l 248 0 l 7 0 l 211 376 l 18 734 l 258 734 l 361 532 z "},"y":{"ha":720,"x_min":-3,"x_max":724,"o":"m 357 320 l 479 734 l 724 734 l 425 -123 l 412 -154 q 187 -296 349 -296 q 93 -283 142 -296 l 93 -119 l 123 -119 q 196 -105 171 -119 q 234 -56 222 -92 l 252 -7 l -3 734 l 241 734 l 357 320 z "},"z":{"ha":715,"x_min":45,"x_max":668,"o":"m 334 176 l 668 176 l 668 0 l 45 0 l 45 127 l 370 557 l 59 557 l 59 734 l 661 734 l 661 610 l 334 176 z "},"{":{"ha":451,"x_min":27,"x_max":424,"o":"m 381 -244 q 137 71 137 -176 l 137 205 q 27 342 137 342 l 27 496 q 137 634 137 496 l 137 777 q 200 974 139 899 q 381 1083 262 1049 l 424 964 q 335 781 338 931 l 335 634 q 210 420 335 482 q 335 205 335 357 l 335 58 q 424 -124 338 -92 l 381 -244 z "},"|":{"ha":355,"x_min":117,"x_max":241,"o":"m 241 -183 l 117 -183 l 117 987 l 241 987 l 241 -183 z "},"}":{"ha":451,"x_min":28,"x_max":425,"o":"m 28 -124 q 117 58 113 -92 l 117 205 q 243 420 117 358 q 117 634 117 481 l 117 781 q 28 964 113 931 l 71 1083 q 253 972 192 1049 q 315 770 314 895 l 315 634 q 425 496 315 496 l 425 342 q 315 206 315 342 l 315 62 q 71 -244 310 -177 l 28 -124 z "},"~":{"ha":878,"x_min":64,"x_max":812,"o":"m 812 542 q 750 329 812 409 q 585 249 688 249 q 493 269 534 249 q 400 339 452 288 q 304 391 349 391 q 248 357 271 391 q 225 275 225 324 l 64 277 q 124 489 64 410 q 289 567 185 567 q 383 547 340 567 q 476 476 426 527 q 570 426 527 426 q 626 459 604 426 q 648 543 648 493 l 812 542 z "}," ":{"ha":373,"x_min":0,"x_max":0,"o":""},"¡":{"ha":417,"x_min":83,"x_max":337,"o":"m 116 422 l 301 422 l 330 -252 l 87 -252 l 116 422 m 337 633 q 301 550 337 583 q 210 518 264 518 q 120 550 156 518 q 83 633 83 583 q 120 715 83 683 q 210 747 156 747 q 301 715 264 747 q 337 633 337 683 z "},"¢":{"ha":820,"x_min":66,"x_max":720,"o":"m 406 163 q 480 189 454 163 q 506 262 507 215 l 720 262 q 654 84 720 156 q 481 -7 589 12 l 481 -166 l 346 -166 l 346 -9 q 141 107 215 10 q 66 362 66 205 l 66 374 q 140 625 66 526 q 346 743 214 724 l 346 894 l 481 894 l 481 741 q 657 645 593 722 q 720 453 720 569 l 506 453 q 478 541 506 510 q 404 571 450 571 q 300 458 315 571 q 295 359 295 422 q 321 205 295 248 q 406 163 348 163 z "},"£":{"ha":833,"x_min":70,"x_max":800,"o":"m 421 380 l 425 304 q 385 183 425 227 l 797 183 l 797 0 l 72 0 l 72 183 l 142 183 q 182 253 180 193 l 183 289 l 180 380 l 70 380 l 70 557 l 174 557 l 170 705 q 253 922 170 844 q 478 1000 336 1000 q 715 922 630 1000 q 800 711 800 844 l 576 711 q 484 817 576 817 q 429 790 450 817 q 408 705 408 762 l 414 557 l 622 557 l 622 380 l 421 380 z "},"¤":{"ha":947,"x_min":47,"x_max":905,"o":"m 720 73 q 475 -14 612 -14 q 230 72 337 -14 l 142 -18 l 47 80 l 138 173 q 71 412 71 279 q 144 660 71 551 l 47 760 l 142 857 l 239 759 q 475 837 344 837 q 711 758 606 837 l 809 858 l 905 760 l 805 657 q 878 412 878 549 q 811 176 878 281 l 905 80 l 809 -18 l 720 73 m 197 412 q 233 264 197 332 q 334 157 270 196 q 475 117 399 117 q 614 157 550 117 q 715 264 679 196 q 752 412 752 332 q 715 561 752 493 q 614 668 678 629 q 475 707 550 707 q 335 668 399 707 q 234 561 271 629 q 197 412 197 493 z "},"¥":{"ha":751,"x_min":6,"x_max":745,"o":"m 376 635 l 503 987 l 745 987 l 537 503 l 676 503 l 676 374 l 492 374 l 492 307 l 676 307 l 676 178 l 492 178 l 492 0 l 254 0 l 254 178 l 49 178 l 49 307 l 254 307 l 254 374 l 49 374 l 49 503 l 214 503 l 6 987 l 249 987 l 376 635 z "},"¦":{"ha":355,"x_min":81,"x_max":279,"o":"m 81 -183 l 81 356 l 279 356 l 279 -183 l 81 -183 m 279 473 l 81 473 l 81 987 l 279 987 l 279 473 z "},"§":{"ha":882,"x_min":64,"x_max":811,"o":"m 811 339 q 706 157 811 219 q 800 -41 800 87 q 704 -229 800 -161 q 439 -296 608 -296 q 161 -224 258 -296 q 64 -17 64 -151 l 293 -17 q 327 -94 293 -68 q 439 -119 361 -119 q 570 -42 570 -119 q 531 22 570 -3 q 371 80 492 46 q 188 151 250 114 q 95 238 126 188 q 64 358 64 289 q 170 541 64 477 q 75 739 75 613 q 173 929 75 857 q 437 1001 271 1001 q 702 925 606 1001 q 798 713 798 849 l 569 713 q 534 794 569 764 q 437 825 499 825 q 338 802 372 825 q 304 741 304 780 q 342 673 304 696 q 479 624 380 650 q 637 574 578 599 q 733 515 695 549 q 791 439 772 482 q 811 339 811 396 m 405 442 q 326 467 363 453 q 292 385 292 439 q 322 315 292 339 q 468 255 353 291 l 548 232 q 586 313 586 262 q 549 382 586 355 q 405 442 511 409 z "},"¨":{"ha":687,"x_min":64,"x_max":621,"o":"m 64 926 q 94 989 64 963 q 167 1016 123 1016 q 240 989 210 1016 q 269 926 269 963 q 240 862 269 888 q 167 836 210 836 q 94 862 123 836 q 64 926 64 888 m 416 926 q 446 989 416 963 q 519 1016 475 1016 q 592 989 562 1016 q 621 926 621 963 q 592 862 621 888 q 519 836 562 836 q 446 862 475 836 q 416 926 416 888 z "},"©":{"ha":1090,"x_min":58,"x_max":1021,"o":"m 757 404 q 697 246 757 301 q 530 191 638 191 q 357 263 421 191 q 293 458 293 336 l 293 534 q 358 725 293 652 q 530 797 422 797 q 699 741 640 797 q 758 584 758 685 l 652 584 q 621 677 652 649 q 530 705 589 705 q 433 660 467 705 q 398 537 399 614 l 398 454 q 433 329 398 374 q 530 283 467 283 q 621 310 590 283 q 651 404 651 338 l 757 404 m 140 494 q 191 286 140 382 q 334 130 241 189 q 539 71 427 71 q 743 130 650 71 q 886 285 836 188 q 937 494 937 382 q 886 704 937 607 q 743 858 836 800 q 539 916 650 916 q 339 861 431 916 q 193 707 246 805 q 140 494 140 610 m 58 494 q 121 749 58 631 q 297 933 184 866 q 539 1001 409 1001 q 782 933 669 1001 q 957 749 894 866 q 1021 494 1021 631 q 956 238 1021 356 q 780 54 892 121 q 539 -14 669 -14 q 297 54 408 -14 q 121 239 185 122 q 58 494 58 357 z "},"ª":{"ha":613,"x_min":90,"x_max":527,"o":"m 407 478 q 395 524 400 496 q 259 469 343 469 q 135 510 179 469 q 90 623 90 552 q 147 739 90 698 q 321 780 204 780 l 391 780 l 391 814 q 312 901 391 901 q 243 883 268 901 q 218 833 218 866 l 101 843 q 160 957 101 913 q 312 1001 220 1001 q 456 952 404 1001 q 509 813 509 903 l 509 599 q 527 478 509 533 l 407 478 m 288 566 q 344 579 315 566 q 391 608 372 591 l 391 701 l 319 701 q 238 680 267 700 q 209 626 209 659 q 288 566 209 566 z "},"«":{"ha":642,"x_min":34,"x_max":608,"o":"m 290 349 q 313 453 290 391 q 380 588 336 515 q 488 731 424 660 l 608 621 q 536 511 565 566 q 493 413 507 456 q 478 350 478 370 q 510 240 478 316 q 608 77 542 164 l 488 -33 q 380 111 425 39 q 313 245 336 183 q 290 349 290 308 m 34 349 q 57 453 34 391 q 123 588 79 515 q 232 731 168 660 l 352 621 q 280 511 309 566 q 236 413 251 456 q 222 350 222 370 q 254 240 222 316 q 352 77 286 164 l 232 -33 q 124 111 168 39 q 57 245 80 183 q 34 349 34 308 z "},"¬":{"ha":762,"x_min":85,"x_max":651,"o":"m 651 254 l 515 254 l 515 430 l 85 430 l 85 546 l 651 546 l 651 254 z "},"­":{"ha":625,"x_min":103,"x_max":511,"o":"m 511 337 l 103 337 l 103 514 l 511 514 l 511 337 z "},"®":{"ha":1090,"x_min":58,"x_max":1021,"o":"m 58 494 q 121 749 58 631 q 297 933 184 866 q 539 1001 409 1001 q 782 933 669 1001 q 957 749 894 866 q 1021 494 1021 631 q 956 238 1021 356 q 780 54 892 121 q 539 -14 669 -14 q 297 54 408 -14 q 121 239 185 122 q 58 494 58 357 m 140 494 q 191 286 140 382 q 334 130 241 189 q 539 71 427 71 q 743 130 650 71 q 886 285 836 188 q 937 494 937 382 q 886 704 937 607 q 743 858 836 800 q 539 916 650 916 q 339 861 431 916 q 193 707 246 805 q 140 494 140 610 m 441 443 l 441 214 l 339 214 l 339 791 l 530 791 q 692 743 634 791 q 750 612 750 696 q 677 496 750 537 q 732 437 717 475 q 748 343 748 399 q 750 264 748 287 q 760 225 753 241 l 760 214 l 654 214 q 646 346 646 237 q 623 420 646 397 q 549 443 601 443 l 441 443 m 441 534 l 528 534 q 614 555 580 534 q 648 612 648 576 q 624 680 648 660 q 537 701 600 700 l 441 701 l 441 534 z "},"¯":{"ha":722,"x_min":123,"x_max":593,"o":"m 593 871 l 123 871 l 123 989 l 593 989 l 593 871 z "},"°":{"ha":551,"x_min":85,"x_max":462,"o":"m 85 810 q 141 945 85 890 q 275 1001 198 1001 q 407 945 351 1001 q 462 810 462 890 q 407 677 462 732 q 275 623 353 623 q 141 677 197 623 q 85 810 85 732 m 275 726 q 334 751 311 726 q 357 810 357 775 q 334 871 357 846 q 275 897 311 897 q 215 872 239 897 q 190 810 190 846 q 215 750 190 774 q 275 726 241 726 z "},"±":{"ha":747,"x_min":57,"x_max":678,"o":"m 467 661 l 678 661 l 678 477 l 467 477 l 467 241 l 267 241 l 267 477 l 57 477 l 57 661 l 267 661 l 267 877 l 467 877 l 467 661 m 664 1 l 68 1 l 68 180 l 664 180 l 664 1 z "},"´":{"ha":469,"x_min":61,"x_max":436,"o":"m 195 1042 l 436 1042 l 248 829 l 61 829 l 195 1042 z "},"µ":{"ha":890,"x_min":90,"x_max":781,"o":"m 319 734 l 319 305 q 343 199 319 233 q 429 165 368 165 q 552 227 516 165 l 552 734 l 781 734 l 781 0 l 566 0 l 562 36 q 420 -14 502 -14 q 319 9 362 -14 l 319 -282 l 90 -282 l 90 734 l 319 734 z "},"¶":{"ha":679,"x_min":56,"x_max":601,"o":"m 446 0 l 446 353 l 391 353 q 145 439 235 353 q 56 670 56 525 q 146 901 56 814 q 392 987 236 987 l 601 987 l 601 0 l 446 0 z "},"·":{"ha":446,"x_min":94,"x_max":346,"o":"m 220 579 q 310 547 275 579 q 346 465 346 514 q 310 382 346 415 q 220 350 275 350 q 130 382 165 350 q 94 465 94 414 q 130 547 94 515 q 220 579 165 579 z "},"¸":{"ha":386,"x_min":58,"x_max":348,"o":"m 253 7 l 246 -35 q 348 -152 348 -54 q 281 -275 348 -231 q 94 -320 214 -320 l 90 -194 q 149 -142 149 -194 q 128 -106 149 -116 q 58 -92 106 -96 l 79 7 l 253 7 z "},"º":{"ha":636,"x_min":79,"x_max":549,"o":"m 79 760 q 144 935 79 869 q 314 1001 209 1001 q 484 935 419 1001 q 549 757 549 869 l 549 708 q 486 534 549 600 q 315 468 422 468 q 144 534 208 468 q 79 711 79 601 l 79 760 m 198 708 q 230 604 198 642 q 315 567 261 567 q 399 604 368 567 q 431 706 430 640 l 431 760 q 399 863 431 826 q 314 901 368 901 q 230 864 261 901 q 198 758 198 827 l 198 708 z "},"»":{"ha":642,"x_min":34,"x_max":608,"o":"m 352 349 q 329 245 352 308 q 262 111 307 183 q 155 -33 218 39 l 34 77 q 132 240 100 164 q 164 350 164 316 q 150 413 164 370 q 106 511 135 456 q 34 621 77 566 l 155 731 q 263 588 219 660 q 330 453 307 515 q 352 349 352 391 m 608 349 q 586 245 608 308 q 519 111 563 183 q 411 -33 475 39 l 290 77 q 389 240 357 164 q 420 350 420 316 q 406 413 420 370 q 362 511 391 456 q 290 621 334 566 l 411 731 q 519 588 475 660 q 586 453 564 515 q 608 349 608 391 z "},"¿":{"ha":707,"x_min":50,"x_max":688,"o":"m 477 427 q 456 271 477 326 q 387 175 435 216 l 342 134 q 279 7 279 73 q 301 -63 279 -41 q 360 -85 324 -85 q 431 -56 406 -85 q 458 26 456 -27 l 688 26 q 601 -186 685 -111 q 366 -261 517 -261 q 132 -191 214 -261 q 50 7 50 -121 q 75 114 50 64 q 163 222 101 163 l 221 275 q 279 378 273 319 l 283 427 l 477 427 m 386 519 q 295 551 332 519 q 259 633 259 583 q 295 716 259 684 q 386 748 332 748 q 477 715 441 748 q 513 633 513 682 q 477 552 513 585 q 386 519 441 519 z "},"×":{"ha":734,"x_min":36,"x_max":695,"o":"m 36 258 l 239 465 l 36 673 l 167 797 l 366 594 l 564 797 l 695 673 l 492 465 l 695 258 l 564 134 l 366 336 l 167 134 l 36 258 z "},"÷":{"ha":791,"x_min":40,"x_max":748,"o":"m 748 382 l 40 382 l 40 547 l 748 547 l 748 382 m 267 736 q 302 816 267 785 q 393 848 336 848 q 485 816 450 848 q 519 736 519 785 q 485 657 519 688 q 393 625 450 625 q 302 657 336 625 q 267 736 267 688 m 267 188 q 302 268 267 236 q 393 299 336 299 q 485 268 450 299 q 519 188 519 236 q 485 108 519 140 q 393 77 450 77 q 302 108 336 77 q 267 188 267 140 z "},"ʼ":{"ha":337,"x_min":45,"x_max":269,"o":"m 145 678 l 45 732 q 102 924 101 830 l 102 1042 l 269 1042 l 269 931 q 233 797 269 868 q 145 678 197 725 z "},"ˆ":{"ha":701,"x_min":66,"x_max":638,"o":"m 638 851 l 638 842 l 458 842 l 350 935 l 242 842 l 66 842 l 66 854 l 285 1042 l 416 1042 l 638 851 z "},"ˇ":{"ha":668,"x_min":37,"x_max":628,"o":"m 334 951 l 433 1042 l 628 1042 l 628 1035 l 407 843 l 260 843 l 37 1036 l 37 1042 l 234 1042 l 334 951 z "},"ˉ":{"ha":723,"x_min":123,"x_max":593,"o":"m 593 871 l 123 871 l 123 989 l 593 989 l 593 871 z "},"˘":{"ha":629,"x_min":64,"x_max":566,"o":"m 566 1043 q 497 892 566 950 q 315 835 429 835 q 132 892 201 835 q 64 1043 64 950 l 219 1043 q 244 980 219 1002 q 315 957 270 957 q 384 979 359 957 q 409 1043 409 1001 l 566 1043 z "},"˙":{"ha":382,"x_min":73,"x_max":297,"o":"m 73 935 q 104 1006 73 979 q 185 1034 136 1034 q 265 1006 233 1034 q 297 935 297 979 q 265 863 297 891 q 185 836 233 836 q 104 863 136 836 q 73 935 73 891 z "},"˚":{"ha":457,"x_min":80,"x_max":385,"o":"m 80 878 q 124 976 80 936 q 233 1015 169 1015 q 340 976 296 1015 q 385 878 385 936 q 341 781 385 820 q 233 743 297 743 q 124 781 168 743 q 80 878 80 820 m 233 807 q 284 827 265 807 q 302 878 302 848 q 284 928 302 907 q 233 949 265 949 q 181 928 199 949 q 162 878 162 907 q 181 827 162 848 q 233 807 199 807 z "},"˛":{"ha":437,"x_min":17,"x_max":294,"o":"m 279 0 q 204 -51 227 -26 q 181 -109 181 -75 q 222 -151 181 -151 q 269 -139 242 -151 l 294 -253 q 182 -283 245 -283 q 62 -243 107 -283 q 17 -138 17 -204 q 153 41 17 -20 l 279 0 z "},"˜":{"ha":669,"x_min":76,"x_max":600,"o":"m 600 1039 q 555 908 600 962 q 444 854 510 854 q 344 882 399 854 q 255 911 289 911 q 218 896 233 911 q 203 850 203 881 l 76 857 q 121 987 76 932 q 232 1042 166 1042 q 321 1017 266 1042 q 390 989 376 992 q 421 985 405 985 q 458 1000 443 985 q 474 1046 474 1015 l 600 1039 z "},"˝":{"ha":599,"x_min":27,"x_max":632,"o":"m 444 1041 l 632 1041 l 452 838 l 291 838 l 444 1041 m 161 1041 l 351 1041 l 190 838 l 27 838 l 161 1041 z "},"˳":{"ha":453,"x_min":104,"x_max":366,"o":"m 104 -153 q 143 -69 104 -102 q 236 -35 182 -35 q 328 -69 290 -35 q 366 -153 366 -102 q 329 -235 366 -203 q 236 -268 292 -268 q 142 -235 180 -268 q 104 -153 104 -202 m 189 -153 q 202 -187 189 -174 q 236 -200 216 -200 q 268 -187 256 -200 q 280 -153 280 -174 q 268 -117 280 -131 q 236 -104 256 -104 q 202 -117 216 -104 q 189 -153 189 -131 z "},"̀":{"ha":0,"x_min":-617,"x_max":-241,"o":"m -241 829 l -426 829 l -617 1042 l -376 1042 l -241 829 z "},"́":{"ha":0,"x_min":-468,"x_max":-93,"o":"m -334 1042 l -93 1042 l -281 829 l -468 829 l -334 1042 z "},"̃":{"ha":0,"x_min":-641,"x_max":-117,"o":"m -117 1039 q -162 908 -117 962 q -273 854 -207 854 q -373 882 -318 854 q -462 911 -428 911 q -499 896 -484 911 q -514 850 -514 881 l -641 857 q -596 987 -641 932 q -485 1042 -551 1042 q -396 1017 -451 1042 q -327 989 -341 992 q -296 985 -312 985 q -258 1000 -274 985 q -243 1046 -243 1015 l -117 1039 z "},"̉":{"ha":0,"x_min":-524,"x_max":-233,"o":"m -509 865 l -524 951 q -431 994 -431 955 q -522 1038 -431 1038 l -517 1137 q -304 1101 -376 1137 q -233 1003 -233 1066 q -260 940 -233 965 q -334 907 -287 914 l -334 865 l -509 865 z "},"̏":{"ha":0,"x_min":-725,"x_max":-91,"o":"m -349 849 l -532 849 l -725 1029 l -515 1029 l -349 849 m -91 849 l -277 849 l -443 1029 l -231 1029 l -91 849 z "},"̣":{"ha":0,"x_min":-532,"x_max":-278,"o":"m -532 -156 q -495 -83 -532 -112 q -405 -55 -459 -55 q -314 -83 -351 -55 q -278 -156 -278 -112 q -314 -229 -278 -200 q -405 -257 -351 -257 q -495 -229 -459 -257 q -532 -156 -532 -200 z "},"Δ":{"ha":1034,"x_min":11,"x_max":1038,"o":"m 519 987 l 522 985 l 524 987 l 651 987 l 1038 0 l 11 0 l 392 987 l 519 987 m 329 183 l 720 183 l 522 715 l 329 183 z "},"Ω":{"ha":937,"x_min":66,"x_max":861,"o":"m 498 189 q 566 307 543 218 q 589 536 589 396 l 589 591 q 556 759 589 703 q 463 814 523 814 q 371 759 404 814 q 338 591 338 703 l 338 538 q 361 307 338 395 q 433 189 385 220 l 433 0 l 81 0 l 81 186 l 231 186 q 111 343 155 252 q 66 534 67 433 l 66 589 q 117 802 66 708 q 257 948 167 896 q 463 1000 348 1000 q 667 949 576 1000 q 809 805 758 898 q 861 596 860 712 l 861 538 q 793 298 861 410 q 697 186 753 235 l 846 186 l 846 0 l 498 0 l 498 189 z "},"،":{"ha":454,"x_min":83,"x_max":404,"o":"m 404 431 q 323 351 362 394 q 275 264 284 308 q 344 216 324 253 q 363 138 363 180 q 328 40 363 80 q 231 1 293 1 q 120 48 156 1 q 83 159 83 95 q 112 307 83 241 q 188 425 140 372 q 292 521 235 477 l 404 431 z "},"؍":{"ha":562,"x_min":-15,"x_max":533,"o":"m 358 992 l 533 939 l 160 -153 l -15 -100 l 358 992 z "},"ؐ":{"ha":0,"x_min":73,"x_max":566,"o":"m 83 806 q 100 847 94 825 q 106 900 106 870 q 98 966 106 932 q 73 1030 89 999 l 144 1055 l 172 972 q 193 945 182 948 q 429 1141 309 1141 q 527 1104 488 1141 q 566 1010 566 1066 q 500 896 565 933 q 312 859 435 859 l 294 859 q 176 875 217 859 q 167 816 175 842 q 146 768 159 790 l 83 806 m 311 934 q 448 953 405 934 q 491 1007 491 972 q 474 1049 491 1033 q 431 1066 458 1066 q 273 934 360 1066 l 311 934 z "},"ؑ":{"ha":0,"x_min":73,"x_max":517,"o":"m 178 858 q 168 807 176 831 q 146 762 159 783 l 83 800 q 100 841 94 818 q 106 893 106 863 q 97 959 106 926 q 73 1023 88 992 l 145 1048 l 165 980 q 180 951 172 963 q 197 937 188 939 l 247 937 q 224 977 234 956 q 215 1028 215 998 q 258 1142 215 1094 q 373 1190 300 1190 q 448 1175 415 1190 q 507 1134 480 1160 l 477 1068 q 431 1097 454 1086 q 385 1109 408 1108 q 317 1084 343 1109 q 291 1025 291 1060 q 299 993 291 1017 q 342 954 308 969 q 352 951 349 950 l 517 993 l 517 913 q 351 872 429 886 q 197 858 272 858 l 178 858 z "},"ؒ":{"ha":0,"x_min":57,"x_max":629,"o":"m 366 677 q 312 675 340 675 q 129 723 199 675 q 58 871 58 770 q 127 1031 58 961 q 332 1131 197 1101 q 319 1136 325 1134 q 298 1145 313 1139 q 236 1170 260 1161 q 198 1179 212 1179 q 157 1166 177 1179 q 123 1136 137 1154 l 113 1123 l 57 1151 l 62 1160 q 121 1221 86 1198 q 199 1244 157 1244 q 250 1235 222 1244 q 311 1209 278 1225 q 408 1168 370 1181 q 477 1153 446 1154 l 473 1090 q 293 1053 374 1082 q 166 978 213 1023 q 119 877 119 933 q 317 739 119 739 q 336 739 327 739 q 354 740 345 739 l 366 677 m 595 1089 q 629 935 629 1010 q 582 785 629 853 q 426 692 534 716 l 399 747 q 529 818 490 768 q 568 929 568 867 q 559 997 568 962 q 535 1067 551 1031 l 595 1089 z "},"ؕ":{"ha":0,"x_min":85,"x_max":517,"o":"m 160 925 q 172 945 166 935 q 184 964 178 955 l 184 1286 l 242 1286 l 242 1046 q 388 1131 311 1131 q 481 1096 446 1131 q 517 1007 517 1061 q 273 864 515 864 l 85 864 l 85 925 l 160 925 m 271 926 q 457 1004 457 926 q 439 1051 457 1032 q 391 1069 420 1069 q 309 1033 351 1069 q 221 925 267 996 l 271 926 z "},"؛":{"ha":454,"x_min":83,"x_max":404,"o":"m 404 765 q 323 685 362 728 q 275 598 284 642 q 344 550 324 587 q 363 471 363 513 q 328 374 363 414 q 231 334 293 334 q 120 381 156 334 q 83 493 83 429 q 112 640 83 575 q 188 758 140 705 q 292 854 235 811 l 404 765 m 102 132 q 141 224 102 186 q 233 263 179 263 q 326 224 288 263 q 364 132 364 186 q 326 39 364 78 q 233 1 288 1 q 141 38 180 1 q 102 132 102 76 z "},"؟":{"ha":627,"x_min":26,"x_max":601,"o":"m 26 665 q 69 813 26 750 q 179 912 112 877 q 318 947 246 947 q 533 863 468 947 q 601 631 598 779 l 414 631 q 396 719 411 694 q 326 743 381 743 q 231 659 231 743 q 253 620 231 637 q 309 582 276 602 q 376 531 342 562 q 434 454 410 501 q 460 334 458 406 l 253 334 q 235 407 252 380 q 192 449 218 433 q 138 479 166 465 q 84 513 109 493 q 42 569 58 534 q 26 665 26 605 m 225 132 q 263 224 225 186 q 356 263 302 263 q 449 224 410 263 q 487 132 487 186 q 449 39 487 78 q 356 1 410 1 q 264 38 302 1 q 225 132 225 76 z "},"ء":{"ha":563,"x_min":29,"x_max":539,"o":"m 123 175 q 64 245 85 205 q 43 335 43 285 q 77 474 43 414 q 169 566 111 533 q 300 599 227 599 q 410 574 363 599 q 497 511 458 549 l 433 353 q 374 391 407 371 q 309 411 341 411 q 227 336 227 411 q 245 302 227 323 q 311 258 262 281 q 409 282 361 273 q 510 299 457 292 l 539 111 q 296 42 425 96 q 29 -87 168 -11 l 29 121 q 77 150 52 136 q 123 175 101 163 z "},"آ":{"ha":315,"x_min":-119,"x_max":408,"o":"m 81 980 q 25 953 53 980 q -30 892 -2 926 l -119 964 q -38 1056 -83 1015 q 64 1097 7 1097 q 126 1085 96 1097 q 185 1061 157 1073 q 237 1048 213 1048 q 289 1064 261 1048 q 350 1096 317 1079 l 408 998 q 329 955 371 975 q 241 935 288 935 q 183 946 211 935 q 129 969 155 958 q 81 980 104 980 m 60 851 l 256 851 l 256 1 l 60 1 l 60 851 z "},"أ":{"ha":315,"x_min":12,"x_max":283,"o":"m 83 966 q 51 1014 63 987 q 38 1076 38 1041 q 45 1124 38 1103 q 65 1161 53 1145 q 112 1198 84 1185 q 169 1211 140 1211 q 218 1203 199 1211 q 256 1183 237 1195 l 257 1101 q 218 1119 237 1112 q 178 1126 199 1126 q 153 1122 166 1126 q 130 1109 140 1119 q 114 1067 114 1095 q 128 1029 115 1048 q 174 1002 142 1010 q 180 999 177 1000 q 186 998 183 998 q 192 999 189 998 l 283 1017 l 283 937 l 12 872 l 12 950 l 83 966 m 60 810 l 256 810 l 256 2 l 60 2 l 60 810 z "},"ؤ":{"ha":597,"x_min":18,"x_max":571,"o":"m 213 725 q 181 773 193 746 q 168 835 168 800 q 176 882 168 861 q 195 920 183 903 q 242 957 214 944 q 299 969 270 969 q 348 961 329 969 q 387 942 367 954 l 387 860 q 348 878 367 871 q 309 884 330 884 q 283 881 296 884 q 260 868 271 878 q 244 826 244 853 q 258 788 245 806 q 304 760 272 769 q 310 758 307 759 q 317 757 313 757 q 322 758 319 757 l 413 776 l 413 696 l 142 631 l 142 709 l 213 725 m 355 4 q 304 0 327 0 q 101 60 177 0 q 26 241 26 121 q 41 353 26 296 q 89 458 57 410 q 172 535 121 506 q 290 564 222 564 q 420 528 367 564 q 507 431 474 491 q 556 298 541 370 q 571 153 571 225 q 446 -195 571 -63 q 88 -370 321 -328 l 18 -189 q 232 -117 145 -165 q 355 4 319 -70 m 374 207 q 339 332 364 301 q 285 363 314 363 q 248 344 262 363 q 226 298 233 325 q 219 245 219 271 q 232 211 219 222 q 307 201 245 201 q 374 207 341 201 z "},"إ":{"ha":315,"x_min":3,"x_max":273,"o":"m 73 -324 q 41 -276 54 -303 q 28 -214 28 -250 q 36 -167 28 -188 q 56 -130 43 -146 q 102 -93 75 -105 q 159 -80 130 -80 q 208 -88 189 -80 q 247 -107 227 -96 l 248 -189 q 209 -172 227 -178 q 169 -165 190 -165 q 144 -168 157 -165 q 121 -181 131 -172 q 104 -223 104 -196 q 119 -261 105 -243 q 164 -289 132 -280 q 171 -291 168 -290 q 177 -292 174 -292 q 182 -292 180 -292 l 273 -273 l 273 -353 l 3 -418 l 3 -340 l 73 -324 m 60 947 l 256 947 l 256 1 l 60 1 l 60 947 z "},"ئ":{"ha":1002,"x_min":26,"x_max":977,"o":"m 330 581 q 297 629 310 602 q 285 691 285 656 q 292 739 285 718 q 312 776 300 760 q 359 813 331 800 q 416 825 387 825 q 465 818 446 825 q 503 798 484 810 l 504 716 q 465 734 484 727 q 425 741 446 741 q 400 737 413 741 q 377 724 387 734 q 361 682 361 709 q 375 644 361 663 q 420 616 389 625 q 427 614 424 615 q 433 613 430 613 q 439 614 436 613 l 530 632 l 530 552 l 259 487 l 259 565 l 330 581 m 298 385 q 246 233 269 313 q 223 90 223 152 q 282 -84 223 -32 q 484 -138 342 -137 q 629 -119 561 -138 q 741 -70 697 -100 q 784 -3 784 -39 q 779 9 784 7 q 758 11 774 11 l 661 11 q 509 66 564 11 q 453 219 453 121 q 498 388 453 311 q 622 513 543 466 q 802 561 701 561 q 888 550 839 561 q 977 524 937 540 l 940 334 q 878 352 911 344 q 802 360 844 360 q 715 337 749 360 q 665 283 681 315 q 649 228 649 252 q 652 214 649 217 q 667 212 656 212 l 776 212 q 924 152 872 212 q 975 8 975 92 q 937 -140 975 -75 q 830 -248 898 -204 q 675 -315 763 -292 q 488 -338 587 -338 q 150 -228 274 -338 q 26 94 26 -118 q 53 274 26 180 q 118 458 80 368 l 298 385 z "},"ا":{"ha":315,"x_min":60,"x_max":256,"o":"m 60 947 l 256 947 l 256 1 l 60 1 l 60 947 z "},"ب":{"ha":1205,"x_min":26,"x_max":1179,"o":"m 501 -205 l 629 -79 l 756 -205 l 629 -333 l 501 -205 m 661 0 l 570 0 q 282 40 405 0 q 93 161 160 79 q 26 369 26 243 q 43 487 26 431 q 81 593 60 543 l 259 526 q 237 459 248 496 q 226 386 226 423 q 302 252 227 300 q 563 203 378 203 l 656 203 q 829 210 756 203 q 941 247 902 217 q 981 345 981 277 q 976 399 981 364 q 963 474 970 435 q 948 544 956 513 l 1136 590 q 1157 510 1147 555 q 1173 421 1166 464 q 1179 355 1179 379 q 1138 168 1179 239 q 1024 61 1097 98 q 858 13 951 25 q 661 0 765 0 z "},"ة":{"ha":625,"x_min":26,"x_max":600,"o":"m 241 730 q 428 576 347 656 q 554 416 509 496 q 600 260 600 336 q 562 124 600 182 q 459 34 524 66 q 313 3 395 3 q 165 31 231 3 q 63 117 100 60 q 26 260 26 174 q 60 406 26 334 q 157 554 94 478 l 130 578 l 241 730 m 304 417 q 239 331 258 370 q 220 264 220 292 q 236 220 220 237 q 312 203 252 203 q 390 218 374 203 q 405 264 405 232 q 382 328 405 287 q 304 417 359 368 m 62 894 l 180 1011 l 295 897 l 410 1011 l 528 893 l 410 775 l 295 890 l 180 775 l 62 894 z "},"ت":{"ha":1205,"x_min":26,"x_max":1179,"o":"m 661 0 l 570 0 q 282 40 405 0 q 93 161 160 79 q 26 369 26 243 q 43 487 26 431 q 81 593 60 543 l 259 526 q 237 459 248 496 q 226 386 226 423 q 302 252 227 300 q 563 203 378 203 l 656 203 q 829 210 756 203 q 941 247 902 217 q 981 345 981 277 q 976 399 981 364 q 963 474 970 435 q 948 544 956 513 l 1136 590 q 1157 510 1147 555 q 1173 421 1166 464 q 1179 355 1179 379 q 1138 168 1179 239 q 1024 61 1097 98 q 858 13 951 25 q 661 0 765 0 m 374 644 l 492 762 l 608 647 l 722 762 l 840 644 l 722 526 l 608 641 l 492 526 l 374 644 z "},"ث":{"ha":1205,"x_min":26,"x_max":1179,"o":"m 661 0 l 570 0 q 282 40 405 0 q 93 161 160 79 q 26 369 26 243 q 43 487 26 431 q 81 593 60 543 l 259 526 q 237 459 248 496 q 226 386 226 423 q 302 252 227 300 q 563 203 378 203 l 656 203 q 829 210 756 203 q 941 247 902 217 q 981 345 981 277 q 976 399 981 364 q 963 474 970 435 q 948 544 956 513 l 1136 590 q 1157 510 1147 555 q 1173 421 1166 464 q 1179 355 1179 379 q 1138 168 1179 239 q 1024 61 1097 98 q 858 13 951 25 q 661 0 765 0 m 494 771 l 606 882 l 719 771 l 606 659 l 494 771 m 611 593 l 723 705 l 836 593 l 723 481 l 611 593 m 380 593 l 492 705 l 605 593 l 492 481 l 380 593 z "},"ج":{"ha":913,"x_min":9,"x_max":877,"o":"m 441 420 q 423 428 432 424 q 406 434 414 431 q 323 458 340 458 q 270 441 298 458 q 220 397 241 425 l 180 347 l 9 432 l 41 488 q 161 613 87 566 q 324 661 235 661 q 431 641 376 661 q 547 591 486 621 q 652 543 609 562 q 731 514 696 524 q 800 498 766 503 q 877 492 834 494 l 862 300 q 607 258 724 289 q 403 180 490 227 q 268 74 316 133 q 220 -51 220 16 q 293 -208 220 -154 q 541 -262 366 -262 q 692 -247 625 -262 q 829 -200 759 -233 l 876 -394 q 718 -445 798 -431 q 532 -459 637 -459 q 275 -417 390 -459 q 94 -287 161 -375 q 26 -62 26 -199 q 135 225 26 98 q 441 420 243 353 m 418 -12 l 545 115 l 673 -12 l 545 -140 l 418 -12 z "},"ح":{"ha":913,"x_min":9,"x_max":877,"o":"m 441 420 q 423 428 432 424 q 406 434 414 431 q 323 458 340 458 q 270 441 298 458 q 220 397 241 425 l 180 347 l 9 432 l 41 488 q 161 613 87 566 q 324 661 235 661 q 431 641 376 661 q 547 591 486 621 q 652 543 609 562 q 731 514 696 524 q 800 498 766 503 q 877 492 834 494 l 862 300 q 607 258 724 289 q 403 180 490 227 q 268 74 316 133 q 220 -51 220 16 q 293 -208 220 -154 q 541 -262 366 -262 q 692 -247 625 -262 q 829 -200 759 -233 l 876 -394 q 718 -445 798 -431 q 532 -459 637 -459 q 275 -417 390 -459 q 94 -287 161 -375 q 26 -62 26 -199 q 135 225 26 98 q 441 420 243 353 z "},"خ":{"ha":913,"x_min":9,"x_max":877,"o":"m 256 864 l 384 991 l 511 864 l 384 736 l 256 864 m 441 420 q 423 428 432 424 q 406 434 414 431 q 323 458 340 458 q 270 441 298 458 q 220 397 241 425 l 180 347 l 9 432 l 41 488 q 161 613 87 566 q 324 661 235 661 q 431 641 376 661 q 547 591 486 621 q 652 543 609 562 q 731 514 696 524 q 800 498 766 503 q 877 492 834 494 l 862 300 q 607 258 724 289 q 403 180 490 227 q 268 74 316 133 q 220 -51 220 16 q 293 -208 220 -154 q 541 -262 366 -262 q 692 -247 625 -262 q 829 -200 759 -233 l 876 -394 q 718 -445 798 -431 q 532 -459 637 -459 q 275 -417 390 -459 q 94 -287 161 -375 q 26 -62 26 -199 q 135 225 26 98 q 441 420 243 353 z "},"د":{"ha":653,"x_min":26,"x_max":627,"o":"m 26 231 q 123 213 68 222 q 215 204 178 204 q 346 216 300 204 q 409 247 392 228 q 427 288 427 267 q 389 367 427 320 q 285 470 352 414 q 130 581 218 526 l 241 749 q 442 608 355 681 q 578 456 529 535 q 627 290 627 377 q 519 72 627 143 q 224 1 412 1 q 120 8 169 1 q 26 25 71 16 l 26 231 z "},"ذ":{"ha":653,"x_min":26,"x_max":627,"o":"m 109 929 l 236 1056 l 363 929 l 236 802 l 109 929 m 26 231 q 123 213 68 222 q 215 204 178 204 q 346 216 300 204 q 409 247 392 228 q 427 288 427 267 q 389 367 427 320 q 285 470 352 414 q 130 581 218 526 l 241 749 q 442 608 355 681 q 578 456 529 535 q 627 290 627 377 q 519 72 627 143 q 224 1 412 1 q 120 8 169 1 q 26 25 71 16 l 26 231 z "},"ر":{"ha":481,"x_min":-66,"x_max":456,"o":"m 382 449 q 435 288 415 373 q 456 117 456 202 q 408 -99 456 0 q 264 -269 361 -198 q 20 -374 168 -340 l -66 -199 q 180 -85 99 -159 q 262 106 262 -11 q 242 243 262 169 q 195 382 223 318 l 382 449 z "},"ز":{"ha":481,"x_min":-66,"x_max":456,"o":"m 151 666 l 278 793 l 406 666 l 278 538 l 151 666 m 382 449 q 435 288 415 373 q 456 117 456 202 q 408 -99 456 0 q 264 -269 361 -198 q 20 -374 168 -340 l -66 -199 q 180 -85 99 -159 q 262 106 262 -11 q 242 243 262 169 q 195 382 223 318 l 382 449 z "},"س":{"ha":1666,"x_min":26,"x_max":1640,"o":"m 1038 0 q 947 14 987 0 q 869 -188 932 -106 q 707 -311 806 -269 q 489 -353 609 -353 q 243 -302 347 -353 q 82 -155 139 -252 q 26 79 26 -59 q 49 253 26 165 q 105 422 72 342 l 285 350 q 242 214 261 286 q 224 82 224 142 q 284 -95 224 -39 q 487 -151 344 -151 q 691 -90 625 -151 q 758 109 757 -28 q 734 248 758 176 q 681 382 711 319 l 878 450 l 930 286 q 969 222 945 241 q 1040 203 993 204 q 1107 224 1089 203 q 1124 304 1124 245 q 1123 342 1124 313 q 1119 405 1121 371 q 1115 461 1117 438 l 1308 484 l 1322 288 q 1341 223 1325 243 q 1388 203 1356 203 q 1426 223 1409 203 q 1442 313 1442 242 q 1436 374 1442 338 q 1421 450 1430 410 q 1402 522 1412 489 l 1591 569 q 1624 448 1609 511 q 1640 323 1640 385 q 1616 169 1640 243 q 1538 48 1592 95 q 1389 0 1483 1 q 1221 71 1282 0 q 1038 0 1146 0 z "},"ش":{"ha":1666,"x_min":26,"x_max":1640,"o":"m 1071 864 l 1183 975 l 1295 864 l 1183 751 l 1071 864 m 1187 686 l 1299 798 l 1412 686 l 1299 574 l 1187 686 m 957 686 l 1069 798 l 1181 686 l 1069 574 l 957 686 m 1038 0 q 947 14 987 0 q 869 -188 932 -106 q 707 -311 806 -269 q 489 -353 609 -353 q 243 -302 347 -353 q 82 -155 139 -252 q 26 79 26 -59 q 49 253 26 165 q 105 422 72 342 l 285 350 q 242 214 261 286 q 224 82 224 142 q 284 -95 224 -39 q 487 -151 344 -151 q 691 -90 625 -151 q 758 109 757 -28 q 734 248 758 176 q 681 382 711 319 l 878 450 l 930 286 q 969 222 945 241 q 1040 203 993 204 q 1107 224 1089 203 q 1124 304 1124 245 q 1123 342 1124 313 q 1119 405 1121 371 q 1115 461 1117 438 l 1308 484 l 1322 288 q 1341 223 1325 243 q 1388 203 1356 203 q 1426 223 1409 203 q 1442 313 1442 242 q 1436 374 1442 338 q 1421 450 1430 410 q 1402 522 1412 489 l 1591 569 q 1624 448 1609 511 q 1640 323 1640 385 q 1616 169 1640 243 q 1538 48 1592 95 q 1389 0 1483 1 q 1221 71 1282 0 q 1038 0 1146 0 z "},"ص":{"ha":1746,"x_min":26,"x_max":1721,"o":"m 285 350 q 242 215 261 286 q 224 82 224 144 q 284 -95 224 -39 q 487 -151 344 -151 q 690 -90 624 -151 q 758 109 757 -28 q 734 249 758 178 q 681 382 711 320 l 878 450 l 930 286 q 950 241 940 258 q 1178 518 1061 421 q 1423 615 1294 615 q 1575 577 1508 615 q 1682 474 1643 539 q 1721 327 1721 408 q 1656 142 1721 214 q 1474 35 1592 69 q 1192 0 1356 0 l 1157 0 q 947 22 1028 0 q 870 -186 935 -102 q 707 -311 806 -269 q 489 -353 608 -353 q 242 -302 346 -353 q 82 -155 138 -252 q 26 79 26 -59 q 49 253 26 165 q 105 422 72 342 l 285 350 m 1189 204 q 1387 221 1315 204 q 1489 264 1459 237 q 1518 321 1518 290 q 1494 385 1518 360 q 1427 410 1470 410 q 1309 361 1375 410 q 1166 204 1243 312 l 1189 204 z "},"ض":{"ha":1746,"x_min":26,"x_max":1721,"o":"m 1269 830 l 1396 957 l 1524 830 l 1396 703 l 1269 830 m 285 350 q 242 215 261 286 q 224 82 224 144 q 284 -95 224 -39 q 487 -151 344 -151 q 690 -90 624 -151 q 758 109 757 -28 q 734 249 758 178 q 681 382 711 320 l 878 450 l 930 286 q 950 241 940 258 q 1178 518 1061 421 q 1423 615 1294 615 q 1575 577 1508 615 q 1682 474 1643 539 q 1721 327 1721 408 q 1656 142 1721 214 q 1474 35 1592 69 q 1192 0 1356 0 l 1157 0 q 947 22 1028 0 q 870 -186 935 -102 q 707 -311 806 -269 q 489 -353 608 -353 q 242 -302 346 -353 q 82 -155 138 -252 q 26 79 26 -59 q 49 253 26 165 q 105 422 72 342 l 285 350 m 1189 204 q 1387 221 1315 204 q 1489 264 1459 237 q 1518 321 1518 290 q 1494 385 1518 360 q 1427 410 1470 410 q 1309 361 1375 410 q 1166 204 1243 312 l 1189 204 z "},"ط":{"ha":998,"x_min":26,"x_max":972,"o":"m 195 203 q 211 229 203 217 q 226 253 218 241 l 226 947 l 422 947 l 422 507 q 541 587 478 559 q 672 615 604 615 q 827 578 760 615 q 933 475 895 541 q 972 327 972 410 q 907 142 971 214 q 725 35 843 69 q 443 0 607 0 l 26 0 l 26 203 l 195 203 m 440 205 q 638 221 566 205 q 740 264 710 238 q 770 321 770 291 q 745 386 770 361 q 678 411 721 411 q 561 362 627 411 q 417 205 494 313 l 440 205 z "},"ظ":{"ha":998,"x_min":26,"x_max":972,"o":"m 531 830 l 659 957 l 786 830 l 659 703 l 531 830 m 195 203 q 211 229 203 217 q 226 253 218 241 l 226 947 l 422 947 l 422 507 q 541 587 478 559 q 672 615 604 615 q 827 578 760 615 q 933 475 895 541 q 972 327 972 410 q 907 142 971 214 q 725 35 843 69 q 443 0 607 0 l 26 0 l 26 203 l 195 203 m 440 205 q 638 221 566 205 q 740 264 710 238 q 770 321 770 291 q 745 386 770 361 q 678 411 721 411 q 561 362 627 411 q 417 205 494 313 l 440 205 z "},"ع":{"ha":886,"x_min":26,"x_max":850,"o":"m 675 487 q 580 538 632 512 q 485 564 528 564 q 407 537 438 564 q 376 468 376 511 q 389 415 376 436 q 427 362 402 394 q 618 380 537 380 q 705 377 663 380 q 787 369 747 373 l 761 175 q 707 177 740 176 q 659 178 674 178 q 402 145 499 178 q 263 57 306 112 q 220 -66 220 2 q 290 -206 220 -153 q 519 -259 359 -259 q 667 -243 599 -259 q 802 -196 734 -227 l 850 -389 q 693 -442 772 -427 q 512 -457 613 -457 q 328 -434 415 -457 q 172 -363 240 -410 q 65 -242 104 -315 q 26 -71 26 -170 q 76 136 26 43 q 235 289 127 229 q 178 477 178 376 q 220 620 178 555 q 330 726 262 686 q 478 766 399 766 q 623 734 557 766 q 752 658 688 702 l 675 487 z "},"غ":{"ha":886,"x_min":26,"x_max":850,"o":"m 334 964 l 462 1091 l 589 964 l 462 837 l 334 964 m 675 487 q 580 538 632 512 q 485 564 528 564 q 407 537 438 564 q 376 468 376 511 q 389 415 376 436 q 427 362 402 394 q 618 380 537 380 q 705 377 663 380 q 787 369 747 373 l 761 175 q 707 177 740 176 q 659 178 674 178 q 402 145 499 178 q 263 57 306 112 q 220 -66 220 2 q 290 -206 220 -153 q 519 -259 359 -259 q 667 -243 599 -259 q 802 -196 734 -227 l 850 -389 q 693 -442 772 -427 q 512 -457 613 -457 q 328 -434 415 -457 q 172 -363 240 -410 q 65 -242 104 -315 q 26 -71 26 -170 q 76 136 26 43 q 235 289 127 229 q 178 477 178 376 q 220 620 178 555 q 330 726 262 686 q 478 766 399 766 q 623 734 557 766 q 752 658 688 702 l 675 487 z "},"ؽ":{"ha":1002,"x_min":26,"x_max":977,"o":"m 391 773 l 496 773 l 635 540 l 535 540 l 444 696 l 353 540 l 252 540 l 391 773 m 298 385 q 246 233 269 313 q 223 90 223 152 q 282 -84 223 -32 q 484 -138 342 -137 q 629 -119 561 -138 q 741 -70 697 -100 q 784 -3 784 -39 q 779 9 784 7 q 758 11 774 11 l 661 11 q 509 66 564 11 q 453 219 453 121 q 498 388 453 311 q 622 513 543 466 q 802 561 701 561 q 888 550 839 561 q 977 524 937 540 l 940 334 q 878 352 911 344 q 802 360 844 360 q 715 337 749 360 q 665 283 681 315 q 649 228 649 252 q 652 214 649 217 q 667 212 656 212 l 776 212 q 924 152 872 212 q 975 8 975 92 q 937 -140 975 -75 q 830 -248 898 -204 q 675 -315 763 -292 q 488 -338 587 -338 q 150 -228 274 -338 q 26 94 26 -118 q 53 274 26 180 q 118 458 80 368 l 298 385 z "},"ـ":{"ha":194,"x_min":-14,"x_max":208,"o":"m -14 0 l -14 203 l 208 203 l 208 0 l -14 0 z "},"ف":{"ha":1208,"x_min":26,"x_max":1182,"o":"m 756 972 l 884 1099 l 1011 972 l 884 845 l 756 972 m 983 264 q 901 258 942 258 q 709 308 780 258 q 639 471 639 358 q 653 578 639 523 q 699 682 668 634 q 780 758 730 729 q 901 787 830 787 q 1034 748 980 787 q 1121 645 1088 709 q 1168 505 1154 581 q 1182 353 1182 429 q 1135 136 1181 212 q 996 30 1088 59 q 764 0 903 0 l 568 0 q 278 40 399 0 q 91 162 157 80 q 26 369 26 243 q 43 487 26 431 q 81 593 60 543 l 259 526 q 237 456 248 496 q 226 379 226 416 q 305 249 226 295 q 565 203 384 203 l 779 203 q 925 218 882 203 q 983 264 968 233 m 981 450 q 946 550 968 514 q 897 587 924 587 q 861 568 876 587 q 837 524 846 550 q 829 473 829 497 q 844 449 829 456 q 908 441 859 441 q 944 444 926 441 q 981 450 963 446 z "},"ق":{"ha":975,"x_min":26,"x_max":949,"o":"m 416 780 l 534 897 l 650 783 l 764 897 l 882 779 l 764 661 l 650 777 l 534 661 l 416 780 m 285 391 q 242 256 261 327 q 224 123 224 185 q 286 -54 224 2 q 492 -110 348 -110 q 641 -90 586 -110 q 721 -32 695 -71 q 755 62 747 6 q 708 56 732 58 q 659 54 684 54 q 471 111 541 54 q 401 277 401 168 q 415 381 401 326 q 460 485 429 436 q 541 565 491 534 q 663 596 591 596 q 803 555 747 596 q 890 448 858 515 q 935 302 922 381 q 949 146 949 223 q 830 -195 949 -78 q 489 -312 712 -312 q 150 -199 273 -312 q 26 119 26 -87 q 49 294 26 205 q 105 463 72 382 l 285 391 m 743 258 q 709 359 732 323 q 659 396 686 396 q 607 362 624 396 q 591 296 591 329 q 604 263 591 275 q 669 250 617 250 q 743 258 707 250 z "},"ك":{"ha":1242,"x_min":26,"x_max":1182,"o":"m 663 203 q 849 214 783 203 q 945 244 916 224 q 980 293 974 264 q 986 359 986 322 l 986 947 l 1182 947 l 1182 361 q 1137 160 1182 240 q 980 40 1091 80 q 668 0 868 0 l 570 0 q 282 40 405 0 q 93 161 160 79 q 26 369 26 243 q 43 487 26 431 q 81 593 60 543 l 259 526 q 237 456 248 496 q 226 379 226 416 q 302 249 227 294 q 563 203 378 203 l 663 203 m 487 446 q 580 451 536 447 q 653 464 625 454 q 682 488 682 473 q 663 522 682 513 q 617 533 644 530 q 562 544 589 536 q 516 574 534 551 q 497 644 497 596 q 535 727 497 697 q 632 768 574 756 q 747 780 690 780 l 747 689 q 675 681 713 687 q 612 666 638 675 q 587 643 587 656 q 605 629 587 632 q 650 622 623 626 q 705 607 677 618 q 750 568 732 595 q 768 491 768 541 q 743 413 768 441 q 676 373 718 385 q 585 358 635 361 q 487 355 536 355 l 487 446 z "},"ل":{"ha":934,"x_min":26,"x_max":874,"o":"m 280 306 q 240 183 258 248 q 223 65 223 118 q 278 -100 223 -49 q 458 -151 334 -151 q 624 -96 571 -151 q 677 87 677 -41 l 679 947 l 874 947 l 873 113 q 768 -232 873 -111 q 457 -353 662 -353 q 139 -245 253 -353 q 26 66 26 -138 q 47 222 26 138 q 100 379 69 305 l 280 306 z "},"م":{"ha":834,"x_min":28,"x_max":808,"o":"m 37 -444 q 31 -313 33 -378 q 28 -185 28 -247 q 34 -23 28 -102 q 61 120 41 55 q 121 232 81 186 q 231 298 162 279 q 357 488 283 420 q 529 557 431 556 q 678 514 616 557 q 774 400 741 471 q 808 249 808 330 q 782 117 808 177 q 704 20 756 56 q 572 -16 651 -16 q 483 1 528 -16 q 385 46 437 17 q 318 83 355 65 q 298 92 307 90 q 284 94 288 94 q 260 73 274 94 q 237 -4 247 52 q 227 -166 227 -60 q 230 -312 227 -246 q 239 -444 234 -377 l 37 -444 m 430 254 q 512 205 469 226 q 576 185 555 185 q 604 197 594 185 q 614 241 614 210 q 590 321 614 293 q 529 350 566 350 q 480 327 506 350 q 430 254 454 304 z "},"ن":{"ha":981,"x_min":26,"x_max":956,"o":"m 352 524 l 479 650 l 607 524 l 479 396 l 352 524 m 681 430 l 878 498 q 934 318 912 412 q 956 136 956 224 q 894 -105 956 -7 q 727 -254 833 -203 q 489 -305 622 -305 q 242 -255 346 -305 q 82 -107 138 -204 q 26 126 26 -11 q 49 301 26 212 q 105 470 72 389 l 285 397 q 242 263 261 334 q 224 130 224 192 q 284 -47 224 9 q 487 -103 344 -103 q 690 -42 624 -103 q 758 156 757 20 q 734 296 758 225 q 681 430 711 368 z "},"ه":{"ha":625,"x_min":26,"x_max":600,"o":"m 241 730 q 428 576 347 656 q 554 416 509 496 q 600 260 600 336 q 562 124 600 182 q 459 34 524 66 q 313 3 395 3 q 165 31 231 3 q 63 117 100 60 q 26 260 26 174 q 60 406 26 334 q 157 554 94 478 l 130 578 l 241 730 m 304 417 q 239 331 258 370 q 220 264 220 292 q 236 220 220 237 q 312 203 252 203 q 390 218 374 203 q 405 264 405 232 q 382 328 405 287 q 304 417 359 368 z "},"و":{"ha":597,"x_min":18,"x_max":571,"o":"m 355 4 q 304 0 327 0 q 101 60 177 0 q 26 241 26 121 q 41 353 26 296 q 89 458 57 410 q 172 535 121 506 q 290 564 222 564 q 420 528 367 564 q 507 431 474 491 q 556 298 541 370 q 571 153 571 225 q 446 -195 571 -63 q 88 -370 321 -328 l 18 -189 q 232 -117 145 -165 q 355 4 319 -70 m 374 207 q 339 332 364 301 q 285 363 314 363 q 248 344 262 363 q 226 298 233 325 q 219 245 219 271 q 232 211 219 222 q 307 201 245 201 q 374 207 341 201 z "},"ى":{"ha":1002,"x_min":26,"x_max":977,"o":"m 298 385 q 246 233 269 313 q 223 90 223 152 q 282 -84 223 -32 q 484 -138 342 -137 q 629 -119 561 -138 q 741 -70 697 -100 q 784 -3 784 -39 q 779 9 784 7 q 758 11 774 11 l 661 11 q 509 66 564 11 q 453 219 453 121 q 498 388 453 311 q 622 513 543 466 q 802 561 701 561 q 888 550 839 561 q 977 524 937 540 l 940 334 q 878 352 911 344 q 802 360 844 360 q 715 337 749 360 q 665 283 681 315 q 649 228 649 252 q 652 214 649 217 q 667 212 656 212 l 776 212 q 924 152 872 212 q 975 8 975 92 q 937 -140 975 -75 q 830 -248 898 -204 q 675 -315 763 -292 q 488 -338 587 -338 q 150 -228 274 -338 q 26 94 26 -118 q 53 274 26 180 q 118 458 80 368 l 298 385 z "},"ي":{"ha":1002,"x_min":26,"x_max":977,"o":"m 255 -535 l 373 -418 l 488 -532 l 603 -418 l 721 -536 l 603 -654 l 488 -538 l 373 -654 l 255 -535 m 298 385 q 246 233 269 313 q 223 90 223 152 q 282 -84 223 -32 q 484 -138 342 -137 q 629 -119 561 -138 q 741 -70 697 -100 q 784 -3 784 -39 q 779 9 784 7 q 758 11 774 11 l 661 11 q 509 66 564 11 q 453 219 453 121 q 498 388 453 311 q 622 513 543 466 q 802 561 701 561 q 888 550 839 561 q 977 524 937 540 l 940 334 q 878 352 911 344 q 802 360 844 360 q 715 337 749 360 q 665 283 681 315 q 649 228 649 252 q 652 214 649 217 q 667 212 656 212 l 776 212 q 924 152 872 212 q 975 8 975 92 q 937 -140 975 -75 q 830 -248 898 -204 q 675 -315 763 -292 q 488 -338 587 -338 q 150 -228 274 -338 q 26 94 26 -118 q 53 274 26 180 q 118 458 80 368 l 298 385 z "},"ً":{"ha":0,"x_min":20,"x_max":342,"o":"m 20 739 l 20 824 l 342 956 l 342 871 l 20 739 m 20 595 l 20 680 l 342 812 l 342 727 l 20 595 z "},"ٌ":{"ha":0,"x_min":3,"x_max":434,"o":"m 189 833 q 223 918 189 886 q 307 950 256 950 q 390 918 357 950 q 423 833 423 886 q 408 756 423 797 q 434 755 420 755 l 434 689 q 408 691 421 690 q 378 695 395 692 q 283 623 345 649 q 157 597 222 597 q 86 627 105 597 q 67 701 67 657 q 69 732 67 716 q 73 766 71 749 l 3 749 l 5 819 l 149 852 q 135 774 142 814 q 128 709 128 735 q 158 664 128 664 q 236 677 191 664 q 311 712 280 690 q 227 754 264 724 q 189 833 189 785 m 341 770 q 352 802 348 785 q 357 832 357 819 q 343 868 357 854 q 309 882 329 882 q 272 868 286 882 q 257 831 257 854 q 283 793 257 808 q 341 770 309 779 z "},"ٍ":{"ha":0,"x_min":218,"x_max":541,"o":"m 218 -169 l 218 -83 l 541 48 l 541 -37 l 218 -169 m 218 -313 l 218 -227 l 541 -96 l 541 -181 l 218 -313 z "},"َ":{"ha":0,"x_min":23,"x_max":346,"o":"m 23 680 l 23 766 l 346 897 l 346 812 l 23 680 z "},"ُ":{"ha":0,"x_min":6,"x_max":320,"o":"m 320 705 q 262 708 288 705 q 159 635 226 660 q 6 606 92 611 l 6 673 q 117 692 67 678 q 193 726 167 706 q 111 768 148 738 q 74 846 74 798 q 107 931 74 899 q 191 963 141 963 q 275 931 241 963 q 309 846 309 899 q 294 770 309 810 q 320 769 305 769 l 320 705 m 226 783 q 237 815 233 798 q 241 845 241 831 q 228 881 241 867 q 194 895 214 895 q 156 881 170 895 q 142 844 142 867 q 168 806 142 821 q 226 783 194 791 z "},"ِ":{"ha":0,"x_min":226,"x_max":548,"o":"m 226 -245 l 226 -159 l 548 -28 l 548 -113 l 226 -245 z "},"ّ":{"ha":0,"x_min":9,"x_max":391,"o":"m 236 881 q 238 825 237 854 q 249 776 240 796 q 279 756 257 756 q 308 770 298 756 q 317 818 317 785 q 314 854 317 829 q 304 903 310 878 l 377 915 q 388 870 384 893 q 391 825 391 847 q 285 680 391 682 q 245 688 265 680 q 213 710 225 696 q 169 663 199 675 q 110 650 139 650 q 34 684 58 650 q 9 778 9 717 q 13 818 9 799 q 20 853 16 836 l 86 842 q 79 781 79 809 q 118 730 79 730 q 163 757 156 730 q 170 848 170 784 l 170 881 l 236 881 z "},"ْ":{"ha":0,"x_min":14,"x_max":262,"o":"m 14 778 q 51 865 14 829 q 138 902 87 902 q 226 865 189 902 q 262 778 262 829 q 226 690 262 727 q 138 654 189 654 q 51 690 87 654 q 14 778 14 727 m 81 778 q 98 738 81 754 q 138 722 115 722 q 178 738 162 722 q 195 778 195 754 q 178 818 195 802 q 138 835 162 835 q 98 818 115 835 q 81 778 81 802 z "},"ٓ":{"ha":0,"x_min":2,"x_max":413,"o":"m 157 795 q 111 774 133 795 q 67 726 90 753 l 2 779 q 66 849 31 819 q 143 880 100 880 q 192 870 168 880 q 238 851 216 861 q 282 842 261 842 q 323 853 302 842 q 370 878 344 865 l 413 806 q 352 773 384 788 q 285 759 319 759 q 217 777 249 759 q 157 795 186 795 z "},"ٔ":{"ha":0,"x_min":11,"x_max":281,"o":"m 81 726 q 49 773 62 747 q 37 836 37 800 q 44 883 37 862 q 64 920 52 904 q 111 957 83 945 q 168 970 138 970 q 216 962 197 970 q 255 943 235 954 l 256 861 q 217 878 235 871 q 177 885 198 885 q 152 882 165 885 q 129 869 139 878 q 113 827 113 854 q 127 788 113 807 q 172 761 140 770 q 179 759 176 760 q 185 758 182 758 q 191 758 188 758 l 281 777 l 281 696 l 11 631 l 11 709 l 81 726 z "},"ٕ":{"ha":0,"x_min":-3,"x_max":267,"o":"m 67 -263 q 35 -215 47 -242 q 22 -153 22 -189 q 30 -106 22 -127 q 50 -68 37 -85 q 96 -32 68 -44 q 153 -19 124 -19 q 202 -27 183 -19 q 241 -46 221 -35 l 241 -128 q 202 -111 221 -117 q 163 -104 184 -104 q 138 -107 151 -104 q 115 -120 125 -111 q 98 -162 98 -135 q 113 -200 99 -182 q 158 -228 126 -219 q 164 -230 161 -229 q 171 -231 168 -231 q 176 -231 174 -231 l 267 -212 l 267 -292 l -3 -357 l -3 -279 l 67 -263 z "},"ٖ":{"ha":0,"x_min":24,"x_max":94,"o":"m 24 -269 l 24 -12 l 94 -12 l 94 -269 l 24 -269 z "},"ٗ":{"ha":0,"x_min":15,"x_max":381,"o":"m 15 924 q 106 918 60 923 q 222 1028 159 986 q 381 1079 284 1070 l 381 1013 q 183 902 258 993 q 260 858 226 888 q 295 777 295 827 q 263 695 295 728 q 182 661 231 661 q 96 694 132 661 q 60 780 60 726 q 74 854 60 810 q 15 857 44 857 l 15 924 m 182 728 q 227 776 227 728 q 201 818 227 801 q 142 844 175 835 q 127 781 127 805 q 143 743 127 758 q 182 728 159 728 z "},"٘":{"ha":0,"x_min":35,"x_max":384,"o":"m 384 871 q 335 734 376 792 q 210 677 294 677 q 117 704 153 677 q 60 774 80 730 q 35 871 40 819 l 117 871 q 143 790 124 821 q 210 760 162 760 q 276 791 257 760 q 301 871 294 822 l 384 871 z "},"ٚ":{"ha":0,"x_min":197,"x_max":581,"o":"m 336 972 l 197 1206 l 298 1206 l 389 1050 l 480 1206 l 581 1206 l 441 972 l 336 972 z "},"ٛ":{"ha":0,"x_min":197,"x_max":581,"o":"m 336 1206 l 441 1206 l 581 972 l 480 972 l 389 1128 l 298 972 l 197 972 l 336 1206 z "},"٠":{"ha":542,"x_min":61,"x_max":481,"o":"m 61 332 l 270 541 l 481 331 l 271 121 l 61 332 z "},"١":{"ha":441,"x_min":24,"x_max":364,"o":"m 208 926 q 323 560 282 761 q 364 125 364 359 l 364 0 l 168 0 l 168 127 q 130 542 168 363 q 24 859 92 720 l 208 926 z "},"٢":{"ha":755,"x_min":24,"x_max":716,"o":"m 168 127 q 130 542 168 363 q 24 859 92 721 l 209 926 q 247 827 228 877 q 285 726 266 777 q 335 650 306 673 q 423 627 364 627 q 498 658 474 627 q 522 760 522 689 q 516 834 522 798 q 505 904 510 871 l 701 926 q 711 851 707 888 q 716 766 716 814 q 683 591 716 667 q 584 472 649 515 q 425 429 519 429 q 383 430 403 429 q 346 437 363 432 q 360 276 355 357 q 364 125 364 194 l 364 0 l 168 0 l 168 127 z "},"٣":{"ha":957,"x_min":24,"x_max":918,"o":"m 168 127 q 130 542 168 363 q 24 859 92 721 l 210 926 q 254 805 231 865 q 298 683 276 744 q 370 627 317 627 q 404 637 391 627 q 425 676 418 646 q 433 767 433 706 q 433 819 433 793 q 433 870 433 844 l 618 886 q 620 830 619 857 q 622 773 621 802 q 634 679 625 710 q 655 637 643 648 q 677 627 667 627 q 713 648 701 627 q 724 722 724 669 q 718 822 724 785 q 703 903 711 859 l 901 927 q 912 838 907 880 q 918 726 918 795 q 892 578 918 646 q 813 470 867 511 q 675 429 760 429 q 524 486 590 429 q 385 429 460 429 q 366 429 376 429 q 347 431 356 430 q 360 277 357 355 q 364 125 364 198 l 364 0 l 168 0 l 168 127 z "},"٤":{"ha":682,"x_min":48,"x_max":650,"o":"m 562 403 q 410 353 480 382 q 297 297 340 324 q 254 252 254 269 q 272 233 254 245 q 340 213 291 222 q 477 203 389 203 l 648 203 l 650 0 l 473 0 q 251 22 346 1 q 102 95 155 44 q 48 235 48 146 q 103 357 48 301 q 251 465 159 412 q 143 540 182 496 q 104 660 104 585 q 154 804 104 748 q 282 887 204 860 q 445 915 360 914 q 515 911 479 915 q 585 904 552 908 l 570 709 q 520 714 547 711 q 471 718 494 718 q 375 707 408 718 q 330 682 342 696 q 318 655 318 667 q 381 615 318 630 q 559 590 445 600 l 562 403 z "},"٥":{"ha":798,"x_min":39,"x_max":760,"o":"m 309 911 q 546 724 445 814 q 704 536 648 635 q 760 313 760 437 q 715 146 760 217 q 588 38 670 76 q 394 0 506 0 q 128 86 218 0 q 39 313 39 172 q 61 453 39 390 q 125 578 83 516 q 226 713 167 641 l 189 742 l 309 911 m 385 587 q 237 317 237 415 q 275 227 237 252 q 397 202 313 202 q 520 228 477 202 q 562 322 562 254 q 517 446 562 380 q 385 587 472 511 z "},"٦":{"ha":797,"x_min":22,"x_max":747,"o":"m 535 0 q 488 212 508 112 q 454 419 467 312 q 437 658 441 526 q 357 646 395 649 q 274 644 319 644 q 143 660 198 644 q 22 706 88 676 l 22 930 q 155 874 93 897 q 305 852 217 852 q 468 874 389 852 q 626 927 548 896 q 644 550 629 713 q 684 256 658 388 q 747 0 710 124 l 535 0 z "},"٧":{"ha":845,"x_min":9,"x_max":836,"o":"m 334 0 q 251 337 300 190 q 141 605 202 484 q 9 832 80 725 l 188 928 q 316 673 254 815 q 422 359 377 530 q 529 673 467 531 q 657 928 591 815 l 836 832 q 704 605 765 725 q 594 337 643 485 q 512 0 545 190 l 334 0 z "},"٨":{"ha":845,"x_min":9,"x_max":836,"o":"m 334 905 l 512 905 q 594 569 545 716 q 704 301 643 421 q 836 73 766 181 l 657 -23 q 529 233 591 90 q 422 547 467 375 q 316 232 377 374 q 188 -23 255 90 l 9 73 q 141 301 80 181 q 252 568 203 420 q 334 905 300 715 z "},"٩":{"ha":696,"x_min":32,"x_max":616,"o":"m 32 610 q 66 755 32 685 q 163 871 101 825 q 307 916 224 916 q 441 886 387 916 q 526 803 494 855 q 573 683 558 750 q 593 545 589 616 q 603 346 598 432 q 611 179 607 260 q 616 0 614 98 l 421 0 q 415 170 419 77 q 409 364 412 262 q 372 359 392 361 q 328 357 351 357 q 112 422 192 357 q 32 610 32 488 m 306 715 q 250 684 274 715 q 226 610 226 652 q 231 580 226 593 q 259 561 237 567 q 330 554 281 554 q 361 557 342 554 q 396 562 380 559 q 377 673 391 631 q 306 715 362 715 z "},"٪":{"ha":701,"x_min":47,"x_max":653,"o":"m 483 950 l 646 876 l 218 -9 l 55 64 l 483 950 m 47 766 q 86 859 47 820 q 178 897 124 897 q 271 859 233 897 q 309 766 309 820 q 271 673 309 712 q 178 635 233 635 q 86 672 125 635 q 47 766 47 710 m 391 172 q 430 264 391 226 q 522 303 468 303 q 615 264 576 303 q 653 172 653 226 q 615 79 653 118 q 522 41 576 41 q 430 78 469 41 q 391 172 391 116 z "},"٫":{"ha":524,"x_min":-7,"x_max":502,"o":"m 341 577 l 502 509 l 156 -290 l -7 -219 l 341 577 z "},"٬":{"ha":380,"x_min":0,"x_max":283,"o":"m 121 -255 l 0 -163 q 58 -67 31 -121 q 86 36 86 -14 l 86 189 l 283 189 l 283 50 q 259 -76 283 -19 q 198 -178 235 -134 q 121 -255 161 -223 z "},"٭":{"ha":974,"x_min":-22,"x_max":996,"o":"m -22 786 l 366 786 l 487 1154 l 608 786 l 996 786 l 683 556 l 803 188 l 487 416 l 171 188 l 291 556 l -22 786 z "},"ٮ":{"ha":1205,"x_min":26,"x_max":1179,"o":"m 661 0 l 570 0 q 282 40 405 0 q 93 161 160 79 q 26 369 26 243 q 43 487 26 431 q 81 593 60 543 l 259 526 q 237 459 248 496 q 226 386 226 423 q 302 252 227 300 q 563 203 378 203 l 656 203 q 829 210 756 203 q 941 247 902 217 q 981 345 981 277 q 976 399 981 364 q 963 474 970 435 q 948 544 956 513 l 1136 590 q 1157 510 1147 555 q 1173 421 1166 464 q 1179 355 1179 379 q 1138 168 1179 239 q 1024 61 1097 98 q 858 13 951 25 q 661 0 765 0 z "},"ٯ":{"ha":975,"x_min":26,"x_max":949,"o":"m 285 391 q 242 256 261 327 q 224 123 224 185 q 286 -54 224 2 q 492 -110 348 -110 q 641 -90 586 -110 q 721 -32 695 -71 q 755 62 747 6 q 708 56 732 58 q 659 54 684 54 q 471 111 541 54 q 401 277 401 168 q 415 381 401 326 q 460 485 429 436 q 541 565 491 534 q 663 596 591 596 q 803 555 747 596 q 890 448 858 515 q 935 302 922 381 q 949 146 949 223 q 830 -195 949 -78 q 489 -312 712 -312 q 150 -199 273 -312 q 26 119 26 -87 q 49 294 26 205 q 105 463 72 382 l 285 391 m 743 258 q 709 359 732 323 q 659 396 686 396 q 607 362 624 396 q 591 296 591 329 q 604 263 591 275 q 669 250 617 250 q 743 258 707 250 z "},"ٰ":{"ha":0,"x_min":37,"x_max":108,"o":"m 37 736 l 37 992 l 108 992 l 108 736 l 37 736 z "},"ٱ":{"ha":315,"x_min":-38,"x_max":354,"o":"m -38 931 l -23 1000 q 0 980 -13 991 q 28 962 14 969 q 126 1092 81 1052 q 226 1131 170 1131 q 318 1096 282 1131 q 354 1008 354 1061 q 304 908 354 937 q 138 880 254 880 l 122 880 q 20 892 60 880 q -38 931 -20 903 m 137 951 q 254 962 224 951 q 284 1005 284 973 q 269 1044 284 1028 q 229 1059 254 1059 q 169 1036 196 1059 q 102 951 142 1012 l 137 951 m 60 810 l 256 810 l 256 2 l 60 2 l 60 810 z "},"ٴ":{"ha":374,"x_min":56,"x_max":326,"o":"m 126 848 q 94 896 106 869 q 81 958 81 923 q 89 1006 81 985 q 109 1043 96 1027 q 155 1080 127 1067 q 212 1093 183 1093 q 261 1085 242 1093 q 300 1065 280 1077 l 300 983 q 261 1001 280 994 q 222 1008 243 1008 q 197 1004 210 1008 q 174 991 184 1001 q 157 949 157 977 q 172 911 158 930 q 217 884 185 892 q 223 881 220 882 q 230 880 227 880 q 235 881 233 880 l 326 899 l 326 819 l 56 754 l 56 832 l 126 848 z "},"ٹ":{"ha":1205,"x_min":26,"x_max":1179,"o":"m 477 573 q 486 587 481 580 q 493 600 490 593 l 493 898 l 570 898 l 570 703 q 626 743 597 728 q 688 758 655 758 q 782 723 745 758 q 818 633 818 687 q 756 526 817 560 q 585 492 696 492 l 404 492 l 404 573 l 477 573 m 585 574 q 703 590 669 574 q 738 631 738 606 q 726 664 738 652 q 692 677 713 677 q 631 649 665 677 q 564 573 598 622 l 585 574 m 661 0 l 570 0 q 282 40 405 0 q 93 161 160 79 q 26 369 26 243 q 43 487 26 431 q 81 593 60 543 l 259 526 q 237 459 248 496 q 226 386 226 423 q 302 252 227 300 q 563 203 378 203 l 656 203 q 829 210 756 203 q 941 247 902 217 q 981 345 981 277 q 976 399 981 364 q 963 474 970 435 q 948 544 956 513 l 1136 590 q 1157 510 1147 555 q 1173 421 1166 464 q 1179 355 1179 379 q 1138 168 1179 239 q 1024 61 1097 98 q 858 13 951 25 q 661 0 765 0 z "},"ټ":{"ha":1205,"x_min":26,"x_max":1179,"o":"m 479 -64 q 517 27 479 -11 q 609 66 555 66 q 701 27 663 66 q 739 -64 739 -11 q 701 -156 739 -118 q 609 -195 663 -195 q 517 -156 555 -195 q 479 -64 479 -118 m 552 -64 q 569 -104 552 -88 q 609 -121 585 -121 q 649 -104 633 -121 q 665 -64 665 -88 q 649 -24 665 -41 q 609 -7 633 -7 q 569 -24 585 -7 q 552 -64 552 -41 m 661 0 l 570 0 q 282 40 405 0 q 93 161 160 79 q 26 369 26 243 q 43 487 26 431 q 81 593 60 543 l 259 526 q 237 459 248 496 q 226 386 226 423 q 302 252 227 300 q 563 203 378 203 l 656 203 q 829 210 756 203 q 941 247 902 217 q 981 345 981 277 q 976 399 981 364 q 963 474 970 435 q 948 544 956 513 l 1136 590 q 1157 510 1147 555 q 1173 421 1166 464 q 1179 355 1179 379 q 1138 168 1179 239 q 1024 61 1097 98 q 858 13 951 25 q 661 0 765 0 m 374 583 l 492 701 l 608 586 l 722 701 l 840 583 l 722 465 l 608 580 l 492 465 l 374 583 z "},"پ":{"ha":1205,"x_min":26,"x_max":1179,"o":"m 619 -182 l 731 -69 l 844 -182 l 731 -294 l 619 -182 m 389 -182 l 500 -69 l 613 -182 l 500 -294 l 389 -182 m 503 -359 l 614 -247 l 727 -359 l 614 -471 l 503 -359 m 661 0 l 570 0 q 282 40 405 0 q 93 161 160 79 q 26 369 26 243 q 43 487 26 431 q 81 593 60 543 l 259 526 q 237 459 248 496 q 226 386 226 423 q 302 252 227 300 q 563 203 378 203 l 656 203 q 829 210 756 203 q 941 247 902 217 q 981 345 981 277 q 976 399 981 364 q 963 474 970 435 q 948 544 956 513 l 1136 590 q 1157 510 1147 555 q 1173 421 1166 464 q 1179 355 1179 379 q 1138 168 1179 239 q 1024 61 1097 98 q 858 13 951 25 q 661 0 765 0 z "},"ځ":{"ha":913,"x_min":9,"x_max":877,"o":"m 357 836 q 325 884 337 857 q 312 946 312 911 q 319 994 312 972 q 339 1031 327 1015 q 386 1068 358 1055 q 443 1080 414 1080 q 492 1073 473 1080 q 530 1053 511 1065 l 531 971 q 492 989 511 982 q 452 996 473 996 q 427 992 440 996 q 404 979 414 989 q 388 937 388 964 q 402 899 389 918 q 448 871 416 880 q 454 869 451 870 q 460 868 457 868 q 466 869 463 868 l 557 887 l 557 807 l 286 742 l 286 820 l 357 836 m 441 420 q 423 428 432 424 q 406 434 414 431 q 323 458 340 458 q 270 441 298 458 q 220 397 241 425 l 180 347 l 9 432 l 41 488 q 161 613 87 566 q 324 661 235 661 q 431 641 376 661 q 547 591 486 621 q 652 543 609 562 q 731 514 696 524 q 800 498 766 503 q 877 492 834 494 l 862 300 q 607 258 724 289 q 403 180 490 227 q 268 74 316 133 q 220 -51 220 16 q 293 -208 220 -154 q 541 -262 366 -262 q 692 -247 625 -262 q 829 -200 759 -233 l 876 -394 q 718 -445 798 -431 q 532 -459 637 -459 q 275 -417 390 -459 q 94 -287 161 -375 q 26 -62 26 -199 q 135 225 26 98 q 441 420 243 353 z "},"څ":{"ha":913,"x_min":9,"x_max":877,"o":"m 319 1000 l 431 1112 l 544 1000 l 431 888 l 319 1000 m 436 823 l 548 934 l 661 823 l 548 710 l 436 823 m 205 823 l 317 934 l 430 823 l 317 710 l 205 823 m 441 420 q 423 428 432 424 q 406 434 414 431 q 323 458 340 458 q 270 441 298 458 q 220 397 241 425 l 180 347 l 9 432 l 41 488 q 161 613 87 566 q 324 661 235 661 q 431 641 376 661 q 547 591 486 621 q 652 543 609 562 q 731 514 696 524 q 800 498 766 503 q 877 492 834 494 l 862 300 q 607 258 724 289 q 403 180 490 227 q 268 74 316 133 q 220 -51 220 16 q 293 -208 220 -154 q 541 -262 366 -262 q 692 -247 625 -262 q 829 -200 759 -233 l 876 -394 q 718 -445 798 -431 q 532 -459 637 -459 q 275 -417 390 -459 q 94 -287 161 -375 q 26 -62 26 -199 q 135 225 26 98 q 441 420 243 353 z "},"چ":{"ha":913,"x_min":9,"x_max":877,"o":"m 555 46 l 656 148 l 757 46 l 656 -54 l 555 46 m 348 46 l 449 148 l 550 46 l 449 -54 l 348 46 m 450 -114 l 551 -12 l 652 -114 l 551 -214 l 450 -114 m 441 420 q 423 428 432 424 q 406 434 414 431 q 323 458 340 458 q 270 441 298 458 q 220 397 241 425 l 180 347 l 9 432 l 41 488 q 161 613 87 566 q 324 661 235 661 q 431 641 376 661 q 547 591 486 621 q 652 543 609 562 q 731 514 696 524 q 800 498 766 503 q 877 492 834 494 l 862 300 q 607 258 724 289 q 403 180 490 227 q 268 74 316 133 q 220 -51 220 16 q 293 -208 220 -154 q 541 -262 366 -262 q 692 -247 625 -262 q 829 -200 759 -233 l 876 -394 q 718 -445 798 -431 q 532 -459 637 -459 q 275 -417 390 -459 q 94 -287 161 -375 q 26 -62 26 -199 q 135 225 26 98 q 441 420 243 353 z "},"ڈ":{"ha":653,"x_min":26,"x_max":627,"o":"m 148 927 q 157 941 153 934 q 164 954 161 947 l 164 1252 l 241 1252 l 241 1057 q 297 1097 269 1082 q 359 1112 326 1112 q 453 1077 416 1112 q 489 987 489 1041 q 428 880 488 914 q 256 846 367 846 l 75 846 l 75 927 l 148 927 m 256 928 q 374 944 340 928 q 409 985 409 960 q 397 1018 409 1006 q 363 1031 385 1031 q 302 1003 336 1031 q 235 927 269 976 l 256 928 m 26 231 q 123 213 68 222 q 215 204 178 204 q 346 216 300 204 q 409 247 392 228 q 427 288 427 267 q 389 367 427 320 q 285 470 352 414 q 130 581 218 526 l 241 749 q 442 608 355 681 q 578 456 529 535 q 627 290 627 377 q 519 72 627 143 q 224 1 412 1 q 120 8 169 1 q 26 25 71 16 l 26 231 z "},"ډ":{"ha":653,"x_min":26,"x_max":627,"o":"m 161 -62 q 200 30 161 -8 q 292 68 238 68 q 384 30 345 68 q 422 -62 422 -8 q 384 -154 422 -115 q 292 -192 345 -192 q 200 -154 238 -192 q 161 -62 161 -115 m 235 -62 q 251 -102 235 -85 q 292 -118 268 -118 q 332 -102 315 -118 q 348 -62 348 -85 q 332 -21 348 -38 q 292 -5 315 -5 q 251 -21 268 -5 q 235 -62 235 -38 m 26 231 q 123 213 68 222 q 215 204 178 204 q 346 216 300 204 q 409 247 392 228 q 427 288 427 267 q 389 367 427 320 q 285 470 352 414 q 130 581 218 526 l 241 749 q 442 608 355 681 q 578 456 529 535 q 627 290 627 377 q 519 72 627 143 q 224 1 412 1 q 120 8 169 1 q 26 25 71 16 l 26 231 z "},"ڑ":{"ha":495,"x_min":-66,"x_max":465,"o":"m 123 624 q 132 637 128 631 q 140 651 136 644 l 140 949 l 217 949 l 217 753 q 273 794 244 779 q 335 809 302 809 q 428 773 392 809 q 465 684 465 738 q 403 577 464 611 q 232 543 342 543 l 50 543 l 50 624 l 123 624 m 231 625 q 350 641 315 625 q 385 682 385 657 q 372 715 385 703 q 338 728 360 728 q 278 700 311 728 q 210 624 245 673 l 231 625 m 382 449 q 435 288 415 373 q 456 117 456 202 q 408 -99 456 0 q 264 -269 361 -198 q 20 -374 168 -340 l -66 -199 q 180 -85 99 -159 q 262 106 262 -11 q 242 243 262 169 q 195 382 223 318 l 382 449 z "},"ړ":{"ha":481,"x_min":-66,"x_max":479,"o":"m 218 -297 q 257 -205 218 -243 q 349 -167 295 -167 q 440 -205 402 -167 q 479 -297 479 -243 q 440 -389 479 -351 q 349 -427 402 -427 q 257 -389 295 -427 q 218 -297 218 -351 m 292 -297 q 308 -337 292 -321 q 349 -353 325 -353 q 389 -337 372 -353 q 405 -297 405 -321 q 389 -257 405 -273 q 349 -240 372 -240 q 308 -257 325 -240 q 292 -297 292 -273 m 382 449 q 435 288 415 373 q 456 117 456 202 q 408 -99 456 0 q 264 -269 361 -198 q 20 -374 168 -340 l -66 -199 q 180 -85 99 -159 q 262 106 262 -11 q 242 243 262 169 q 195 382 223 318 l 382 449 z "},"ڕ":{"ha":481,"x_min":-66,"x_max":456,"o":"m 168 -648 l 28 -414 l 129 -414 l 220 -570 l 311 -414 l 412 -414 l 272 -648 l 168 -648 m 382 449 q 435 288 415 373 q 456 117 456 202 q 408 -99 456 0 q 264 -269 361 -198 q 20 -374 168 -340 l -66 -199 q 180 -85 99 -159 q 262 106 262 -11 q 242 243 262 169 q 195 382 223 318 l 382 449 z "},"ږ":{"ha":481,"x_min":-66,"x_max":492,"o":"m 237 -418 l 365 -291 l 492 -418 l 365 -545 l 237 -418 m -12 62 l 115 189 l 243 62 l 115 -65 l -12 62 m 382 449 q 435 288 415 373 q 456 117 456 202 q 408 -99 456 0 q 264 -269 361 -198 q 20 -374 168 -340 l -66 -199 q 180 -85 99 -159 q 262 106 262 -11 q 242 243 262 169 q 195 382 223 318 l 382 449 z "},"ژ":{"ha":495,"x_min":-66,"x_max":486,"o":"m 145 804 l 257 916 l 370 804 l 257 692 l 145 804 m 262 627 l 374 738 l 486 627 l 374 514 l 262 627 m 31 627 l 143 738 l 256 627 l 143 514 l 31 627 m 382 449 q 435 288 415 373 q 456 117 456 202 q 408 -99 456 0 q 264 -269 361 -198 q 20 -374 168 -340 l -66 -199 q 180 -85 99 -159 q 262 106 262 -11 q 242 243 262 169 q 195 382 223 318 l 382 449 z "},"ښ":{"ha":1666,"x_min":26,"x_max":1640,"o":"m 1099 -202 l 1226 -75 l 1354 -202 l 1226 -330 l 1099 -202 m 1058 703 l 1185 829 l 1313 703 l 1185 575 l 1058 703 m 1038 0 q 947 14 987 0 q 869 -188 932 -106 q 707 -311 806 -269 q 489 -353 609 -353 q 243 -302 347 -353 q 82 -155 139 -252 q 26 79 26 -59 q 49 253 26 165 q 105 422 72 342 l 285 350 q 242 214 261 286 q 224 82 224 142 q 284 -95 224 -39 q 487 -151 344 -151 q 691 -90 625 -151 q 758 109 757 -28 q 734 248 758 176 q 681 382 711 319 l 878 450 l 930 286 q 969 222 945 241 q 1040 203 993 204 q 1107 224 1089 203 q 1124 304 1124 245 q 1123 342 1124 313 q 1119 405 1121 371 q 1115 461 1117 438 l 1308 484 l 1322 288 q 1341 223 1325 243 q 1388 203 1356 203 q 1426 223 1409 203 q 1442 313 1442 242 q 1436 374 1442 338 q 1421 450 1430 410 q 1402 522 1412 489 l 1591 569 q 1624 448 1609 511 q 1640 323 1640 385 q 1616 169 1640 243 q 1538 48 1592 95 q 1389 0 1483 1 q 1221 71 1282 0 q 1038 0 1146 0 z "},"ڡ":{"ha":1208,"x_min":26,"x_max":1182,"o":"m 983 264 q 901 258 942 258 q 709 308 780 258 q 639 471 639 358 q 653 578 639 523 q 699 682 668 634 q 780 758 730 729 q 901 787 830 787 q 1034 748 980 787 q 1121 645 1088 709 q 1168 505 1154 581 q 1182 353 1182 429 q 1135 136 1181 212 q 996 30 1088 59 q 764 0 903 0 l 568 0 q 278 40 399 0 q 91 162 157 80 q 26 369 26 243 q 43 487 26 431 q 81 593 60 543 l 259 526 q 237 456 248 496 q 226 379 226 416 q 305 249 226 295 q 565 203 384 203 l 779 203 q 925 218 882 203 q 983 264 968 233 m 981 450 q 946 550 968 514 q 897 587 924 587 q 861 568 876 587 q 837 524 846 550 q 829 473 829 497 q 844 449 829 456 q 908 441 859 441 q 944 444 926 441 q 981 450 963 446 z "},"ڤ":{"ha":1208,"x_min":26,"x_max":1182,"o":"m 770 1125 l 882 1236 l 994 1125 l 882 1013 l 770 1125 m 886 947 l 998 1059 l 1111 947 l 998 835 l 886 947 m 656 947 l 768 1059 l 880 947 l 768 835 l 656 947 m 983 264 q 901 258 942 258 q 709 308 780 258 q 639 471 639 358 q 653 578 639 523 q 699 682 668 634 q 780 758 730 729 q 901 787 830 787 q 1034 748 980 787 q 1121 645 1088 709 q 1168 505 1154 581 q 1182 353 1182 429 q 1135 136 1181 212 q 996 30 1088 59 q 764 0 903 0 l 568 0 q 278 40 399 0 q 91 162 157 80 q 26 369 26 243 q 43 487 26 431 q 81 593 60 543 l 259 526 q 237 456 248 496 q 226 379 226 416 q 305 249 226 295 q 565 203 384 203 l 779 203 q 925 218 882 203 q 983 264 968 233 m 981 450 q 946 550 968 514 q 897 587 924 587 q 861 568 876 587 q 837 524 846 550 q 829 473 829 497 q 844 449 829 456 q 908 441 859 441 q 944 444 926 441 q 981 450 963 446 z "},"ک":{"ha":1265,"x_min":26,"x_max":1220,"o":"m 729 203 q 872 214 825 203 q 935 243 919 224 q 950 284 950 261 q 907 363 950 315 q 797 471 865 412 q 654 596 730 531 q 617 647 629 617 q 605 707 605 677 q 631 793 605 757 q 702 847 656 830 l 1220 1040 l 1220 833 l 845 695 q 947 612 894 656 q 1046 516 1000 567 q 1122 406 1093 465 q 1151 282 1151 348 q 1042 68 1151 137 q 730 0 934 0 l 570 0 q 282 40 405 0 q 93 161 160 79 q 26 369 26 243 q 43 487 26 431 q 81 593 60 543 l 259 526 q 237 456 248 496 q 226 379 226 416 q 302 249 227 294 q 563 203 378 203 l 729 203 z "},"ڪ":{"ha":1363,"x_min":10,"x_max":1337,"o":"m 808 0 l 570 0 q 507 2 552 0 q 400 7 462 3 q 269 17 338 10 q 133 32 200 23 q 10 54 66 41 l 71 234 q 206 219 135 225 q 346 210 277 213 q 471 205 414 206 q 563 203 528 203 l 807 203 q 1049 218 958 203 q 1140 259 1140 232 q 1097 291 1140 279 q 980 307 1053 302 q 817 311 907 311 l 565 311 q 480 322 524 311 q 406 366 436 334 q 376 460 376 397 q 405 544 376 509 q 461 600 434 578 q 612 699 519 648 q 815 797 705 749 q 1032 882 924 845 l 1032 679 q 841 606 930 648 q 666 512 751 565 l 820 512 q 1084 487 967 512 q 1269 407 1201 463 q 1337 259 1337 351 q 1292 130 1337 180 q 1169 51 1246 79 q 999 11 1093 22 q 808 0 905 0 z "},"ګ":{"ha":1265,"x_min":26,"x_max":1220,"o":"m 958 720 q 996 811 958 773 q 1088 850 1034 850 q 1180 811 1141 850 q 1218 720 1218 773 q 1180 628 1218 666 q 1088 589 1141 589 q 996 628 1034 589 q 958 720 958 666 m 1031 720 q 1047 680 1031 696 q 1088 663 1064 663 q 1128 680 1112 663 q 1144 720 1144 696 q 1128 760 1144 743 q 1088 777 1112 777 q 1047 760 1064 777 q 1031 720 1031 743 m 729 203 q 872 214 825 203 q 935 243 919 224 q 950 284 950 261 q 907 363 950 315 q 797 471 865 412 q 654 596 730 531 q 617 647 629 617 q 605 707 605 677 q 631 793 605 757 q 702 847 656 830 l 1220 1040 l 1220 833 l 845 695 q 947 612 894 656 q 1046 516 1000 567 q 1122 406 1093 465 q 1151 282 1151 348 q 1042 68 1151 137 q 730 0 934 0 l 570 0 q 282 40 405 0 q 93 161 160 79 q 26 369 26 243 q 43 487 26 431 q 81 593 60 543 l 259 526 q 237 456 248 496 q 226 379 226 416 q 302 249 227 294 q 563 203 378 203 l 729 203 z "},"ڭ":{"ha":1242,"x_min":26,"x_max":1182,"o":"m 663 203 q 849 214 783 203 q 945 244 916 224 q 980 293 974 264 q 986 359 986 322 l 986 947 l 1182 947 l 1182 361 q 1137 160 1182 240 q 980 40 1091 80 q 668 0 868 0 l 570 0 q 282 40 405 0 q 93 161 160 79 q 26 369 26 243 q 43 487 26 431 q 81 593 60 543 l 259 526 q 237 456 248 496 q 226 379 226 416 q 302 249 227 294 q 563 203 378 203 l 663 203 m 487 446 q 580 451 536 447 q 653 464 625 454 q 682 488 682 473 q 663 522 682 513 q 617 533 644 530 q 562 544 589 536 q 516 574 534 551 q 497 644 497 596 q 535 727 497 697 q 632 768 574 756 q 747 780 690 780 l 747 689 q 675 681 713 687 q 612 666 638 675 q 587 643 587 656 q 605 629 587 632 q 650 622 623 626 q 705 607 677 618 q 750 568 732 595 q 768 491 768 541 q 743 413 768 441 q 676 373 718 385 q 585 358 635 361 q 487 355 536 355 l 487 446 m 508 1105 l 620 1216 l 732 1105 l 620 992 l 508 1105 m 625 927 l 736 1038 l 849 927 l 736 814 l 625 927 m 394 927 l 506 1038 l 618 927 l 506 814 l 394 927 z "},"گ":{"ha":1265,"x_min":26,"x_max":1220,"o":"m 1218 1096 l 691 900 l 691 991 l 1218 1187 l 1218 1096 m 729 203 q 872 214 825 203 q 935 243 919 224 q 950 284 950 261 q 907 363 950 315 q 797 471 865 412 q 654 596 730 531 q 617 647 629 617 q 605 707 605 677 q 631 793 605 757 q 702 847 656 830 l 1220 1040 l 1220 833 l 845 695 q 947 612 894 656 q 1046 516 1000 567 q 1122 406 1093 465 q 1151 282 1151 348 q 1042 68 1151 137 q 730 0 934 0 l 570 0 q 282 40 405 0 q 93 161 160 79 q 26 369 26 243 q 43 487 26 431 q 81 593 60 543 l 259 526 q 237 456 248 496 q 226 379 226 416 q 302 249 227 294 q 563 203 378 203 l 729 203 z "},"ڵ":{"ha":934,"x_min":26,"x_max":874,"o":"m 353 708 l 214 941 l 315 941 l 406 785 l 497 941 l 597 941 l 458 708 l 353 708 m 280 306 q 240 183 258 248 q 223 65 223 118 q 278 -100 223 -49 q 458 -151 334 -151 q 624 -96 571 -151 q 677 87 677 -41 l 679 947 l 874 947 l 873 113 q 768 -232 873 -111 q 457 -353 662 -353 q 139 -245 253 -353 q 26 66 26 -138 q 47 222 26 138 q 100 379 69 305 l 280 306 z "},"ں":{"ha":981,"x_min":26,"x_max":956,"o":"m 681 430 l 878 498 q 934 318 912 412 q 956 136 956 224 q 894 -105 956 -7 q 727 -254 833 -203 q 489 -305 622 -305 q 242 -255 346 -305 q 82 -107 138 -204 q 26 126 26 -11 q 49 301 26 212 q 105 470 72 389 l 285 397 q 242 263 261 334 q 224 130 224 192 q 284 -47 224 9 q 487 -103 344 -103 q 690 -42 624 -103 q 758 156 757 20 q 734 296 758 225 q 681 430 711 368 z "},"ڼ":{"ha":981,"x_min":26,"x_max":956,"o":"m 368 -371 q 406 -279 368 -317 q 498 -241 444 -241 q 590 -279 551 -241 q 628 -371 628 -317 q 590 -463 628 -425 q 498 -501 551 -501 q 406 -463 444 -501 q 368 -371 368 -425 m 441 -371 q 457 -411 441 -395 q 498 -427 474 -427 q 538 -411 522 -427 q 554 -371 554 -395 q 538 -331 554 -347 q 498 -314 522 -314 q 457 -331 474 -314 q 441 -371 441 -347 m 352 524 l 479 650 l 607 524 l 479 396 l 352 524 m 681 430 l 878 498 q 934 318 912 412 q 956 136 956 224 q 894 -105 956 -7 q 727 -254 833 -203 q 489 -305 622 -305 q 242 -255 346 -305 q 82 -107 138 -204 q 26 126 26 -11 q 49 301 26 212 q 105 470 72 389 l 285 397 q 242 263 261 334 q 224 130 224 192 q 284 -47 224 9 q 487 -103 344 -103 q 690 -42 624 -103 q 758 156 757 20 q 734 296 758 225 q 681 430 711 368 z "},"ھ":{"ha":1008,"x_min":32,"x_max":983,"o":"m 32 203 l 123 203 q 156 203 140 203 q 184 204 172 203 q 143 357 143 269 q 175 484 143 429 q 259 571 207 538 q 374 612 312 604 l 391 614 l 391 616 l 460 739 q 592 673 521 709 q 732 593 663 636 q 858 500 801 549 q 948 395 914 450 q 983 280 983 340 q 942 130 983 191 q 832 38 902 68 q 676 7 763 7 q 534 21 608 7 q 410 50 460 35 q 276 15 351 29 q 131 0 202 0 l 64 0 l 32 203 m 420 248 q 479 296 460 267 q 499 355 498 326 q 422 435 499 435 q 359 413 380 435 q 338 358 338 391 q 358 297 338 328 q 420 248 378 267 m 668 400 q 669 384 669 392 q 669 368 669 376 q 620 201 669 275 q 638 200 629 200 q 654 200 646 200 q 753 219 724 200 q 783 278 783 239 q 754 326 783 294 q 668 400 726 357 z "},"ۀ":{"ha":625,"x_min":26,"x_max":600,"o":"m 119 901 q 161 885 139 891 q 217 878 184 878 q 324 902 277 878 q 371 962 371 926 q 367 965 371 963 q 351 968 363 968 l 302 968 q 231 993 256 968 q 205 1065 205 1019 q 229 1152 205 1115 q 293 1209 254 1189 q 376 1229 332 1229 q 411 1224 387 1229 q 452 1213 434 1220 l 436 1131 q 406 1139 423 1135 q 376 1143 388 1143 q 313 1119 336 1143 q 290 1069 290 1095 q 291 1056 290 1058 q 305 1055 292 1055 l 366 1055 q 430 1032 407 1055 q 453 975 453 1009 q 386 840 453 886 q 216 793 318 793 q 142 801 174 793 q 81 821 109 808 l 119 901 m 241 730 q 428 576 347 656 q 554 416 509 496 q 600 260 600 336 q 562 124 600 182 q 459 34 524 66 q 313 3 395 3 q 165 31 231 3 q 63 117 100 60 q 26 260 26 174 q 60 406 26 334 q 157 554 94 478 l 130 578 l 241 730 m 304 417 q 239 331 258 370 q 220 264 220 292 q 236 220 220 237 q 312 203 252 203 q 390 218 374 203 q 405 264 405 232 q 382 328 405 287 q 304 417 359 368 z "},"ہ":{"ha":625,"x_min":26,"x_max":600,"o":"m 241 730 q 428 576 347 656 q 554 416 509 496 q 600 260 600 336 q 562 124 600 182 q 459 34 524 66 q 313 3 395 3 q 165 31 231 3 q 63 117 100 60 q 26 260 26 174 q 60 406 26 334 q 157 554 94 478 l 130 578 l 241 730 m 304 417 q 239 331 258 370 q 220 264 220 292 q 236 220 220 237 q 312 203 252 203 q 390 218 374 203 q 405 264 405 232 q 382 328 405 287 q 304 417 359 368 z "},"ۂ":{"ha":625,"x_min":26,"x_max":600,"o":"m 216 876 q 183 923 196 897 q 171 985 171 950 q 178 1033 171 1012 q 198 1070 186 1054 q 245 1107 217 1095 q 302 1120 273 1120 q 351 1112 332 1120 q 389 1093 370 1104 l 390 1010 q 351 1028 370 1021 q 311 1035 332 1035 q 286 1031 299 1035 q 263 1019 273 1028 q 247 977 247 1004 q 261 938 248 957 q 307 911 275 920 q 313 908 310 909 q 319 907 316 907 q 325 908 322 907 l 416 926 l 416 846 l 145 781 l 145 859 l 216 876 m 241 730 q 428 576 347 656 q 554 416 509 496 q 600 260 600 336 q 562 124 600 182 q 459 34 524 66 q 313 3 395 3 q 165 31 231 3 q 63 117 100 60 q 26 260 26 174 q 60 406 26 334 q 157 554 94 478 l 130 578 l 241 730 m 304 417 q 239 331 258 370 q 220 264 220 292 q 236 220 220 237 q 312 203 252 203 q 390 218 374 203 q 405 264 405 232 q 382 328 405 287 q 304 417 359 368 z "},"ۃ":{"ha":625,"x_min":26,"x_max":600,"o":"m 241 730 q 428 576 347 656 q 554 416 509 496 q 600 260 600 336 q 562 124 600 182 q 459 34 524 66 q 313 3 395 3 q 165 31 231 3 q 63 117 100 60 q 26 260 26 174 q 60 406 26 334 q 157 554 94 478 l 130 578 l 241 730 m 304 417 q 239 331 258 370 q 220 264 220 292 q 236 220 220 237 q 312 203 252 203 q 390 218 374 203 q 405 264 405 232 q 382 328 405 287 q 304 417 359 368 m 62 887 l 180 1004 l 295 890 l 410 1004 l 528 886 l 410 768 l 295 884 l 180 768 l 62 887 z "},"ۆ":{"ha":597,"x_min":18,"x_max":571,"o":"m 235 664 l 96 897 l 196 897 l 287 741 l 378 897 l 479 897 l 339 664 l 235 664 m 355 4 q 304 0 327 0 q 101 60 177 0 q 26 241 26 121 q 41 353 26 296 q 89 458 57 410 q 172 535 121 506 q 290 564 222 564 q 420 528 367 564 q 507 431 474 491 q 556 298 541 370 q 571 153 571 225 q 446 -195 571 -63 q 88 -370 321 -328 l 18 -189 q 232 -117 145 -165 q 355 4 319 -70 m 374 207 q 339 332 364 301 q 285 363 314 363 q 248 344 262 363 q 226 298 233 325 q 219 245 219 271 q 232 211 219 222 q 307 201 245 201 q 374 207 341 201 z "},"ۇ":{"ha":597,"x_min":18,"x_max":571,"o":"m 440 719 q 382 722 408 719 q 279 650 346 674 q 126 621 212 625 l 126 687 q 237 706 187 692 q 313 741 287 720 q 231 782 268 752 q 194 861 194 812 q 228 945 194 913 q 311 977 261 977 q 395 945 361 977 q 429 860 429 913 q 414 785 429 824 q 440 783 425 783 l 440 719 m 346 797 q 357 829 353 812 q 361 859 361 846 q 348 895 361 882 q 314 909 334 909 q 276 895 290 909 q 262 858 262 882 q 288 820 262 835 q 346 797 314 806 m 355 4 q 304 0 327 0 q 101 60 177 0 q 26 241 26 121 q 41 353 26 296 q 89 458 57 410 q 172 535 121 506 q 290 564 222 564 q 420 528 367 564 q 507 431 474 491 q 556 298 541 370 q 571 153 571 225 q 446 -195 571 -63 q 88 -370 321 -328 l 18 -189 q 232 -117 145 -165 q 355 4 319 -70 m 374 207 q 339 332 364 301 q 285 363 314 363 q 248 344 262 363 q 226 298 233 325 q 219 245 219 271 q 232 211 219 222 q 307 201 245 201 q 374 207 341 201 z "},"ۉ":{"ha":597,"x_min":18,"x_max":571,"o":"m 233 878 l 338 878 l 477 644 l 377 644 l 286 800 l 195 644 l 94 644 l 233 878 m 355 4 q 304 0 327 0 q 101 60 177 0 q 26 241 26 121 q 41 353 26 296 q 89 458 57 410 q 172 535 121 506 q 290 564 222 564 q 420 528 367 564 q 507 431 474 491 q 556 298 541 370 q 571 153 571 225 q 446 -195 571 -63 q 88 -370 321 -328 l 18 -189 q 232 -117 145 -165 q 355 4 319 -70 m 374 207 q 339 332 364 301 q 285 363 314 363 q 248 344 262 363 q 226 298 233 325 q 219 245 219 271 q 232 211 219 222 q 307 201 245 201 q 374 207 341 201 z "},"ۊ":{"ha":597,"x_min":18,"x_max":571,"o":"m 50 733 l 168 850 l 283 736 l 398 850 l 516 732 l 398 614 l 283 730 l 168 614 l 50 733 m 355 4 q 304 0 327 0 q 101 60 177 0 q 26 241 26 121 q 41 353 26 296 q 89 458 57 410 q 172 535 121 506 q 290 564 222 564 q 420 528 367 564 q 507 431 474 491 q 556 298 541 370 q 571 153 571 225 q 446 -195 571 -63 q 88 -370 321 -328 l 18 -189 q 232 -117 145 -165 q 355 4 319 -70 m 374 207 q 339 332 364 301 q 285 363 314 363 q 248 344 262 363 q 226 298 233 325 q 219 245 219 271 q 232 211 219 222 q 307 201 245 201 q 374 207 341 201 z "},"ۋ":{"ha":597,"x_min":18,"x_max":571,"o":"m 170 897 l 281 1008 l 394 897 l 281 785 l 170 897 m 286 720 l 398 831 l 511 720 l 398 607 l 286 720 m 56 720 l 168 831 l 280 720 l 168 607 l 56 720 m 355 4 q 304 0 327 0 q 101 60 177 0 q 26 241 26 121 q 41 353 26 296 q 89 458 57 410 q 172 535 121 506 q 290 564 222 564 q 420 528 367 564 q 507 431 474 491 q 556 298 541 370 q 571 153 571 225 q 446 -195 571 -63 q 88 -370 321 -328 l 18 -189 q 232 -117 145 -165 q 355 4 319 -70 m 374 207 q 339 332 364 301 q 285 363 314 363 q 248 344 262 363 q 226 298 233 325 q 219 245 219 271 q 232 211 219 222 q 307 201 245 201 q 374 207 341 201 z "},"ی":{"ha":1002,"x_min":26,"x_max":977,"o":"m 298 385 q 246 233 269 313 q 223 90 223 152 q 282 -84 223 -32 q 484 -138 342 -137 q 629 -119 561 -138 q 741 -70 697 -100 q 784 -3 784 -39 q 779 9 784 7 q 758 11 774 11 l 661 11 q 509 66 564 11 q 453 219 453 121 q 498 388 453 311 q 622 513 543 466 q 802 561 701 561 q 888 550 839 561 q 977 524 937 540 l 940 334 q 878 352 911 344 q 802 360 844 360 q 715 337 749 360 q 665 283 681 315 q 649 228 649 252 q 652 214 649 217 q 667 212 656 212 l 776 212 q 924 152 872 212 q 975 8 975 92 q 937 -140 975 -75 q 830 -248 898 -204 q 675 -315 763 -292 q 488 -338 587 -338 q 150 -228 274 -338 q 26 94 26 -118 q 53 274 26 180 q 118 458 80 368 l 298 385 z "},"ۍ":{"ha":1140,"x_min":-24,"x_max":1115,"o":"m 436 385 q 384 233 407 313 q 361 90 361 152 q 421 -84 361 -32 q 623 -138 480 -137 q 767 -119 699 -138 q 879 -70 836 -100 q 922 -3 922 -39 q 917 9 922 7 q 897 11 912 11 l 799 11 q 647 66 703 11 q 591 219 591 121 q 636 388 591 311 q 761 513 682 466 q 940 561 840 561 q 1026 550 977 561 q 1115 524 1076 540 l 1078 334 q 1016 352 1049 344 q 940 360 983 360 q 853 337 887 360 q 803 283 819 315 q 787 228 787 252 q 791 214 787 217 q 806 212 794 212 l 914 212 q 1062 152 1010 212 q 1114 8 1114 92 q 1075 -140 1114 -75 q 969 -248 1036 -204 q 813 -315 901 -292 q 626 -338 725 -338 q 288 -228 412 -338 q 164 94 164 -118 q 169 164 164 128 q 182 237 174 200 l -24 155 l 20 365 l 256 458 l 436 385 z "},"ێ":{"ha":1002,"x_min":26,"x_max":977,"o":"m 389 541 l 250 774 l 351 774 l 441 618 l 533 774 l 633 774 l 494 541 l 389 541 m 298 385 q 246 233 269 313 q 223 90 223 152 q 282 -84 223 -32 q 484 -138 342 -137 q 629 -119 561 -138 q 741 -70 697 -100 q 784 -3 784 -39 q 779 9 784 7 q 758 11 774 11 l 661 11 q 509 66 564 11 q 453 219 453 121 q 498 388 453 311 q 622 513 543 466 q 802 561 701 561 q 888 550 839 561 q 977 524 937 540 l 940 334 q 878 352 911 344 q 802 360 844 360 q 715 337 749 360 q 665 283 681 315 q 649 228 649 252 q 652 214 649 217 q 667 212 656 212 l 776 212 q 924 152 872 212 q 975 8 975 92 q 937 -140 975 -75 q 830 -248 898 -204 q 675 -315 763 -292 q 488 -338 587 -338 q 150 -228 274 -338 q 26 94 26 -118 q 53 274 26 180 q 118 458 80 368 l 298 385 z "},"ې":{"ha":1002,"x_min":26,"x_max":977,"o":"m 388 -446 l 503 -332 l 617 -446 l 503 -561 l 388 -446 m 388 -676 l 503 -562 l 617 -676 l 503 -791 l 388 -676 m 298 385 q 246 233 269 313 q 223 90 223 152 q 282 -84 223 -32 q 484 -138 342 -137 q 629 -119 561 -138 q 741 -70 697 -100 q 784 -3 784 -39 q 779 9 784 7 q 758 11 774 11 l 661 11 q 509 66 564 11 q 453 219 453 121 q 498 388 453 311 q 622 513 543 466 q 802 561 701 561 q 888 550 839 561 q 977 524 937 540 l 940 334 q 878 352 911 344 q 802 360 844 360 q 715 337 749 360 q 665 283 681 315 q 649 228 649 252 q 652 214 649 217 q 667 212 656 212 l 776 212 q 924 152 872 212 q 975 8 975 92 q 937 -140 975 -75 q 830 -248 898 -204 q 675 -315 763 -292 q 488 -338 587 -338 q 150 -228 274 -338 q 26 94 26 -118 q 53 274 26 180 q 118 458 80 368 l 298 385 z "},"ے":{"ha":1183,"x_min":26,"x_max":1158,"o":"m 530 288 q 471 369 500 328 q 407 449 441 410 q 375 399 390 422 q 332 342 359 376 q 273 278 298 301 q 235 243 249 254 q 306 220 258 231 q 417 203 354 210 q 548 197 480 197 q 955 219 803 197 q 1152 249 1106 241 l 1158 45 q 1053 31 1133 42 q 845 10 972 20 q 549 1 718 1 q 419 4 490 1 q 280 19 349 7 q 153 56 210 31 q 61 124 96 81 q 26 233 26 167 q 43 310 26 279 q 87 367 60 342 q 144 417 114 392 q 199 476 174 443 q 267 576 241 531 q 320 647 292 621 q 396 673 347 673 q 491 640 446 673 q 571 561 535 607 q 632 472 607 515 q 667 409 656 429 l 530 288 z "},"ۓ":{"ha":1183,"x_min":26,"x_max":1158,"o":"m 365 817 q 333 865 345 838 q 320 927 320 892 q 328 975 320 954 q 347 1012 335 996 q 394 1049 366 1036 q 451 1061 422 1061 q 500 1054 481 1061 q 538 1034 519 1046 l 539 952 q 500 970 519 963 q 460 977 481 977 q 435 973 448 977 q 412 960 422 970 q 396 918 396 945 q 410 880 397 899 q 456 852 424 861 q 462 850 459 851 q 469 849 465 849 q 474 850 471 849 l 565 868 l 565 788 l 294 723 l 294 801 l 365 817 m 530 288 q 471 369 500 328 q 407 449 441 410 q 375 399 390 422 q 332 342 359 376 q 273 278 298 301 q 235 243 249 254 q 306 220 258 231 q 417 203 354 210 q 548 197 480 197 q 955 219 803 197 q 1152 249 1106 241 l 1158 45 q 1053 31 1133 42 q 845 10 972 20 q 549 1 718 1 q 419 4 490 1 q 280 19 349 7 q 153 56 210 31 q 61 124 96 81 q 26 233 26 167 q 43 310 26 279 q 87 367 60 342 q 144 417 114 392 q 199 476 174 443 q 267 576 241 531 q 320 647 292 621 q 396 673 347 673 q 491 640 446 673 q 571 561 535 607 q 632 472 607 515 q 667 409 656 429 l 530 288 z "},"۔":{"ha":429,"x_min":26,"x_max":403,"o":"m 26 0 l 26 203 l 403 203 l 403 0 l 26 0 z "},"ە":{"ha":625,"x_min":26,"x_max":600,"o":"m 241 730 q 428 576 347 656 q 554 416 509 496 q 600 260 600 336 q 562 124 600 182 q 459 34 524 66 q 313 3 395 3 q 165 31 231 3 q 63 117 100 60 q 26 260 26 174 q 60 406 26 334 q 157 554 94 478 l 130 578 l 241 730 m 304 417 q 239 331 258 370 q 220 264 220 292 q 236 220 220 237 q 312 203 252 203 q 390 218 374 203 q 405 264 405 232 q 382 328 405 287 q 304 417 359 368 z "},"ۜ":{"ha":0,"x_min":-151,"x_max":623,"o":"m 604 1112 q 618 1059 613 1086 q 623 1006 623 1031 q 598 904 623 947 q 513 860 574 860 q 431 903 457 860 q 338 860 395 860 q 280 874 304 860 q 218 733 275 781 q 65 684 161 684 q -151 884 -151 684 q -142 960 -151 921 q -118 1036 -134 998 l -56 1011 q -75 947 -68 979 q -82 886 -82 915 q 67 753 -82 753 q 214 899 214 753 q 205 962 214 930 q 181 1027 196 995 l 249 1050 q 260 1017 254 1034 q 271 983 265 1000 q 339 931 287 931 q 383 947 370 931 q 396 996 396 964 q 395 1022 396 1004 q 392 1061 394 1041 l 458 1069 q 462 1028 460 1049 q 465 987 463 1008 q 477 947 466 962 q 513 931 489 931 q 554 1001 554 931 q 550 1043 554 1019 q 538 1094 545 1067 l 604 1112 z "},"۝":{"ha":1655,"x_min":75,"x_max":1580,"o":"m 193 924 q 230 1014 193 977 q 321 1052 268 1052 q 390 1031 359 1052 q 594 1135 483 1098 q 827 1172 705 1172 q 1061 1135 949 1172 q 1264 1033 1172 1099 q 1331 1052 1295 1052 q 1422 1014 1384 1052 q 1459 924 1459 977 q 1440 857 1459 887 q 1544 653 1507 764 q 1580 419 1580 541 q 1544 186 1580 297 q 1440 -18 1507 75 q 1459 -85 1459 -48 q 1422 -175 1459 -138 q 1331 -213 1384 -213 q 1264 -194 1295 -213 q 1061 -297 1172 -260 q 827 -334 949 -334 q 593 -297 705 -334 q 389 -193 482 -260 q 321 -213 359 -213 q 230 -175 268 -213 q 193 -85 193 -138 q 213 -16 193 -47 q 111 187 148 77 q 75 419 75 298 q 111 651 75 541 q 213 854 147 762 q 193 924 193 886 m 1206 981 q 1029 1066 1125 1036 q 827 1097 932 1097 q 626 1066 723 1097 q 449 981 530 1036 l 1206 981 m 1255 924 q 1277 870 1255 892 q 1331 847 1300 847 q 1385 870 1363 847 q 1408 924 1408 892 q 1385 978 1408 956 q 1331 1000 1363 1000 q 1277 978 1300 1000 q 1255 924 1255 956 m 244 924 q 267 870 244 892 q 321 847 290 847 q 375 870 353 847 q 397 924 397 892 q 375 978 397 956 q 321 1000 353 1000 q 267 978 290 1000 q 244 924 244 956 m 1203 919 l 449 919 q 410 831 447 867 q 321 795 373 795 q 271 806 294 795 q 182 625 214 724 q 150 419 150 527 q 182 214 150 311 q 271 33 214 116 q 321 43 294 43 q 409 8 372 43 q 449 -77 446 -27 l 1203 -77 q 1243 8 1206 -27 q 1331 43 1280 43 q 1383 32 1358 43 q 1473 213 1441 115 q 1505 419 1505 311 q 1473 626 1505 527 q 1383 806 1441 724 q 1331 795 1358 795 q 1242 831 1280 795 q 1203 919 1205 867 m 1255 -85 q 1277 -139 1255 -116 q 1331 -161 1300 -161 q 1385 -139 1363 -161 q 1408 -85 1408 -116 q 1385 -31 1408 -53 q 1331 -8 1363 -8 q 1277 -31 1300 -8 q 1255 -85 1255 -53 m 244 -85 q 267 -139 244 -116 q 321 -161 290 -161 q 375 -139 353 -161 q 397 -85 397 -116 q 375 -31 397 -53 q 321 -8 353 -8 q 267 -31 290 -8 q 244 -85 244 -53 m 444 -140 q 624 -227 526 -195 q 827 -258 721 -258 q 1031 -227 935 -258 q 1211 -140 1128 -195 l 444 -140 z "},"۞":{"ha":1350,"x_min":68,"x_max":1281,"o":"m 501 -38 l 248 -38 l 248 216 l 68 395 l 248 574 l 248 823 l 496 823 l 673 999 l 848 823 l 1102 823 l 1102 569 l 1281 390 l 1102 211 l 1102 -38 l 853 -38 l 677 -214 l 501 -38 m 570 823 l 777 823 l 673 926 l 570 823 m 1050 621 l 1050 771 l 901 771 l 1050 621 m 299 625 l 445 771 l 299 771 l 299 625 m 299 552 l 299 237 l 522 14 l 831 14 l 1050 233 l 1050 548 l 828 771 l 518 771 l 299 552 m 557 390 q 592 473 557 438 q 675 507 627 507 q 758 473 723 507 q 792 390 792 438 q 758 307 792 342 q 675 273 723 273 q 592 307 627 273 q 557 390 557 342 m 248 500 l 141 394 l 248 288 l 248 500 m 1102 497 l 1102 284 l 1208 391 l 1102 497 m 611 390 q 630 345 611 363 q 675 327 648 327 q 720 345 701 327 q 738 390 738 363 q 720 435 738 416 q 675 454 701 454 q 630 435 648 454 q 611 390 611 416 m 299 164 l 299 14 l 449 14 l 299 164 m 905 14 l 1050 14 l 1050 160 l 905 14 m 780 -38 l 573 -38 l 677 -141 l 780 -38 z "},"۩":{"ha":800,"x_min":75,"x_max":725,"o":"m 75 555 l 400 880 l 725 555 l 574 404 l 574 125 l 711 24 l 711 -98 l 90 -98 l 90 24 l 227 125 l 227 404 l 75 555 m 152 555 l 281 427 l 281 97 l 144 -4 l 144 -44 l 656 -44 l 656 -4 l 519 97 l 519 427 l 648 555 l 400 804 l 152 555 m 337 37 l 362 56 l 362 460 l 267 555 l 400 689 l 533 555 l 438 460 l 438 56 l 463 37 l 337 37 m 344 555 l 400 499 l 456 555 l 400 612 l 344 555 z "},"۰":{"ha":612,"x_min":58,"x_max":553,"o":"m 58 334 q 92 459 58 403 q 182 548 125 515 q 306 582 238 582 q 430 548 374 582 q 520 459 486 515 q 553 334 553 403 q 520 210 553 267 q 430 120 486 154 q 306 87 374 87 q 182 120 238 87 q 92 210 125 154 q 58 334 58 267 m 222 334 q 247 274 222 299 q 306 250 271 250 q 365 274 340 250 q 390 334 390 299 q 366 393 390 369 q 306 418 342 418 q 246 393 271 418 q 222 334 222 369 z "},"۱":{"ha":441,"x_min":24,"x_max":364,"o":"m 208 926 q 323 560 282 761 q 364 125 364 359 l 364 0 l 168 0 l 168 127 q 130 542 168 363 q 24 859 92 720 l 208 926 z "},"۲":{"ha":755,"x_min":24,"x_max":716,"o":"m 168 127 q 130 542 168 363 q 24 859 92 721 l 209 926 q 247 827 228 877 q 285 726 266 777 q 335 650 306 673 q 423 627 364 627 q 498 658 474 627 q 522 760 522 689 q 516 834 522 798 q 505 904 510 871 l 701 926 q 711 851 707 888 q 716 766 716 814 q 683 591 716 667 q 584 472 649 515 q 425 429 519 429 q 383 430 403 429 q 346 437 363 432 q 360 276 355 357 q 364 125 364 194 l 364 0 l 168 0 l 168 127 z "},"۳":{"ha":957,"x_min":24,"x_max":918,"o":"m 168 127 q 130 542 168 363 q 24 859 92 721 l 210 926 q 254 805 231 865 q 298 683 276 744 q 370 627 317 627 q 404 637 391 627 q 425 676 418 646 q 433 767 433 706 q 433 819 433 793 q 433 870 433 844 l 618 886 q 620 830 619 857 q 622 773 621 802 q 634 679 625 710 q 655 637 643 648 q 677 627 667 627 q 713 648 701 627 q 724 722 724 669 q 718 822 724 785 q 703 903 711 859 l 901 927 q 912 838 907 880 q 918 726 918 795 q 892 578 918 646 q 813 470 867 511 q 675 429 760 429 q 524 486 590 429 q 385 429 460 429 q 366 429 376 429 q 347 431 356 430 q 360 277 357 355 q 364 125 364 198 l 364 0 l 168 0 l 168 127 z "},"۴":{"ha":809,"x_min":24,"x_max":777,"o":"m 211 926 l 258 786 q 270 754 264 770 q 282 723 275 737 q 337 820 302 774 q 424 892 372 865 q 543 920 476 920 q 669 896 617 920 q 755 845 721 871 l 690 669 q 657 690 673 680 q 622 705 641 699 q 590 713 608 711 q 551 716 573 716 q 473 678 503 716 q 442 586 442 640 q 462 576 442 580 q 507 570 482 572 q 545 568 532 568 q 652 586 600 568 q 751 623 705 604 l 777 425 q 674 386 728 403 q 559 369 620 369 q 443 381 496 369 q 349 416 391 394 q 360 260 357 338 q 364 125 364 182 l 364 0 l 168 0 l 168 127 q 130 542 168 363 q 24 859 92 721 l 211 926 z "},"۵":{"ha":845,"x_min":38,"x_max":807,"o":"m 357 945 q 600 702 499 814 q 754 483 701 589 q 807 261 807 376 q 746 68 807 136 q 579 0 686 0 q 492 21 532 0 q 425 75 452 41 q 358 20 398 40 q 269 0 319 0 q 102 69 166 0 q 38 261 38 138 q 72 428 38 353 q 160 577 105 503 q 279 741 215 652 l 238 783 l 357 945 m 269 197 q 316 228 299 197 q 347 330 334 259 l 499 330 q 528 228 511 260 q 579 197 546 197 q 604 208 593 197 q 614 260 614 218 q 568 421 614 342 q 422 601 521 500 q 281 414 332 493 q 231 260 231 335 q 244 210 231 222 q 269 197 258 197 z "},"۶":{"ha":684,"x_min":35,"x_max":664,"o":"m 664 438 q 536 362 591 401 q 433 270 481 322 q 333 142 385 217 q 214 -39 281 68 l 35 41 q 108 168 77 116 q 172 263 139 219 q 251 359 205 308 q 102 453 155 389 q 50 596 50 517 q 87 748 50 675 q 193 868 124 821 q 358 916 262 916 q 459 897 402 916 q 565 846 515 878 l 495 671 q 463 688 479 680 q 430 702 447 696 q 398 711 415 707 q 363 714 382 714 q 308 696 334 714 q 265 652 281 678 q 249 601 249 625 q 259 577 249 593 q 303 546 269 562 q 408 522 338 530 q 412 522 410 522 q 415 522 414 522 q 509 577 465 553 q 609 629 553 601 l 664 438 z "},"۷":{"ha":845,"x_min":9,"x_max":836,"o":"m 334 0 q 251 337 300 190 q 141 605 202 484 q 9 832 80 725 l 188 928 q 316 673 254 815 q 422 359 377 530 q 529 673 467 531 q 657 928 591 815 l 836 832 q 704 605 765 725 q 594 337 643 485 q 512 0 545 190 l 334 0 z "},"۸":{"ha":845,"x_min":9,"x_max":836,"o":"m 334 905 l 512 905 q 594 569 545 716 q 704 301 643 421 q 836 73 766 181 l 657 -23 q 529 233 591 90 q 422 547 467 375 q 316 232 377 374 q 188 -23 255 90 l 9 73 q 141 301 80 181 q 252 568 203 420 q 334 905 300 715 z "},"۹":{"ha":696,"x_min":32,"x_max":616,"o":"m 32 610 q 66 755 32 685 q 163 871 101 825 q 307 916 224 916 q 441 886 387 916 q 526 803 494 855 q 573 683 558 750 q 593 545 589 616 q 603 346 598 432 q 611 179 607 260 q 616 0 614 98 l 421 0 q 415 170 419 77 q 409 364 412 262 q 372 359 392 361 q 328 357 351 357 q 112 422 192 357 q 32 610 32 488 m 306 715 q 250 684 274 715 q 226 610 226 652 q 231 580 226 593 q 259 561 237 567 q 330 554 281 554 q 361 557 342 554 q 396 562 380 559 q 377 673 391 631 q 306 715 362 715 z "},"ݣ":{"ha":1265,"x_min":26,"x_max":1220,"o":"m 821 1286 l 933 1397 l 1046 1286 l 933 1173 l 821 1286 m 938 1108 l 1050 1219 l 1162 1108 l 1050 996 l 938 1108 m 707 1108 l 819 1219 l 932 1108 l 819 996 l 707 1108 m 729 203 q 872 214 825 203 q 935 243 919 224 q 950 284 950 261 q 907 363 950 315 q 797 471 865 412 q 654 596 730 531 q 617 647 629 617 q 605 707 605 677 q 631 793 605 757 q 702 847 656 830 l 1220 1040 l 1220 833 l 845 695 q 947 612 894 656 q 1046 516 1000 567 q 1122 406 1093 465 q 1151 282 1151 348 q 1042 68 1151 137 q 730 0 934 0 l 570 0 q 282 40 405 0 q 93 161 160 79 q 26 369 26 243 q 43 487 26 431 q 81 593 60 543 l 259 526 q 237 456 248 496 q 226 379 226 416 q 302 249 227 294 q 563 203 378 203 l 729 203 z "}," ":{"ha":708,"x_min":0,"x_max":0,"o":""}," ":{"ha":1417,"x_min":0,"x_max":0,"o":""}," ":{"ha":708,"x_min":0,"x_max":0,"o":""}," ":{"ha":1417,"x_min":0,"x_max":0,"o":""}," ":{"ha":473,"x_min":0,"x_max":0,"o":""}," ":{"ha":354,"x_min":0,"x_max":0,"o":""}," ":{"ha":236,"x_min":0,"x_max":0,"o":""}," ":{"ha":781,"x_min":0,"x_max":0,"o":""}," ":{"ha":380,"x_min":0,"x_max":0,"o":""}," ":{"ha":283,"x_min":0,"x_max":0,"o":""}," ":{"ha":142,"x_min":0,"x_max":0,"o":""},"​":{"ha":0,"x_min":0,"x_max":0,"o":""},"‌":{"ha":0,"x_min":0,"x_max":0,"o":""},"‍":{"ha":0,"x_min":0,"x_max":0,"o":""},"‎":{"ha":0,"x_min":0,"x_max":0,"o":""},"‏":{"ha":0,"x_min":0,"x_max":0,"o":""},"‐":{"ha":625,"x_min":103,"x_max":511,"o":"m 511 337 l 103 337 l 103 514 l 511 514 l 511 337 z "},"‑":{"ha":625,"x_min":103,"x_max":511,"o":"m 511 337 l 103 337 l 103 514 l 511 514 l 511 337 z "},"‒":{"ha":793,"x_min":73,"x_max":721,"o":"m 721 401 l 73 401 l 73 571 l 721 571 l 721 401 z "},"–":{"ha":859,"x_min":99,"x_max":815,"o":"m 815 392 l 100 392 l 100 571 l 815 571 l 815 392 z "},"—":{"ha":1045,"x_min":58,"x_max":1013,"o":"m 1013 392 l 59 392 l 59 571 l 1013 571 l 1013 392 z "},"―":{"ha":1045,"x_min":58,"x_max":1013,"o":"m 1013 392 l 59 392 l 59 571 l 1013 571 l 1013 392 z "},"‗":{"ha":611,"x_min":0,"x_max":612,"o":"m 612 -283 l 0 -283 l 0 -180 l 612 -180 l 612 -283 m 612 -102 l 0 -102 l 0 0 l 612 0 l 612 -102 z "},"‘":{"ha":347,"x_min":73,"x_max":298,"o":"m 197 1069 l 298 1015 q 240 827 242 914 l 240 707 l 73 707 l 73 819 q 110 951 74 880 q 197 1069 146 1022 z "},"’":{"ha":337,"x_min":45,"x_max":269,"o":"m 145 678 l 45 732 q 102 924 101 830 l 102 1042 l 269 1042 l 269 931 q 233 797 269 868 q 145 678 197 725 z "},"‚":{"ha":377,"x_min":56,"x_max":281,"o":"m 157 -210 l 56 -156 q 106 34 105 -71 l 106 169 l 281 169 l 281 40 q 244 -93 280 -22 q 157 -210 208 -163 z "},"‛":{"ha":294,"x_min":47,"x_max":271,"o":"m 214 1042 l 214 924 q 271 732 215 830 l 171 678 q 83 796 119 724 q 47 930 47 868 l 47 1042 l 214 1042 z "},"“":{"ha":593,"x_min":78,"x_max":541,"o":"m 202 1069 l 302 1015 q 245 827 247 914 l 245 707 l 78 707 l 78 819 q 115 951 79 880 q 202 1069 151 1022 m 440 1069 l 541 1015 q 483 827 485 914 l 483 707 l 316 707 l 316 819 q 353 951 317 880 q 440 1069 389 1022 z "},"”":{"ha":597,"x_min":54,"x_max":524,"o":"m 155 678 l 54 732 q 112 924 111 830 l 112 1042 l 279 1042 l 279 931 q 242 797 279 868 q 155 678 206 725 m 400 678 l 300 732 q 357 924 356 830 l 357 1042 l 524 1042 l 524 931 q 488 797 524 868 q 400 678 452 725 z "},"„":{"ha":594,"x_min":56,"x_max":527,"o":"m 164 -224 l 56 -170 q 106 33 105 -79 l 106 182 l 281 182 l 281 42 q 248 -99 281 -24 q 164 -224 216 -174 m 402 -224 l 294 -170 q 351 32 349 -66 l 351 182 l 527 182 l 526 38 q 490 -100 525 -27 q 402 -224 454 -174 z "},"†":{"ha":738,"x_min":34,"x_max":705,"o":"m 705 551 l 482 551 l 482 0 l 254 0 l 254 551 l 34 551 l 34 734 l 254 734 l 254 987 l 482 987 l 482 734 l 705 734 l 705 551 z "},"‡":{"ha":809,"x_min":70,"x_max":741,"o":"m 741 0 l 518 0 l 518 -282 l 289 -282 l 289 0 l 70 0 l 70 176 l 289 176 l 289 557 l 70 557 l 70 734 l 289 734 l 289 987 l 518 987 l 518 734 l 741 734 l 741 557 l 518 557 l 518 176 l 741 176 l 741 0 z "},"•":{"ha":513,"x_min":91,"x_max":435,"o":"m 91 517 q 138 635 91 590 q 262 681 186 681 q 387 637 340 681 q 435 521 433 593 l 435 492 q 388 375 435 420 q 263 331 341 331 q 139 375 186 331 q 91 489 92 418 l 91 517 z "},"‥":{"ha":759,"x_min":91,"x_max":684,"o":"m 91 132 q 129 224 91 186 q 222 263 168 263 q 314 224 276 263 q 353 132 353 186 q 314 39 353 78 q 222 1 276 1 q 130 38 168 1 q 91 132 91 76 m 422 132 q 461 224 422 186 q 553 263 499 263 q 646 224 608 263 q 684 132 684 186 q 646 39 684 78 q 553 1 608 1 q 461 38 500 1 q 422 132 422 76 z "},"…":{"ha":1076,"x_min":91,"x_max":1015,"o":"m 91 132 q 129 224 91 186 q 222 263 168 263 q 314 224 276 263 q 353 132 353 186 q 314 39 353 78 q 222 1 276 1 q 130 38 168 1 q 91 132 91 76 m 422 132 q 461 224 422 186 q 553 263 499 263 q 646 224 608 263 q 684 132 684 186 q 646 39 684 78 q 553 1 608 1 q 461 38 500 1 q 422 132 422 76 m 753 132 q 792 224 753 186 q 884 263 830 263 q 977 224 939 263 q 1015 132 1015 186 q 977 39 1015 78 q 884 1 939 1 q 792 38 831 1 q 753 132 753 76 z "},"‧":{"ha":408,"x_min":77,"x_max":330,"o":"m 77 427 q 86 471 77 451 q 112 507 95 492 q 152 530 129 522 q 203 538 175 538 q 255 530 232 538 q 295 507 278 522 q 321 471 312 492 q 330 427 330 451 q 321 382 330 402 q 295 347 312 361 q 255 323 278 332 q 203 315 232 315 q 152 323 175 315 q 112 347 129 332 q 86 382 95 361 q 77 427 77 402 z "},"‪":{"ha":0,"x_min":0,"x_max":0,"o":""},"‫":{"ha":0,"x_min":0,"x_max":0,"o":""},"‬":{"ha":0,"x_min":0,"x_max":0,"o":""},"‭":{"ha":0,"x_min":0,"x_max":0,"o":""},"‮":{"ha":0,"x_min":0,"x_max":0,"o":""}," ":{"ha":85,"x_min":0,"x_max":0,"o":""},"‰":{"ha":1337,"x_min":68,"x_max":1297,"o":"m 549 242 q 611 388 549 330 q 768 446 672 446 q 923 377 869 446 q 1077 446 979 446 q 1236 389 1175 446 q 1297 237 1297 332 l 1297 190 q 1236 44 1297 101 q 1078 -14 1175 -14 q 923 54 979 -14 q 770 -14 869 -14 q 611 44 673 -14 q 549 193 549 101 l 549 242 m 68 797 q 125 943 68 886 q 273 1001 182 1001 q 431 943 370 1001 q 492 793 492 886 l 492 745 q 431 600 492 657 q 274 543 370 543 q 126 600 184 543 q 68 750 68 657 l 68 797 m 333 74 l 227 127 l 709 899 l 815 846 l 333 74 m 696 190 q 717 134 696 158 q 770 110 739 110 q 841 172 836 110 l 842 242 q 822 300 842 278 q 768 322 802 322 q 715 300 735 322 q 696 240 696 278 l 696 190 m 1004 190 q 1026 134 1004 158 q 1078 110 1047 110 q 1149 172 1144 110 l 1150 242 q 1131 300 1150 278 q 1077 322 1111 322 q 1024 300 1044 322 q 1004 240 1004 278 l 1004 190 m 200 745 q 220 688 200 710 q 274 666 239 666 q 326 688 307 666 q 346 744 345 709 l 346 797 q 326 854 346 831 q 273 878 307 878 q 200 787 200 878 l 200 745 z "},"′":{"ha":214,"x_min":29,"x_max":192,"o":"m 192 932 l 170 652 l 29 652 l 29 1042 l 192 1042 l 192 932 z "},"″":{"ha":440,"x_min":17,"x_max":411,"o":"m 173 948 l 144 657 l 17 657 l 17 1042 l 173 1042 l 173 948 m 411 948 l 382 657 l 256 657 l 256 1042 l 411 1042 l 411 948 z "},"‹":{"ha":441,"x_min":73,"x_max":397,"o":"m 240 349 l 397 79 l 258 79 l 73 343 l 73 356 l 258 621 l 397 621 l 240 349 z "},"›":{"ha":420,"x_min":52,"x_max":376,"o":"m 192 620 l 376 355 l 376 342 l 192 78 l 52 78 l 209 349 l 52 620 l 192 620 z "},"‼":{"ha":766,"x_min":83,"x_max":728,"o":"m 108 940 l 323 940 l 311 334 l 121 334 l 108 940 m 83 132 q 122 224 83 186 q 214 263 160 263 q 307 224 269 263 q 345 132 345 186 q 307 39 345 78 q 214 1 269 1 q 122 38 161 1 q 83 132 83 76 m 491 940 l 707 940 l 694 334 l 505 334 l 491 940 m 467 132 q 505 224 467 186 q 597 263 543 263 q 690 224 652 263 q 728 132 728 186 q 690 39 728 78 q 597 1 652 1 q 505 38 544 1 q 467 132 467 76 z "},"⁄":{"ha":612,"x_min":10,"x_max":599,"o":"m 117 74 l 10 127 l 492 899 l 599 846 l 117 74 z "},"ⁿ":{"ha":577,"x_min":47,"x_max":528,"o":"m 172 987 l 193 903 q 347 994 245 994 q 528 795 524 994 l 528 444 l 373 444 l 373 734 q 352 834 373 806 q 289 863 331 863 q 202 814 227 863 l 202 444 l 47 444 l 47 987 l 172 987 z "},"₣":{"ha":760,"x_min":-19,"x_max":735,"o":"m 476 136 l -19 136 l -19 266 l 476 266 l 476 136 m 696 393 l 313 393 l 313 0 l 75 0 l 75 987 l 735 987 l 735 804 l 313 804 l 313 576 l 696 576 l 696 393 z "},"₤":{"ha":833,"x_min":72,"x_max":800,"o":"m 587 317 l 424 317 l 425 304 q 385 183 425 227 l 797 183 l 797 0 l 72 0 l 72 183 l 142 183 q 182 253 180 193 l 183 289 l 182 317 l 74 317 l 74 433 l 178 433 l 176 502 l 74 502 l 74 616 l 173 616 l 170 705 q 253 922 170 844 q 478 1000 336 1000 q 715 922 630 1000 q 800 711 800 844 l 576 711 q 484 817 576 817 q 408 705 408 817 l 411 616 l 587 616 l 587 502 l 416 502 l 419 433 l 587 433 l 587 317 z "},"₦":{"ha":1143,"x_min":28,"x_max":1115,"o":"m 983 680 l 1115 680 l 1115 572 l 983 572 l 983 456 l 1115 456 l 1115 348 l 983 348 l 983 0 l 746 0 l 548 348 l 397 348 l 397 0 l 159 0 l 159 348 l 28 348 l 28 456 l 159 456 l 159 572 l 28 572 l 28 680 l 159 680 l 159 987 l 397 987 l 571 680 l 746 680 l 746 987 l 983 987 l 983 680 m 699 456 l 746 456 l 746 572 l 633 572 l 699 456 m 397 456 l 486 456 l 421 572 l 397 572 l 397 456 z "},"₧":{"ha":1223,"x_min":88,"x_max":1158,"o":"m 1147 575 l 1026 575 l 1026 239 q 1042 181 1026 197 q 1101 165 1057 165 q 1158 170 1135 165 l 1158 6 q 1029 -14 1096 -14 q 854 42 911 -14 q 798 211 798 98 l 798 575 l 743 575 q 616 402 713 465 q 372 338 519 338 l 332 338 l 332 0 l 88 0 l 88 987 l 373 987 q 626 920 526 987 q 749 734 726 852 l 798 734 l 798 916 l 1026 916 l 1026 734 l 1147 734 l 1147 575 m 332 532 l 373 532 q 474 570 438 532 q 511 669 511 609 q 475 758 511 723 q 377 794 440 793 l 332 794 l 332 532 z "},"₨":{"ha":1526,"x_min":75,"x_max":1484,"o":"m 441 349 l 313 349 l 313 0 l 75 0 l 75 987 l 463 987 q 738 909 639 987 q 837 689 837 831 q 795 518 837 586 q 665 408 753 450 l 871 10 l 871 0 l 616 0 l 441 349 m 313 532 l 463 532 q 565 568 531 532 q 600 667 600 604 q 565 767 600 731 q 463 804 530 804 l 313 804 l 313 532 m 1262 206 q 1232 253 1262 235 q 1116 290 1201 271 q 975 339 1030 309 q 890 414 919 370 q 861 515 861 458 q 944 682 861 616 q 1162 747 1027 747 q 1396 682 1308 747 q 1484 509 1484 616 l 1255 509 q 1162 597 1255 597 q 1101 577 1126 597 q 1077 527 1077 557 q 1107 477 1077 496 q 1202 446 1137 458 q 1317 417 1267 434 q 1482 213 1482 360 q 1393 50 1482 113 q 1162 -14 1304 -14 q 994 20 1068 -14 q 879 113 920 54 q 838 235 838 171 l 1051 235 q 1085 161 1053 184 q 1168 138 1118 138 q 1239 157 1215 138 q 1262 206 1262 176 z "},"₩":{"ha":1175,"x_min":28,"x_max":1147,"o":"m 705 829 l 814 829 l 835 987 l 1070 987 l 1041 829 l 1147 829 l 1147 721 l 1021 721 l 1007 646 l 1147 646 l 1147 538 l 987 538 l 888 0 l 642 0 l 584 380 l 526 0 l 281 0 l 180 538 l 28 538 l 28 646 l 161 646 l 146 721 l 28 721 l 28 829 l 127 829 l 98 987 l 334 987 l 355 829 l 462 829 l 484 987 l 684 987 l 705 829 m 731 646 l 791 646 l 800 721 l 721 721 l 731 646 m 378 646 l 437 646 l 447 721 l 368 721 l 378 646 m 747 538 l 762 423 l 777 538 l 747 538 m 392 538 l 406 424 l 422 538 l 392 538 z "},"₫":{"ha":802,"x_min":35,"x_max":810,"o":"m 810 824 l 315 824 l 315 954 l 810 954 l 810 824 m 35 372 q 111 647 35 547 q 321 747 186 747 q 486 670 419 747 l 486 1042 l 715 1042 l 715 0 l 510 0 l 498 79 q 319 -14 428 -14 q 112 87 189 -14 q 35 372 35 187 m 264 358 q 378 163 264 163 q 486 227 454 163 l 486 506 q 379 571 455 571 q 264 400 273 571 l 264 358 m 709 -259 l 97 -259 l 97 -89 l 709 -89 l 709 -259 z "},"€":{"ha":804,"x_min":58,"x_max":754,"o":"m 620 345 l 408 345 q 457 212 412 255 q 606 170 502 170 q 725 190 673 170 l 754 7 q 576 -13 664 -13 q 284 82 393 -13 q 170 345 175 177 l 58 345 l 58 453 l 170 453 l 170 536 l 58 536 l 58 644 l 172 644 q 298 906 184 812 q 597 1000 411 1000 q 754 979 669 1000 l 725 796 q 612 817 672 817 q 469 775 518 817 q 410 644 419 732 l 620 644 l 620 536 l 408 536 l 408 453 l 620 453 l 620 345 z "},"₱":{"ha":1045,"x_min":28,"x_max":1017,"o":"m 370 335 l 370 0 l 132 0 l 132 526 l 28 526 l 28 634 l 132 634 l 132 672 l 28 672 l 28 781 l 132 781 l 132 987 l 526 987 q 749 933 654 987 q 884 781 844 880 l 1017 781 l 1017 672 l 908 672 l 909 652 l 908 634 l 1017 634 l 1017 526 l 884 526 q 753 386 845 437 q 526 335 662 335 l 370 335 m 668 651 l 667 672 l 370 672 l 370 634 l 667 634 l 668 651 m 370 781 l 609 781 q 529 804 576 803 l 370 804 l 370 781 m 580 526 l 370 526 l 370 519 l 526 519 q 580 526 557 519 z "},"₹":{"ha":736,"x_min":26,"x_max":709,"o":"m 671 845 l 534 845 q 572 736 564 797 l 708 736 l 671 594 l 571 594 q 499 440 555 500 q 338 349 442 380 l 613 10 l 613 0 l 358 0 l 47 372 l 46 503 l 206 503 q 332 594 303 505 l 26 594 l 64 736 l 326 736 q 210 804 296 801 l 27 804 l 71 987 l 709 987 l 671 845 z "},"₺":{"ha":845,"x_min":28,"x_max":798,"o":"m 798 516 l 798 471 q 742 216 798 327 q 589 46 687 105 q 363 -14 490 -14 q 131 0 239 -14 l 131 434 l 28 406 l 28 556 l 131 585 l 131 658 l 28 629 l 28 780 l 131 808 l 131 987 l 368 987 l 368 876 l 479 907 l 479 756 l 368 725 l 368 652 l 479 683 l 479 532 l 368 501 l 368 172 q 508 249 460 174 q 557 469 556 323 l 557 516 l 798 516 z "},"₼":{"ha":964,"x_min":38,"x_max":926,"o":"m 596 582 q 836 418 747 543 q 926 116 924 294 l 926 0 l 697 0 l 697 106 q 596 382 697 302 l 596 0 l 368 0 l 368 383 q 267 105 267 307 l 267 0 l 38 0 l 38 115 q 79 332 39 234 q 194 494 119 429 q 368 583 268 558 l 368 734 l 596 734 l 596 582 z "},"₽":{"ha":1008,"x_min":43,"x_max":955,"o":"m 628 115 l 416 115 l 416 0 l 178 0 l 178 115 l 43 115 l 43 298 l 178 298 l 178 335 l 43 335 l 43 519 l 178 519 l 178 987 l 570 987 q 771 946 683 987 q 907 828 859 905 q 955 656 955 752 q 849 421 955 507 q 565 335 744 335 l 416 335 l 416 298 l 628 298 l 628 115 m 416 519 l 562 519 q 713 654 713 519 q 675 762 713 721 q 572 803 637 802 l 416 803 l 416 519 z "},"℅":{"ha":1017,"x_min":60,"x_max":970,"o":"m 472 724 q 416 593 472 644 q 267 543 361 543 q 117 597 174 543 q 60 749 60 652 l 60 798 q 115 945 60 889 q 265 1002 171 1002 q 416 951 361 1002 q 472 819 472 900 l 325 819 q 309 861 325 843 q 265 878 292 878 q 206 787 206 878 l 206 745 q 222 689 206 711 q 267 666 238 666 q 309 683 292 666 q 325 724 325 700 l 472 724 m 530 242 q 590 390 530 334 q 750 446 650 446 q 911 391 851 446 q 970 237 970 336 l 970 190 q 911 42 970 98 q 751 -14 852 -14 q 591 42 652 -14 q 530 193 530 97 l 530 242 m 677 190 q 699 134 677 158 q 751 110 720 110 q 823 172 817 110 l 823 242 q 804 300 823 278 q 750 322 784 322 q 698 301 718 322 q 677 245 678 281 l 677 190 m 311 74 l 205 127 l 687 899 l 793 846 l 311 74 z "},"ℓ":{"ha":698,"x_min":5,"x_max":659,"o":"m 514 -14 q 225 65 325 -14 q 125 295 125 145 l 125 304 q 5 297 61 297 l 5 424 q 125 433 65 424 l 125 672 q 200 914 125 827 q 407 1002 275 1002 q 589 935 520 1002 q 659 756 659 869 l 659 730 q 578 534 659 633 q 370 375 497 435 l 370 349 q 405 233 370 268 q 514 197 440 197 l 514 -14 m 370 538 q 460 734 460 621 l 460 759 q 447 800 460 783 q 414 818 433 818 q 370 709 370 818 l 370 538 z "},"№":{"ha":1397,"x_min":75,"x_max":1331,"o":"m 1291 285 l 894 285 l 894 385 l 1291 385 l 1291 285 m 861 751 q 926 929 861 860 q 1095 998 991 998 q 1265 929 1200 998 q 1331 746 1331 861 l 1331 712 q 1266 534 1331 604 q 1097 465 1201 465 q 926 535 991 465 q 861 716 861 604 l 861 751 m 979 712 q 1011 605 979 646 q 1097 564 1042 564 q 1181 605 1150 564 q 1212 715 1212 646 l 1212 751 q 1180 857 1212 817 q 1095 898 1149 898 q 1011 857 1042 898 q 979 748 979 817 l 979 712 m 789 0 l 538 0 l 307 601 l 307 0 l 75 0 l 75 987 l 328 987 l 559 387 l 559 987 l 789 987 l 789 0 z "},"™":{"ha":880,"x_min":84,"x_max":800,"o":"m 701 848 l 635 619 l 578 619 l 513 850 l 513 619 l 413 619 l 413 987 l 535 987 l 607 745 l 686 987 l 800 987 l 800 619 l 701 619 l 701 848 m 368 909 l 286 909 l 286 622 l 172 622 l 172 909 l 84 909 l 84 987 l 368 987 l 368 909 z "},"℮":{"ha":876,"x_min":99,"x_max":790,"o":"m 705 64 q 454 -14 581 -14 q 273 40 356 -14 q 145 180 191 93 q 99 367 99 267 q 148 552 99 464 q 281 693 197 640 q 454 747 365 747 q 622 700 545 747 q 743 571 699 653 q 790 391 788 488 l 790 349 l 269 349 l 269 126 q 454 52 350 52 q 704 134 587 52 l 705 64 m 454 684 q 269 601 352 684 l 269 413 l 635 413 l 635 607 q 454 684 557 684 z "},"∂":{"ha":796,"x_min":55,"x_max":764,"o":"m 380 707 q 563 634 486 707 q 483 814 538 753 q 349 876 429 876 q 248 861 286 876 l 200 841 l 159 994 l 191 1010 q 368 1048 273 1048 q 652 911 548 1048 q 764 523 755 774 l 764 448 q 721 207 764 313 q 597 43 677 100 q 409 -14 516 -14 q 150 84 245 -14 q 55 351 55 182 l 55 360 q 142 612 55 517 q 380 707 229 707 m 410 530 q 283 353 286 530 l 283 332 q 409 162 283 162 q 536 373 536 162 l 536 457 q 410 530 488 530 z "},"∎":{"ha":658,"x_min":95,"x_max":563,"o":"m 95 0 l 95 654 l 563 654 l 563 0 l 95 0 z "},"∏":{"ha":955,"x_min":110,"x_max":854,"o":"m 854 -183 l 624 -183 l 624 817 l 340 817 l 340 -183 l 110 -183 l 110 987 l 854 987 l 854 -183 z "},"∑":{"ha":900,"x_min":34,"x_max":852,"o":"m 646 396 l 351 -7 l 852 -7 l 852 -183 l 34 -183 l 34 -81 l 406 409 l 34 886 l 34 987 l 845 987 l 845 811 l 355 811 l 646 421 l 646 396 z "},"−":{"ha":760,"x_min":92,"x_max":688,"o":"m 688 392 l 92 392 l 92 571 l 688 571 l 688 392 z "},"√":{"ha":753,"x_min":35,"x_max":745,"o":"m 399 205 l 578 987 l 745 987 l 506 0 l 304 0 l 195 329 l 35 329 l 35 507 l 319 507 l 399 205 z "},"∞":{"ha":1472,"x_min":64,"x_max":1408,"o":"m 1408 361 q 1363 166 1408 253 q 1236 33 1318 80 q 1049 -14 1154 -14 q 871 39 951 -14 q 735 188 790 91 q 597 37 677 88 q 422 -14 518 -14 q 162 91 260 -14 q 64 372 64 195 q 109 567 64 480 q 234 700 153 653 q 420 747 315 747 q 735 555 617 747 q 872 698 791 649 q 1050 747 953 747 q 1310 642 1212 747 q 1408 361 1408 537 m 285 361 q 326 221 285 273 q 437 170 368 170 q 595 290 530 170 q 623 366 620 337 l 623 381 q 591 459 619 412 q 435 564 529 564 q 326 512 368 564 q 285 361 285 459 m 1186 372 q 1145 511 1186 457 q 1036 564 1105 564 q 880 459 942 564 q 848 381 852 412 l 848 366 q 883 277 852 331 q 953 196 914 223 q 1034 170 991 170 q 1145 222 1103 170 q 1186 372 1186 274 z "},"∫":{"ha":425,"x_min":-69,"x_max":491,"o":"m 316 -17 q 244 -224 316 -153 q 39 -296 172 -296 q -69 -285 -20 -296 l -59 -112 q 1 -120 -29 -120 q 87 -25 85 -120 l 87 793 q 162 988 87 919 q 377 1057 237 1057 q 491 1042 423 1057 l 475 873 q 406 880 442 880 q 316 790 316 880 l 316 -17 z "},"≈":{"ha":810,"x_min":68,"x_max":724,"o":"m 68 622 q 146 675 101 656 q 235 694 191 694 q 308 686 273 694 q 406 646 342 677 q 502 606 470 614 q 572 597 534 597 q 724 683 656 597 l 724 513 q 658 460 692 479 q 580 441 625 441 q 510 450 542 441 q 414 490 477 458 q 315 530 350 522 q 243 538 281 538 q 148 514 196 538 q 68 452 99 490 l 68 622 m 68 337 q 227 409 138 409 q 357 381 292 410 l 445 338 q 564 313 503 313 q 724 398 656 313 l 724 229 q 572 157 655 157 q 502 165 534 157 q 406 205 470 173 q 308 245 342 237 q 235 253 273 254 q 146 231 191 253 q 68 168 101 208 l 68 337 z "},"≠":{"ha":813,"x_min":87,"x_max":715,"o":"m 715 192 l 332 192 l 260 52 l 173 94 l 223 192 l 87 192 l 87 368 l 314 368 l 376 490 l 87 490 l 87 666 l 467 666 l 536 799 l 623 756 l 576 666 l 715 666 l 715 490 l 486 490 l 423 368 l 715 368 l 715 192 z "},"≤":{"ha":709,"x_min":31,"x_max":637,"o":"m 260 517 l 631 405 l 631 217 l 31 437 l 31 599 l 631 819 l 631 632 l 260 517 m 637 37 l 41 37 l 41 216 l 637 216 l 637 37 z "},"≥":{"ha":713,"x_min":75,"x_max":673,"o":"m 444 520 l 75 633 l 75 820 l 671 600 l 671 438 l 75 218 l 75 405 l 444 520 m 673 37 l 77 37 l 77 216 l 673 216 l 673 37 z "},"◊":{"ha":710,"x_min":18,"x_max":697,"o":"m 256 987 l 458 987 l 697 493 l 458 0 l 256 0 l 18 493 l 256 987 m 358 756 l 243 493 l 357 231 l 471 493 l 358 756 z "},"":{"ha":408,"x_min":81,"x_max":343,"o":"m 81 260 q 120 353 81 314 q 212 391 158 391 q 305 353 267 391 q 343 260 343 314 q 305 168 343 206 q 212 129 267 129 q 120 166 159 129 q 81 260 81 204 m 81 801 q 120 894 81 855 q 212 932 158 932 q 305 894 267 932 q 343 801 343 855 q 305 709 343 747 q 212 670 267 670 q 120 708 159 670 q 81 801 81 745 z "},"":{"ha":440,"x_min":54,"x_max":380,"o":"m 170 450 l 54 450 l 54 733 l 170 733 l 170 450 m 380 450 l 264 450 l 264 733 l 380 733 l 380 450 z "},"":{"ha":300,"x_min":23,"x_max":227,"o":"m 131 -99 l 23 -45 l 41 -14 q 75 133 75 50 l 75 193 l 227 193 l 227 143 q 200 17 227 85 q 131 -99 174 -50 z "},"ﭐ":{"ha":315,"x_min":-38,"x_max":354,"o":"m -38 931 l -23 1000 q 0 980 -13 991 q 28 962 14 969 q 126 1092 81 1052 q 226 1131 170 1131 q 318 1096 282 1131 q 354 1008 354 1061 q 304 908 354 937 q 138 880 254 880 l 122 880 q 20 892 60 880 q -38 931 -20 903 m 137 951 q 254 962 224 951 q 284 1005 284 973 q 269 1044 284 1028 q 229 1059 254 1059 q 169 1036 196 1059 q 102 951 142 1012 l 137 951 m 60 810 l 256 810 l 256 2 l 60 2 l 60 810 z "},"ﭑ":{"ha":357,"x_min":-38,"x_max":371,"o":"m -38 918 l -23 987 q 0 967 -13 978 q 28 949 14 956 q 126 1078 81 1038 q 226 1118 170 1118 q 318 1082 282 1118 q 354 994 354 1047 q 304 895 354 923 q 138 867 254 867 l 122 867 q 20 878 60 867 q -38 918 -20 890 m 137 938 q 254 949 224 938 q 284 991 284 960 q 269 1030 284 1015 q 229 1046 254 1046 q 169 1022 196 1046 q 102 938 142 998 l 137 938 m 371 0 l 354 0 q 137 77 215 0 q 60 315 60 155 l 60 812 l 256 812 l 256 315 q 278 223 256 243 q 354 203 300 203 l 371 203 l 371 0 z "},"ﭖ":{"ha":1205,"x_min":26,"x_max":1179,"o":"m 619 -182 l 731 -69 l 844 -182 l 731 -294 l 619 -182 m 389 -182 l 500 -69 l 613 -182 l 500 -294 l 389 -182 m 503 -359 l 614 -247 l 727 -359 l 614 -471 l 503 -359 m 661 0 l 570 0 q 282 40 405 0 q 93 161 160 79 q 26 369 26 243 q 43 487 26 431 q 81 593 60 543 l 259 526 q 237 459 248 496 q 226 386 226 423 q 302 252 227 300 q 563 203 378 203 l 656 203 q 829 210 756 203 q 941 247 902 217 q 981 345 981 277 q 976 399 981 364 q 963 474 970 435 q 948 544 956 513 l 1136 590 q 1157 510 1147 555 q 1173 421 1166 464 q 1179 355 1179 379 q 1138 168 1179 239 q 1024 61 1097 98 q 858 13 951 25 q 661 0 765 0 z "},"ﭗ":{"ha":1274,"x_min":26,"x_max":1287,"o":"m 619 -182 l 731 -69 l 844 -182 l 731 -294 l 619 -182 m 389 -182 l 500 -69 l 613 -182 l 500 -294 l 389 -182 m 503 -359 l 614 -247 l 727 -359 l 614 -471 l 503 -359 m 668 0 l 570 0 q 282 40 405 0 q 93 161 160 79 q 26 369 26 243 q 43 487 26 431 q 81 593 60 543 l 259 526 q 237 456 248 496 q 226 379 226 416 q 302 249 227 294 q 563 203 378 203 l 665 203 q 870 224 794 203 q 972 276 947 245 q 982 296 978 283 q 987 334 987 309 q 984 405 987 369 q 980 475 982 441 l 1170 498 l 1183 288 q 1205 221 1187 239 q 1270 203 1223 203 l 1287 203 l 1287 0 l 1270 0 q 1059 99 1133 0 q 890 23 989 47 q 668 0 791 0 z "},"ﭘ":{"ha":456,"x_min":-66,"x_max":430,"o":"m 165 -182 l 277 -69 l 389 -182 l 277 -294 l 165 -182 m -66 -182 l 46 -69 l 159 -182 l 46 -294 l -66 -182 m 48 -359 l 160 -247 l 273 -359 l 160 -471 l 48 -359 m 387 590 q 417 458 405 530 q 430 323 430 385 q 342 79 430 157 q 87 0 254 0 l -14 0 l -14 203 l 87 203 q 181 210 151 203 q 222 242 212 217 q 233 321 233 267 q 222 431 233 367 q 199 544 211 495 l 387 590 z "},"ﭙ":{"ha":520,"x_min":-66,"x_max":534,"o":"m 534 0 l 517 0 q 330 73 395 0 q 222 17 284 35 q 87 0 161 0 l -14 0 l -14 203 l 89 203 q 182 211 152 203 q 223 240 213 219 q 233 303 233 262 q 230 390 233 345 q 224 476 227 435 l 417 498 l 431 288 q 453 222 434 240 q 519 203 471 203 l 534 203 l 534 0 m 165 -182 l 277 -69 l 389 -182 l 277 -294 l 165 -182 m -66 -182 l 46 -69 l 159 -182 l 46 -294 l -66 -182 m 48 -359 l 160 -247 l 273 -359 l 160 -471 l 48 -359 z "},"ﭦ":{"ha":1205,"x_min":26,"x_max":1179,"o":"m 477 573 q 486 587 481 580 q 493 600 490 593 l 493 898 l 570 898 l 570 703 q 626 743 597 728 q 688 758 655 758 q 782 723 745 758 q 818 633 818 687 q 756 526 817 560 q 585 492 696 492 l 404 492 l 404 573 l 477 573 m 585 574 q 703 590 669 574 q 738 631 738 606 q 726 664 738 652 q 692 677 713 677 q 631 649 665 677 q 564 573 598 622 l 585 574 m 661 0 l 570 0 q 282 40 405 0 q 93 161 160 79 q 26 369 26 243 q 43 487 26 431 q 81 593 60 543 l 259 526 q 237 459 248 496 q 226 386 226 423 q 302 252 227 300 q 563 203 378 203 l 656 203 q 829 210 756 203 q 941 247 902 217 q 981 345 981 277 q 976 399 981 364 q 963 474 970 435 q 948 544 956 513 l 1136 590 q 1157 510 1147 555 q 1173 421 1166 464 q 1179 355 1179 379 q 1138 168 1179 239 q 1024 61 1097 98 q 858 13 951 25 q 661 0 765 0 z "},"ﭧ":{"ha":1274,"x_min":26,"x_max":1287,"o":"m 484 573 q 492 587 488 580 q 500 600 496 593 l 500 898 l 577 898 l 577 703 q 633 743 604 728 q 695 758 662 758 q 788 723 752 758 q 825 633 825 687 q 763 526 824 560 q 592 492 703 492 l 410 492 l 410 573 l 484 573 m 591 574 q 710 590 675 574 q 745 631 745 606 q 732 664 745 652 q 699 677 720 677 q 638 649 671 677 q 570 573 605 622 l 591 574 m 668 0 l 570 0 q 282 40 405 0 q 93 161 160 79 q 26 369 26 243 q 43 487 26 431 q 81 593 60 543 l 259 526 q 237 456 248 496 q 226 379 226 416 q 302 249 227 294 q 563 203 378 203 l 665 203 q 870 224 794 203 q 972 276 947 245 q 982 296 978 283 q 987 334 987 309 q 984 405 987 369 q 980 475 982 441 l 1170 498 l 1183 288 q 1205 221 1187 239 q 1270 203 1223 203 l 1287 203 l 1287 0 l 1270 0 q 1059 99 1133 0 q 890 23 989 47 q 668 0 791 0 z "},"ﭨ":{"ha":456,"x_min":-14,"x_max":430,"o":"m 63 729 q 72 743 68 736 q 79 756 76 749 l 79 1054 l 157 1054 l 157 859 q 213 899 184 884 q 275 914 241 914 q 368 879 332 914 q 404 789 404 843 q 343 682 404 716 q 172 648 282 648 l -10 648 l -10 729 l 63 729 m 171 730 q 290 746 255 730 q 324 787 324 762 q 312 820 324 808 q 278 833 300 833 q 218 805 251 833 q 150 729 184 778 l 171 730 m 387 590 q 417 458 405 530 q 430 323 430 385 q 342 79 430 157 q 87 0 254 0 l -14 0 l -14 203 l 87 203 q 181 210 151 203 q 222 242 212 217 q 233 321 233 267 q 222 431 233 367 q 199 544 211 495 l 387 590 z "},"ﭩ":{"ha":520,"x_min":-14,"x_max":534,"o":"m 83 668 q 92 682 88 675 q 100 695 96 688 l 100 993 l 177 993 l 177 798 q 233 838 204 823 q 295 853 262 853 q 388 818 352 853 q 425 728 425 782 q 363 621 424 655 q 192 587 302 587 l 10 587 l 10 668 l 83 668 m 191 669 q 310 685 275 669 q 345 726 345 701 q 332 759 345 747 q 298 772 320 772 q 238 744 271 772 q 170 668 205 717 l 191 669 m 534 0 l 517 0 q 330 73 395 0 q 222 17 284 35 q 87 0 161 0 l -14 0 l -14 203 l 89 203 q 182 211 152 203 q 223 240 213 219 q 233 303 233 262 q 230 390 233 345 q 224 476 227 435 l 417 498 l 431 288 q 453 222 434 240 q 519 203 471 203 l 534 203 l 534 0 z "},"ﭫ":{"ha":1331,"x_min":26,"x_max":1344,"o":"m 892 1003 l 1004 1114 l 1116 1003 l 1004 890 l 892 1003 m 1008 825 l 1120 937 l 1233 825 l 1120 713 l 1008 825 m 778 825 l 890 937 l 1002 825 l 890 713 l 778 825 m 816 205 q 766 285 785 243 q 747 377 747 327 q 767 469 747 420 q 825 562 788 518 q 912 634 863 606 q 1019 662 962 662 q 1128 636 1077 662 q 1217 569 1179 610 q 1277 480 1255 528 q 1298 387 1298 432 q 1278 290 1298 336 q 1226 205 1258 245 q 1257 204 1242 204 q 1280 203 1272 203 l 1344 203 l 1344 0 l 1282 0 q 1161 8 1227 0 q 1019 50 1095 16 q 897 21 950 32 q 789 5 844 9 q 654 0 733 0 l 570 0 q 282 40 405 0 q 93 161 160 79 q 26 369 26 243 q 43 487 26 431 q 81 593 60 544 l 260 526 q 237 456 248 496 q 226 379 226 416 q 302 249 227 294 q 563 203 378 203 l 651 203 q 749 204 707 203 q 816 205 791 205 m 1019 462 q 991 443 1009 462 q 957 403 972 425 q 942 373 942 382 q 953 350 942 368 q 983 310 964 332 q 1022 269 1001 288 q 1078 331 1054 296 q 1102 378 1102 366 q 1086 408 1102 387 q 1051 445 1071 428 q 1019 462 1031 462 z "},"ﭬ":{"ha":623,"x_min":-14,"x_max":596,"o":"m 397 265 q 314 259 355 259 q 123 309 193 259 q 52 471 52 359 q 67 579 52 524 q 113 682 81 635 q 194 759 144 730 q 314 788 243 788 q 447 749 393 788 q 534 646 501 710 q 581 506 567 582 q 595 354 595 429 q 550 136 596 213 q 411 30 504 60 q 180 0 319 0 l -14 0 l -14 203 l 187 203 q 335 218 290 203 q 397 265 380 233 m 395 450 q 360 551 382 515 q 311 587 338 587 q 275 569 290 587 q 251 524 260 551 q 243 473 243 498 q 258 450 243 457 q 322 442 273 442 q 358 445 340 442 q 395 450 377 447 m 173 1125 l 285 1236 l 397 1125 l 285 1013 l 173 1125 m 290 947 l 401 1059 l 514 947 l 401 835 l 290 947 m 59 947 l 171 1059 l 283 947 l 171 835 l 59 947 z "},"ﭭ":{"ha":659,"x_min":-14,"x_max":673,"o":"m 230 1003 l 342 1114 l 454 1003 l 342 890 l 230 1003 m 347 825 l 458 937 l 571 825 l 458 713 l 347 825 m 116 825 l 228 937 l 340 825 l 228 713 l 116 825 m 555 205 q 586 204 571 204 q 609 203 600 203 l 673 203 l 673 0 l 610 0 q 489 8 555 0 q 348 50 423 16 q 203 8 271 16 q 77 0 135 0 l -14 0 l -14 203 l 77 203 q 108 204 90 203 q 144 205 126 205 q 94 285 113 243 q 75 377 75 327 q 96 469 75 420 q 154 562 117 518 q 241 634 191 606 q 347 662 290 662 q 456 636 406 662 q 546 569 507 610 q 605 480 584 528 q 627 387 627 432 q 607 290 627 336 q 555 205 587 245 m 347 462 q 319 443 338 462 q 286 403 301 425 q 271 373 271 382 q 282 350 271 368 q 311 310 293 332 q 351 269 330 288 q 407 331 382 296 q 431 378 431 366 q 415 408 431 387 q 380 445 399 428 q 347 462 360 462 z "},"ﭺ":{"ha":913,"x_min":9,"x_max":877,"o":"m 555 46 l 656 148 l 757 46 l 656 -54 l 555 46 m 348 46 l 449 148 l 550 46 l 449 -54 l 348 46 m 450 -114 l 551 -12 l 652 -114 l 551 -214 l 450 -114 m 441 420 q 423 428 432 424 q 406 434 414 431 q 323 458 340 458 q 270 441 298 458 q 220 397 241 425 l 180 347 l 9 432 l 41 488 q 161 613 87 566 q 324 661 235 661 q 431 641 376 661 q 547 591 486 621 q 652 543 609 562 q 731 514 696 524 q 800 498 766 503 q 877 492 834 494 l 862 300 q 607 258 724 289 q 403 180 490 227 q 268 74 316 133 q 220 -51 220 16 q 293 -208 220 -154 q 541 -262 366 -262 q 692 -247 625 -262 q 829 -200 759 -233 l 876 -394 q 718 -445 798 -431 q 532 -459 637 -459 q 275 -417 390 -459 q 94 -287 161 -375 q 26 -62 26 -199 q 135 225 26 98 q 441 420 243 353 z "},"ﭻ":{"ha":935,"x_min":9,"x_max":948,"o":"m 455 3 l 546 94 l 637 3 l 546 -87 l 455 3 m 269 3 l 360 94 l 451 3 l 360 -87 l 269 3 m 361 -140 l 452 -50 l 542 -140 l 452 -231 l 361 -140 m 876 -394 q 718 -445 798 -431 q 532 -459 637 -459 q 275 -417 389 -459 q 93 -287 160 -375 q 26 -62 26 -199 q 135 225 26 98 q 441 420 243 353 q 423 428 432 424 q 406 434 414 431 q 323 458 340 458 q 270 441 298 458 q 220 397 241 425 l 180 347 l 9 432 l 41 488 q 161 613 87 566 q 324 661 235 661 q 431 641 376 661 q 547 591 486 621 q 652 543 609 562 q 731 514 696 524 q 800 498 766 503 q 877 492 834 494 l 862 300 q 797 294 830 297 q 734 288 764 292 q 770 220 741 237 q 882 203 798 203 l 948 203 l 948 0 l 884 0 q 653 56 740 0 q 552 249 566 112 q 299 110 377 191 q 220 -51 220 28 q 293 -208 220 -154 q 541 -262 366 -262 q 692 -247 625 -262 q 829 -200 759 -233 l 876 -394 z "},"ﭼ":{"ha":905,"x_min":-14,"x_max":886,"o":"m 436 -182 l 548 -69 l 661 -182 l 548 -294 l 436 -182 m 205 -182 l 317 -69 l 430 -182 l 317 -294 l 205 -182 m 319 -359 l 431 -247 l 544 -359 l 431 -471 l 319 -359 m -14 0 l -14 203 l 97 203 q 232 217 169 203 q 360 258 295 231 q 500 323 425 285 l 547 347 q 526 355 536 351 q 503 364 516 359 q 336 422 361 422 q 282 405 311 422 q 232 360 253 388 l 193 310 l 22 395 l 54 451 q 173 577 99 530 q 336 624 247 624 q 444 604 389 624 q 559 555 498 585 q 664 506 621 525 q 742 477 707 488 q 810 462 777 467 q 886 455 844 457 l 884 264 q 824 255 850 260 q 771 240 799 250 q 704 209 743 229 q 603 157 665 189 q 440 78 519 113 q 276 21 360 42 q 95 0 192 0 l -14 0 z "},"ﭽ":{"ha":916,"x_min":-14,"x_max":930,"o":"m 436 -182 l 548 -69 l 661 -182 l 548 -294 l 436 -182 m 205 -182 l 317 -69 l 430 -182 l 317 -294 l 205 -182 m 319 -359 l 431 -247 l 544 -359 l 431 -471 l 319 -359 m 884 264 q 820 256 845 260 q 755 237 795 252 q 794 215 763 226 q 893 203 826 203 l 930 203 l 930 0 l 890 0 q 701 34 780 0 q 591 151 621 67 q 351 45 474 90 q 95 0 229 0 l -14 0 l -14 203 l 97 203 q 232 217 169 203 q 360 258 295 231 q 500 323 425 285 l 547 347 q 526 355 536 351 q 503 364 516 359 q 336 422 361 422 q 282 405 311 422 q 232 360 253 388 l 193 310 l 22 395 l 54 451 q 173 577 99 530 q 336 624 247 624 q 444 604 389 624 q 559 555 498 585 q 664 506 621 525 q 742 477 707 488 q 810 462 777 467 q 886 455 844 457 l 884 264 z "},"ﮈ":{"ha":653,"x_min":26,"x_max":627,"o":"m 148 927 q 157 941 153 934 q 164 954 161 947 l 164 1252 l 241 1252 l 241 1057 q 297 1097 269 1082 q 359 1112 326 1112 q 453 1077 416 1112 q 489 987 489 1041 q 428 880 488 914 q 256 846 367 846 l 75 846 l 75 927 l 148 927 m 256 928 q 374 944 340 928 q 409 985 409 960 q 397 1018 409 1006 q 363 1031 385 1031 q 302 1003 336 1031 q 235 927 269 976 l 256 928 m 26 231 q 123 213 68 222 q 215 204 178 204 q 346 216 300 204 q 409 247 392 228 q 427 288 427 267 q 389 367 427 320 q 285 470 352 414 q 130 581 218 526 l 241 749 q 442 608 355 681 q 578 456 529 535 q 627 290 627 377 q 519 72 627 143 q 224 1 412 1 q 120 8 169 1 q 26 25 71 16 l 26 231 z "},"ﮉ":{"ha":715,"x_min":26,"x_max":729,"o":"m 26 234 q 118 214 67 224 q 208 204 168 204 q 293 208 249 204 q 367 228 336 212 q 397 278 397 243 q 389 319 397 294 q 376 355 381 344 l 252 667 l 432 749 l 589 349 q 616 280 602 313 q 650 225 630 247 q 701 203 669 203 l 729 203 l 729 0 l 701 0 q 583 23 631 0 q 501 87 535 45 q 382 22 451 43 q 218 1 314 1 q 114 8 158 1 q 26 26 70 16 l 26 234 m 182 920 q 191 934 186 927 q 198 947 195 941 l 198 1245 l 275 1245 l 275 1050 q 331 1090 302 1075 q 393 1105 360 1105 q 487 1070 450 1105 q 523 981 523 1034 q 461 873 522 907 q 290 840 401 840 l 109 840 l 109 920 l 182 920 m 290 921 q 408 937 374 921 q 443 979 443 954 q 431 1011 443 999 q 397 1024 418 1024 q 336 997 370 1024 q 269 920 303 969 l 290 921 z "},"ﮊ":{"ha":495,"x_min":-66,"x_max":486,"o":"m 145 804 l 257 916 l 370 804 l 257 692 l 145 804 m 262 627 l 374 738 l 486 627 l 374 514 l 262 627 m 31 627 l 143 738 l 256 627 l 143 514 l 31 627 m 382 449 q 435 288 415 373 q 456 117 456 202 q 408 -99 456 0 q 264 -269 361 -198 q 20 -374 168 -340 l -66 -199 q 180 -85 99 -159 q 262 106 262 -11 q 242 243 262 169 q 195 382 223 318 l 382 449 z "},"ﮋ":{"ha":536,"x_min":-66,"x_max":549,"o":"m 145 804 l 257 916 l 370 804 l 257 692 l 145 804 m 262 627 l 374 738 l 486 627 l 374 514 l 262 627 m 31 627 l 143 738 l 256 627 l 143 514 l 31 627 m 446 13 q 313 -230 418 -129 q 20 -374 208 -332 l -66 -199 q 181 -84 100 -158 q 262 110 262 -11 q 242 245 262 171 q 195 382 222 319 l 385 450 l 440 274 q 472 217 455 231 q 523 203 488 203 l 549 203 l 549 0 l 530 0 q 485 4 507 0 q 446 13 464 7 z "},"ﮌ":{"ha":495,"x_min":-66,"x_max":465,"o":"m 123 624 q 132 637 128 631 q 140 651 136 644 l 140 949 l 217 949 l 217 753 q 273 794 244 779 q 335 809 302 809 q 428 773 392 809 q 465 684 465 738 q 403 577 464 611 q 232 543 342 543 l 50 543 l 50 624 l 123 624 m 231 625 q 350 641 315 625 q 385 682 385 657 q 372 715 385 703 q 338 728 360 728 q 278 700 311 728 q 210 624 245 673 l 231 625 m 382 449 q 435 288 415 373 q 456 117 456 202 q 408 -99 456 0 q 264 -269 361 -198 q 20 -374 168 -340 l -66 -199 q 180 -85 99 -159 q 262 106 262 -11 q 242 243 262 169 q 195 382 223 318 l 382 449 z "},"ﮍ":{"ha":536,"x_min":-66,"x_max":549,"o":"m 446 13 q 313 -230 418 -129 q 20 -374 208 -332 l -66 -199 q 181 -84 100 -158 q 262 110 262 -11 q 242 245 262 171 q 195 382 222 319 l 385 450 l 440 274 q 472 217 455 231 q 523 203 488 203 l 549 203 l 549 0 l 530 0 q 485 4 507 0 q 446 13 464 7 m 130 624 q 139 637 135 631 q 146 651 143 644 l 146 949 l 224 949 l 224 753 q 280 794 251 779 q 342 809 309 809 q 435 773 399 809 q 471 684 471 738 q 410 577 471 611 q 239 543 349 543 l 57 543 l 57 624 l 130 624 m 238 625 q 357 641 322 625 q 391 682 391 657 q 379 715 391 703 q 345 728 367 728 q 285 700 318 728 q 217 624 252 673 l 238 625 z "},"ﮎ":{"ha":1265,"x_min":26,"x_max":1220,"o":"m 729 203 q 872 214 825 203 q 935 243 919 224 q 950 284 950 261 q 907 363 950 315 q 797 471 865 412 q 654 596 730 531 q 617 647 629 617 q 605 707 605 677 q 631 793 605 757 q 702 847 656 830 l 1220 1040 l 1220 833 l 845 695 q 947 612 894 656 q 1046 516 1000 567 q 1122 406 1093 465 q 1151 282 1151 348 q 1042 68 1151 137 q 730 0 934 0 l 570 0 q 282 40 405 0 q 93 161 160 79 q 26 369 26 243 q 43 487 26 431 q 81 593 60 543 l 259 526 q 237 456 248 496 q 226 379 226 416 q 302 249 227 294 q 563 203 378 203 l 729 203 z "},"ﮏ":{"ha":1316,"x_min":26,"x_max":1330,"o":"m 732 203 q 874 214 827 203 q 937 243 922 224 q 953 284 953 261 q 910 363 953 315 q 800 471 867 411 q 656 596 732 530 q 620 647 631 617 q 608 707 608 677 q 633 793 608 757 q 705 847 659 830 l 1223 1040 l 1223 833 l 848 695 q 964 598 905 649 q 1072 486 1022 547 q 1152 349 1122 425 q 1221 236 1183 269 q 1310 203 1259 203 l 1330 203 l 1330 0 l 1310 0 q 1180 25 1240 0 q 1074 98 1120 51 q 939 23 1022 46 q 732 0 857 0 l 568 0 q 281 40 404 0 q 93 161 159 79 q 26 369 26 243 q 43 487 26 431 q 81 593 60 543 l 259 526 q 237 456 248 496 q 226 379 226 416 q 302 249 227 294 q 562 203 377 203 l 732 203 z "},"ﮐ":{"ha":644,"x_min":-14,"x_max":603,"o":"m 534 282 q 425 68 533 137 q 113 0 317 0 l -14 0 l -14 203 l 112 203 q 255 214 208 203 q 317 243 302 224 q 333 284 333 261 q 290 363 333 315 q 180 471 248 412 q 37 596 113 531 q 0 647 12 617 q -12 707 -12 677 q 14 793 -12 757 q 85 847 39 830 l 603 1040 l 603 833 l 228 695 q 330 612 277 656 q 429 516 383 567 q 505 406 475 465 q 534 282 534 348 z "},"ﮑ":{"ha":696,"x_min":-14,"x_max":710,"o":"m 228 695 q 344 598 286 649 q 452 486 402 547 q 532 349 502 425 q 601 236 563 269 q 690 203 639 203 l 710 203 l 710 0 l 690 0 q 560 25 620 0 q 454 98 500 51 q 319 23 402 46 q 113 0 237 0 l -14 0 l -14 203 l 112 203 q 255 214 208 203 q 317 243 302 224 q 333 284 333 261 q 290 363 333 315 q 180 471 248 411 q 37 596 113 530 q 0 647 12 617 q -12 707 -12 677 q 14 793 -12 757 q 85 847 39 830 l 603 1040 l 603 833 l 228 695 z "},"ﮒ":{"ha":1265,"x_min":26,"x_max":1220,"o":"m 1218 1096 l 691 900 l 691 991 l 1218 1187 l 1218 1096 m 729 203 q 872 214 825 203 q 935 243 919 224 q 950 284 950 261 q 907 363 950 315 q 797 471 865 412 q 654 596 730 531 q 617 647 629 617 q 605 707 605 677 q 631 793 605 757 q 702 847 656 830 l 1220 1040 l 1220 833 l 845 695 q 947 612 894 656 q 1046 516 1000 567 q 1122 406 1093 465 q 1151 282 1151 348 q 1042 68 1151 137 q 730 0 934 0 l 570 0 q 282 40 405 0 q 93 161 160 79 q 26 369 26 243 q 43 487 26 431 q 81 593 60 543 l 259 526 q 237 456 248 496 q 226 379 226 416 q 302 249 227 294 q 563 203 378 203 l 729 203 z "},"ﮓ":{"ha":1316,"x_min":26,"x_max":1330,"o":"m 1218 1096 l 691 900 l 691 991 l 1218 1187 l 1218 1096 m 732 203 q 874 214 827 203 q 937 243 922 224 q 953 284 953 261 q 910 363 953 315 q 800 471 867 411 q 656 596 732 530 q 620 647 631 617 q 608 707 608 677 q 633 793 608 757 q 705 847 659 830 l 1223 1040 l 1223 833 l 848 695 q 964 598 905 649 q 1072 486 1022 547 q 1152 349 1122 425 q 1221 236 1183 269 q 1310 203 1259 203 l 1330 203 l 1330 0 l 1310 0 q 1180 25 1240 0 q 1074 98 1120 51 q 939 23 1022 46 q 732 0 857 0 l 568 0 q 281 40 404 0 q 93 161 159 79 q 26 369 26 243 q 43 487 26 431 q 81 593 60 543 l 259 526 q 237 456 248 496 q 226 379 226 416 q 302 249 227 294 q 562 203 377 203 l 732 203 z "},"ﮔ":{"ha":644,"x_min":-14,"x_max":603,"o":"m 534 282 q 425 68 533 137 q 113 0 317 0 l -14 0 l -14 203 l 112 203 q 255 214 208 203 q 317 243 302 224 q 333 284 333 261 q 290 363 333 315 q 180 471 248 412 q 37 596 113 531 q 0 647 12 617 q -12 707 -12 677 q 14 793 -12 757 q 85 847 39 830 l 603 1040 l 603 833 l 228 695 q 330 612 277 656 q 429 516 383 567 q 505 406 475 465 q 534 282 534 348 m 598 1098 l 70 902 l 70 993 l 598 1189 l 598 1098 z "},"ﮕ":{"ha":696,"x_min":-14,"x_max":710,"o":"m 228 695 q 344 598 286 649 q 452 486 402 547 q 532 349 502 425 q 601 236 563 269 q 690 203 639 203 l 710 203 l 710 0 l 690 0 q 560 25 620 0 q 454 98 500 51 q 319 23 402 46 q 113 0 237 0 l -14 0 l -14 203 l 112 203 q 255 214 208 203 q 317 243 302 224 q 333 284 333 261 q 290 363 333 315 q 180 471 248 411 q 37 596 113 530 q 0 647 12 617 q -12 707 -12 677 q 14 793 -12 757 q 85 847 39 830 l 603 1040 l 603 833 l 228 695 m 598 1098 l 70 902 l 70 993 l 598 1189 l 598 1098 z "},"ﮞ":{"ha":981,"x_min":26,"x_max":956,"o":"m 681 430 l 878 498 q 934 318 912 412 q 956 136 956 224 q 894 -105 956 -7 q 727 -254 833 -203 q 489 -305 622 -305 q 242 -255 346 -305 q 82 -107 138 -204 q 26 126 26 -11 q 49 301 26 212 q 105 470 72 389 l 285 397 q 242 263 261 334 q 224 130 224 192 q 284 -47 224 9 q 487 -103 344 -103 q 690 -42 624 -103 q 758 156 757 20 q 734 296 758 225 q 681 430 711 368 z "},"ﮟ":{"ha":1036,"x_min":26,"x_max":1050,"o":"m 758 109 q 734 249 758 178 q 681 382 711 320 l 878 450 l 939 258 q 965 215 949 227 q 1023 203 981 203 l 1050 203 l 1050 0 l 1025 0 q 946 11 978 0 q 866 -188 930 -107 q 704 -311 802 -269 q 489 -353 606 -353 q 242 -302 346 -353 q 82 -155 138 -252 q 26 79 26 -59 q 50 253 26 165 q 105 423 73 341 l 285 349 q 242 215 261 286 q 224 82 224 144 q 284 -95 224 -39 q 487 -151 344 -151 q 690 -90 624 -151 q 758 109 757 -28 z "},"ﮥ":{"ha":704,"x_min":26,"x_max":718,"o":"m 217 875 q 259 858 237 865 q 315 852 281 852 q 421 876 374 852 q 469 935 469 899 q 465 939 469 937 q 448 941 461 941 l 399 941 q 328 967 354 941 q 302 1038 302 992 q 327 1125 302 1088 q 390 1182 351 1162 q 473 1202 429 1202 q 508 1198 485 1202 q 550 1186 532 1194 l 534 1105 q 503 1113 521 1109 q 473 1116 486 1116 q 410 1092 433 1116 q 387 1043 387 1068 q 388 1030 387 1031 q 403 1028 389 1028 l 464 1028 q 528 1005 505 1028 q 551 949 551 983 q 483 813 551 860 q 313 766 416 766 q 239 774 272 766 q 179 795 207 782 l 217 875 m 26 320 q 115 518 26 435 q 365 654 204 600 l 359 689 l 548 728 l 609 286 q 636 222 615 241 q 696 203 656 203 l 718 203 l 718 0 l 694 0 q 454 136 516 0 q 292 90 380 90 q 163 114 224 90 q 64 189 102 138 q 26 320 26 240 m 395 461 q 261 387 298 421 q 225 328 225 352 q 236 296 225 307 q 288 285 248 285 q 372 310 337 285 q 408 368 408 336 q 406 400 408 384 l 395 461 z "},"ﮧ":{"ha":623,"x_min":22,"x_max":637,"o":"m 200 -23 l 22 20 q 57 195 31 111 q 122 347 82 279 q 213 453 161 414 q 325 492 264 492 q 432 463 392 492 q 495 391 472 433 q 534 305 518 348 q 567 233 549 262 q 614 203 585 203 l 637 203 l 637 0 l 615 0 q 503 24 549 0 q 424 85 456 48 q 373 160 393 121 q 342 230 353 199 q 322 271 330 260 q 277 221 302 262 q 231 117 252 180 q 200 -23 210 54 z "},"ﮨ":{"ha":401,"x_min":-14,"x_max":376,"o":"m 376 323 q 296 87 376 175 q 67 0 217 0 l -14 0 l -14 203 l 67 203 q 155 227 132 203 q 178 321 178 250 q 168 431 178 367 q 145 544 157 495 l 333 589 q 363 457 351 530 q 376 323 376 385 m 307 -58 q 249 -116 277 -85 q 215 -178 221 -147 q 264 -212 250 -186 q 278 -269 278 -239 q 253 -339 278 -311 q 183 -368 227 -368 q 102 -334 129 -368 q 76 -254 76 -300 q 97 -148 76 -194 q 152 -63 117 -101 q 226 7 186 -25 l 307 -58 z "},"ﮩ":{"ha":680,"x_min":-14,"x_max":693,"o":"m 114 14 q 29 0 73 0 l -14 0 l -14 203 l 31 203 q 121 220 85 203 q 186 265 156 236 q 258 332 217 294 l 387 188 q 328 131 358 162 q 297 52 297 100 q 314 -23 297 16 q 361 -94 332 -61 q 456 122 378 41 q 670 203 534 203 l 693 203 l 693 0 l 669 0 q 571 -40 604 0 q 538 -183 538 -79 q 539 -222 538 -201 q 542 -261 541 -243 l 426 -374 q 220 -224 306 -317 q 114 14 134 -132 z "},"ﮪ":{"ha":1008,"x_min":32,"x_max":983,"o":"m 32 203 l 123 203 q 156 203 140 203 q 184 204 172 203 q 143 357 143 269 q 175 484 143 429 q 259 571 207 538 q 374 612 312 604 l 391 614 l 391 616 l 460 739 q 592 673 521 709 q 732 593 663 636 q 858 500 801 549 q 948 395 914 450 q 983 280 983 340 q 942 130 983 191 q 832 38 902 68 q 676 7 763 7 q 534 21 608 7 q 410 50 460 35 q 276 15 351 29 q 131 0 202 0 l 64 0 l 32 203 m 420 248 q 479 296 460 267 q 499 355 498 326 q 422 435 499 435 q 359 413 380 435 q 338 358 338 391 q 358 297 338 328 q 420 248 378 267 m 668 400 q 669 384 669 392 q 669 368 669 376 q 620 201 669 275 q 638 200 629 200 q 654 200 646 200 q 753 219 724 200 q 783 278 783 239 q 754 326 783 294 q 668 400 726 357 z "},"ﮫ":{"ha":760,"x_min":32,"x_max":773,"o":"m 32 203 l 180 203 q 201 357 186 283 q 245 492 216 432 q 325 586 275 551 q 452 621 375 621 q 566 589 517 621 q 642 503 615 557 q 669 378 669 448 q 642 257 669 316 q 572 148 615 198 q 479 60 529 97 q 385 5 430 24 q 441 -94 403 -52 q 460 -45 443 -79 q 507 32 477 -10 q 576 113 537 74 q 659 178 614 153 q 750 203 703 203 l 773 203 l 773 0 l 749 0 q 651 -40 684 0 q 618 -183 618 -79 q 619 -222 618 -202 q 622 -261 621 -242 l 506 -374 q 302 -225 381 -315 q 193 0 223 -135 l 64 0 l 32 203 m 373 212 q 454 275 421 229 q 488 371 488 320 q 474 415 488 408 q 450 422 461 422 q 421 405 437 422 q 393 343 406 388 q 373 212 380 298 z "},"ﮬ":{"ha":928,"x_min":-14,"x_max":903,"o":"m 380 739 q 512 673 441 709 q 652 593 583 636 q 778 500 721 549 q 868 395 834 450 q 903 280 903 340 q 862 130 903 191 q 752 38 822 68 q 596 7 683 7 q 454 21 528 7 q 330 50 380 35 q 196 15 271 29 q 51 0 122 0 l -14 0 l -14 203 l 43 203 q 76 203 60 203 q 104 204 92 203 q 63 357 63 269 q 95 484 63 429 q 179 571 127 538 q 294 612 232 604 q 302 613 298 613 q 311 614 307 614 l 311 616 l 380 739 m 340 248 q 399 296 380 267 q 419 355 418 326 q 342 435 419 435 q 279 413 300 435 q 258 358 258 391 q 278 297 258 328 q 340 248 298 267 m 588 400 q 589 384 589 392 q 589 368 589 376 q 540 201 589 275 q 558 200 549 200 q 574 200 566 200 q 673 219 644 200 q 703 278 703 239 q 674 326 703 294 q 588 400 646 357 z "},"ﮭ":{"ha":680,"x_min":-14,"x_max":693,"o":"m 426 -374 q 222 -225 301 -315 q 113 0 143 -135 l -14 0 l -14 203 l 100 203 q 121 357 106 283 q 165 492 136 432 q 245 586 195 551 q 372 621 295 621 q 486 589 437 621 q 562 503 535 557 q 589 378 589 448 q 562 257 589 316 q 492 148 535 198 q 399 60 449 97 q 305 5 350 24 q 361 -94 323 -52 q 380 -45 363 -79 q 427 32 397 -10 q 496 113 457 74 q 579 178 534 153 q 670 203 623 203 l 693 203 l 693 0 l 669 0 q 571 -40 604 0 q 538 -183 538 -79 q 539 -222 538 -202 q 542 -261 541 -242 l 426 -374 m 293 212 q 374 275 341 229 q 408 371 408 320 q 394 415 408 408 q 370 422 381 422 q 341 405 357 422 q 313 343 326 388 q 293 212 300 298 z "},"ﮮ":{"ha":1183,"x_min":26,"x_max":1158,"o":"m 530 288 q 471 369 500 328 q 407 449 441 410 q 375 399 390 422 q 332 342 359 376 q 273 278 298 301 q 235 243 249 254 q 306 220 258 231 q 417 203 354 210 q 548 197 480 197 q 955 219 803 197 q 1152 249 1106 241 l 1158 45 q 1053 31 1133 42 q 845 10 972 20 q 549 1 718 1 q 419 4 490 1 q 280 19 349 7 q 153 56 210 31 q 61 124 96 81 q 26 233 26 167 q 43 310 26 279 q 87 367 60 342 q 144 417 114 392 q 199 476 174 443 q 267 576 241 531 q 320 647 292 621 q 396 673 347 673 q 491 640 446 673 q 571 561 535 607 q 632 472 607 515 q 667 409 656 429 l 530 288 z "},"ﮯ":{"ha":1069,"x_min":26,"x_max":1082,"o":"m 814 0 l 814 203 l 1082 203 l 1082 0 l 814 0 m 445 0 q 374 -10 411 0 q 306 -33 338 -20 q 255 -59 275 -47 q 235 -77 235 -71 q 264 -92 235 -84 q 341 -107 294 -100 q 443 -118 388 -114 q 548 -122 497 -122 q 736 -114 666 -122 q 849 -92 807 -105 q 923 -68 890 -79 l 968 -262 q 823 -296 927 -275 q 549 -318 719 -318 q 419 -315 490 -318 q 280 -299 349 -311 q 153 -262 210 -288 q 61 -195 96 -237 q 26 -86 26 -152 q 63 20 26 -32 q 161 113 100 71 q 297 179 222 155 q 448 203 372 203 l 832 203 l 832 0 l 445 0 z "},"ﮰ":{"ha":1183,"x_min":26,"x_max":1158,"o":"m 365 817 q 333 865 345 838 q 320 927 320 892 q 328 975 320 954 q 347 1012 335 996 q 394 1049 366 1036 q 451 1061 422 1061 q 500 1054 481 1061 q 538 1034 519 1046 l 539 952 q 500 970 519 963 q 460 977 481 977 q 435 973 448 977 q 412 960 422 970 q 396 918 396 945 q 410 880 397 899 q 456 852 424 861 q 462 850 459 851 q 469 849 465 849 q 474 850 471 849 l 565 868 l 565 788 l 294 723 l 294 801 l 365 817 m 530 288 q 471 369 500 328 q 407 449 441 410 q 375 399 390 422 q 332 342 359 376 q 273 278 298 301 q 235 243 249 254 q 306 220 258 231 q 417 203 354 210 q 548 197 480 197 q 955 219 803 197 q 1152 249 1106 241 l 1158 45 q 1053 31 1133 42 q 845 10 972 20 q 549 1 718 1 q 419 4 490 1 q 280 19 349 7 q 153 56 210 31 q 61 124 96 81 q 26 233 26 167 q 43 310 26 279 q 87 367 60 342 q 144 417 114 392 q 199 476 174 443 q 267 576 241 531 q 320 647 292 621 q 396 673 347 673 q 491 640 446 673 q 571 561 535 607 q 632 472 607 515 q 667 409 656 429 l 530 288 z "},"ﮱ":{"ha":1069,"x_min":26,"x_max":1082,"o":"m 814 0 l 814 203 l 1082 203 l 1082 0 l 814 0 z "},"﮿":{"ha":380,"x_min":60,"x_max":320,"o":"m 60 -212 q 98 -120 60 -159 q 190 -82 136 -82 q 282 -120 243 -82 q 320 -212 320 -159 q 282 -304 320 -266 q 190 -342 243 -342 q 98 -304 136 -342 q 60 -212 60 -266 m 133 -212 q 150 -252 133 -236 q 190 -269 166 -269 q 230 -252 214 -269 q 246 -212 246 -236 q 230 -172 246 -189 q 190 -155 214 -155 q 150 -172 166 -155 q 133 -212 133 -189 z "},"﯀":{"ha":543,"x_min":64,"x_max":478,"o":"m 137 1022 q 146 1036 142 1029 q 153 1049 150 1042 l 153 1347 l 231 1347 l 231 1152 q 287 1192 258 1177 q 349 1207 315 1207 q 442 1172 406 1207 q 478 1082 478 1136 q 417 975 477 1009 q 245 941 356 941 l 64 941 l 64 1022 l 137 1022 m 245 1023 q 363 1039 329 1023 q 398 1080 398 1055 q 386 1113 398 1101 q 352 1126 374 1126 q 292 1098 325 1126 q 224 1022 258 1071 l 245 1023 z "},"ﯓ":{"ha":1242,"x_min":26,"x_max":1182,"o":"m 663 203 q 849 214 783 203 q 945 244 916 224 q 980 293 974 264 q 986 359 986 322 l 986 947 l 1182 947 l 1182 361 q 1137 160 1182 240 q 980 40 1091 80 q 668 0 868 0 l 570 0 q 282 40 405 0 q 93 161 160 79 q 26 369 26 243 q 43 487 26 431 q 81 593 60 543 l 259 526 q 237 456 248 496 q 226 379 226 416 q 302 249 227 294 q 563 203 378 203 l 663 203 m 487 446 q 580 451 536 447 q 653 464 625 454 q 682 488 682 473 q 663 522 682 513 q 617 533 644 530 q 562 544 589 536 q 516 574 534 551 q 497 644 497 596 q 535 727 497 697 q 632 768 574 756 q 747 780 690 780 l 747 689 q 675 681 713 687 q 612 666 638 675 q 587 643 587 656 q 605 629 587 632 q 650 622 623 626 q 705 607 677 618 q 750 568 732 595 q 768 491 768 541 q 743 413 768 441 q 676 373 718 385 q 585 358 635 361 q 487 355 536 355 l 487 446 m 508 1105 l 620 1216 l 732 1105 l 620 992 l 508 1105 m 625 927 l 736 1038 l 849 927 l 736 814 l 625 927 m 394 927 l 506 1038 l 618 927 l 506 814 l 394 927 z "},"ﯔ":{"ha":1282,"x_min":26,"x_max":1296,"o":"m 663 203 q 849 214 783 203 q 945 244 916 224 q 980 293 974 264 q 986 359 986 322 l 986 947 l 1182 947 l 1182 361 q 1187 261 1182 295 q 1212 215 1192 227 q 1272 203 1231 203 l 1296 203 l 1296 0 l 1274 0 q 1142 22 1195 0 q 1059 94 1088 45 q 959 35 1012 56 q 837 7 907 15 q 668 0 768 0 l 570 0 q 282 40 405 0 q 93 161 160 79 q 26 369 26 243 q 43 487 26 431 q 81 593 60 543 l 259 526 q 237 456 248 496 q 226 379 226 416 q 302 249 227 294 q 563 203 378 203 l 663 203 m 487 446 q 580 451 536 447 q 653 464 625 454 q 682 488 682 473 q 663 522 682 513 q 617 533 644 530 q 562 544 589 536 q 516 574 534 551 q 497 644 497 596 q 535 727 497 697 q 632 768 574 756 q 747 780 690 780 l 747 689 q 675 681 713 687 q 612 666 638 675 q 587 643 587 656 q 605 629 587 632 q 650 622 623 626 q 705 607 677 618 q 750 568 732 595 q 768 491 768 541 q 743 413 768 441 q 676 373 718 385 q 585 358 635 361 q 487 355 536 355 l 487 446 m 508 1105 l 620 1216 l 732 1105 l 620 992 l 508 1105 m 625 927 l 736 1038 l 849 927 l 736 814 l 625 927 m 394 927 l 506 1038 l 618 927 l 506 814 l 394 927 z "},"ﯕ":{"ha":644,"x_min":-14,"x_max":603,"o":"m 211 1286 l 323 1397 l 435 1286 l 323 1173 l 211 1286 m 328 1108 l 439 1219 l 552 1108 l 439 996 l 328 1108 m 97 1108 l 209 1219 l 321 1108 l 209 996 l 97 1108 m 534 282 q 425 68 533 137 q 113 0 317 0 l -14 0 l -14 203 l 112 203 q 255 214 208 203 q 317 243 302 224 q 333 284 333 261 q 290 363 333 315 q 180 471 248 412 q 37 596 113 531 q 0 647 12 617 q -12 707 -12 677 q 14 793 -12 757 q 85 847 39 830 l 603 1040 l 603 833 l 228 695 q 330 612 277 656 q 429 516 383 567 q 505 406 475 465 q 534 282 534 348 z "},"ﯖ":{"ha":696,"x_min":-14,"x_max":710,"o":"m 211 1286 l 323 1397 l 435 1286 l 323 1173 l 211 1286 m 328 1108 l 439 1219 l 552 1108 l 439 996 l 328 1108 m 97 1108 l 209 1219 l 321 1108 l 209 996 l 97 1108 m 228 695 q 344 598 286 649 q 452 486 402 547 q 532 349 502 425 q 601 236 563 269 q 690 203 639 203 l 710 203 l 710 0 l 690 0 q 560 25 620 0 q 454 98 500 51 q 319 23 402 46 q 113 0 237 0 l -14 0 l -14 203 l 112 203 q 255 214 208 203 q 317 243 302 224 q 333 284 333 261 q 290 363 333 315 q 180 471 248 411 q 37 596 113 530 q 0 647 12 617 q -12 707 -12 677 q 14 793 -12 757 q 85 847 39 830 l 603 1040 l 603 833 l 228 695 z "},"ﯗ":{"ha":597,"x_min":18,"x_max":571,"o":"m 440 719 q 382 722 408 719 q 279 650 346 674 q 126 621 212 625 l 126 687 q 237 706 187 692 q 313 741 287 720 q 231 782 268 752 q 194 861 194 812 q 228 945 194 913 q 311 977 261 977 q 395 945 361 977 q 429 860 429 913 q 414 785 429 824 q 440 783 425 783 l 440 719 m 346 797 q 357 829 353 812 q 361 859 361 846 q 348 895 361 882 q 314 909 334 909 q 276 895 290 909 q 262 858 262 882 q 288 820 262 835 q 346 797 314 806 m 355 4 q 304 0 327 0 q 101 60 177 0 q 26 241 26 121 q 41 353 26 296 q 89 458 57 410 q 172 535 121 506 q 290 564 222 564 q 420 528 367 564 q 507 431 474 491 q 556 298 541 370 q 571 153 571 225 q 446 -195 571 -63 q 88 -370 321 -328 l 18 -189 q 232 -117 145 -165 q 355 4 319 -70 m 374 207 q 339 332 364 301 q 285 363 314 363 q 248 344 262 363 q 226 298 233 325 q 219 245 219 271 q 232 211 219 222 q 307 201 245 201 q 374 207 341 201 z "},"ﯘ":{"ha":636,"x_min":18,"x_max":650,"o":"m 440 719 q 382 722 408 719 q 279 650 346 674 q 126 621 212 625 l 126 687 q 237 706 187 692 q 313 741 287 720 q 231 782 268 752 q 194 861 194 812 q 228 945 194 913 q 311 977 261 977 q 395 945 361 977 q 429 860 429 913 q 414 785 429 824 q 440 783 425 783 l 440 719 m 346 797 q 357 829 353 812 q 361 859 361 846 q 348 895 361 882 q 314 909 334 909 q 276 895 290 909 q 262 858 262 882 q 288 820 262 835 q 346 797 314 806 z "},"ﯙ":{"ha":597,"x_min":18,"x_max":571,"o":"m 235 664 l 96 897 l 196 897 l 287 741 l 378 897 l 479 897 l 339 664 l 235 664 m 355 4 q 304 0 327 0 q 101 60 177 0 q 26 241 26 121 q 41 353 26 296 q 89 458 57 410 q 172 535 121 506 q 290 564 222 564 q 420 528 367 564 q 507 431 474 491 q 556 298 541 370 q 571 153 571 225 q 446 -195 571 -63 q 88 -370 321 -328 l 18 -189 q 232 -117 145 -165 q 355 4 319 -70 m 374 207 q 339 332 364 301 q 285 363 314 363 q 248 344 262 363 q 226 298 233 325 q 219 245 219 271 q 232 211 219 222 q 307 201 245 201 q 374 207 341 201 z "},"ﯚ":{"ha":636,"x_min":18,"x_max":650,"o":"m 235 664 l 96 897 l 196 897 l 287 741 l 378 897 l 479 897 l 339 664 l 235 664 z "},"ﯞ":{"ha":597,"x_min":18,"x_max":571,"o":"m 170 897 l 281 1008 l 394 897 l 281 785 l 170 897 m 286 720 l 398 831 l 511 720 l 398 607 l 286 720 m 56 720 l 168 831 l 280 720 l 168 607 l 56 720 m 355 4 q 304 0 327 0 q 101 60 177 0 q 26 241 26 121 q 41 353 26 296 q 89 458 57 410 q 172 535 121 506 q 290 564 222 564 q 420 528 367 564 q 507 431 474 491 q 556 298 541 370 q 571 153 571 225 q 446 -195 571 -63 q 88 -370 321 -328 l 18 -189 q 232 -117 145 -165 q 355 4 319 -70 m 374 207 q 339 332 364 301 q 285 363 314 363 q 248 344 262 363 q 226 298 233 325 q 219 245 219 271 q 232 211 219 222 q 307 201 245 201 q 374 207 341 201 z "},"ﯟ":{"ha":636,"x_min":18,"x_max":650,"o":"m 170 897 l 281 1008 l 394 897 l 281 785 l 170 897 m 286 720 l 398 831 l 511 720 l 398 607 l 286 720 m 56 720 l 168 831 l 280 720 l 168 607 l 56 720 z "},"ﯢ":{"ha":597,"x_min":18,"x_max":571,"o":"m 233 878 l 338 878 l 477 644 l 377 644 l 286 800 l 195 644 l 94 644 l 233 878 m 355 4 q 304 0 327 0 q 101 60 177 0 q 26 241 26 121 q 41 353 26 296 q 89 458 57 410 q 172 535 121 506 q 290 564 222 564 q 420 528 367 564 q 507 431 474 491 q 556 298 541 370 q 571 153 571 225 q 446 -195 571 -63 q 88 -370 321 -328 l 18 -189 q 232 -117 145 -165 q 355 4 319 -70 m 374 207 q 339 332 364 301 q 285 363 314 363 q 248 344 262 363 q 226 298 233 325 q 219 245 219 271 q 232 211 219 222 q 307 201 245 201 q 374 207 341 201 z "},"ﯣ":{"ha":636,"x_min":18,"x_max":650,"o":"m 233 878 l 338 878 l 477 644 l 377 644 l 286 800 l 195 644 l 94 644 l 233 878 z "},"ﯨ":{"ha":401,"x_min":-14,"x_max":376,"o":"m 376 323 q 296 87 376 175 q 67 0 217 0 l -14 0 l -14 203 l 67 203 q 155 227 132 203 q 178 321 178 250 q 168 431 178 367 q 145 544 157 495 l 333 589 q 363 457 351 530 q 376 323 376 385 z "},"ﯩ":{"ha":466,"x_min":-14,"x_max":479,"o":"m 479 0 l 463 0 q 275 73 342 0 q 181 18 234 35 q 68 0 129 0 l -14 0 l -14 203 l 68 203 q 157 225 136 203 q 178 310 178 248 q 176 392 178 349 q 171 475 173 435 l 363 498 l 376 289 q 398 222 380 240 q 465 203 417 203 l 479 203 l 479 0 z "},"ﯼ":{"ha":1002,"x_min":26,"x_max":977,"o":"m 298 385 q 246 233 269 313 q 223 90 223 152 q 282 -84 223 -32 q 484 -138 342 -137 q 629 -119 561 -138 q 741 -70 697 -100 q 784 -3 784 -39 q 779 9 784 7 q 758 11 774 11 l 661 11 q 509 66 564 11 q 453 219 453 121 q 498 388 453 311 q 622 513 543 466 q 802 561 701 561 q 888 550 839 561 q 977 524 937 540 l 940 334 q 878 352 911 344 q 802 360 844 360 q 715 337 749 360 q 665 283 681 315 q 649 228 649 252 q 652 214 649 217 q 667 212 656 212 l 776 212 q 924 152 872 212 q 975 8 975 92 q 937 -140 975 -75 q 830 -248 898 -204 q 675 -315 763 -292 q 488 -338 587 -338 q 150 -228 274 -338 q 26 94 26 -118 q 53 274 26 180 q 118 458 80 368 l 298 385 z "},"ﯽ":{"ha":1057,"x_min":26,"x_max":1072,"o":"m 973 0 l 973 203 l 1071 203 l 1071 0 l 973 0 m 271 311 q 238 200 252 259 q 224 81 224 142 q 286 -100 224 -50 q 488 -151 348 -151 q 638 -130 573 -151 q 740 -82 703 -110 q 776 -32 776 -54 q 765 -13 776 -26 q 705 0 753 0 l 615 0 q 563 15 578 0 q 543 56 549 31 l 524 136 q 522 191 513 178 q 565 203 531 203 l 988 203 l 988 0 l 964 0 q 967 -20 966 -11 q 967 -37 967 -29 q 929 -168 967 -109 q 826 -267 892 -226 q 673 -330 760 -308 q 488 -352 587 -352 q 150 -241 274 -352 q 26 82 26 -130 q 46 237 26 154 q 94 384 66 320 l 271 311 z "},"ﯾ":{"ha":456,"x_min":-69,"x_max":430,"o":"m 387 590 q 417 458 405 530 q 430 323 430 385 q 342 79 430 157 q 87 0 254 0 l -14 0 l -14 203 l 87 203 q 181 210 151 203 q 222 242 212 217 q 233 321 233 267 q 222 431 233 367 q 199 544 211 495 l 387 590 m -69 -205 l 49 -88 l 164 -203 l 279 -88 l 397 -206 l 279 -324 l 164 -209 l 49 -324 l -69 -205 z "},"ﯿ":{"ha":520,"x_min":-69,"x_max":534,"o":"m 534 0 l 517 0 q 330 73 395 0 q 222 17 284 35 q 87 0 161 0 l -14 0 l -14 203 l 89 203 q 182 211 152 203 q 223 240 213 219 q 233 303 233 262 q 230 390 233 345 q 224 476 227 435 l 417 498 l 431 288 q 453 222 434 240 q 519 203 471 203 l 534 203 l 534 0 m -69 -205 l 49 -88 l 164 -203 l 279 -88 l 397 -206 l 279 -324 l 164 -209 l 49 -324 l -69 -205 z "},"﴾":{"ha":863,"x_min":81,"x_max":757,"o":"m 741 1068 q 569 691 614 952 l 573 687 l 703 687 q 735 654 735 687 l 735 168 q 703 135 734 135 l 573 135 l 571 133 q 637 -78 595 8 q 739 -214 680 -163 q 747 -243 757 -229 q 710 -271 737 -257 q 366 113 438 -191 l 345 135 l 215 135 q 193 144 204 135 q 182 168 182 153 l 182 296 l 92 388 q 81 412 81 398 q 92 434 81 424 l 182 526 l 182 654 q 194 679 182 670 q 215 687 205 687 l 345 687 l 359 702 q 710 1124 426 1040 q 739 1113 729 1131 q 741 1068 749 1094 m 427 137 q 600 -144 466 -37 q 503 138 527 -9 q 513 167 500 155 l 536 191 q 560 201 547 201 l 669 201 l 669 621 l 560 621 q 536 631 547 621 l 511 657 q 502 686 498 668 q 607 1002 529 858 q 422 680 463 890 q 412 663 420 670 l 381 631 q 358 621 371 621 l 248 621 l 248 512 q 239 489 248 498 l 161 411 l 239 333 q 248 310 248 323 l 248 201 l 358 201 q 381 191 371 201 l 418 153 q 427 137 425 147 m 565 406 q 533 333 565 364 q 458 302 500 302 q 382 335 413 302 q 352 413 352 368 q 384 486 352 455 q 458 517 416 517 q 534 485 504 517 q 565 406 565 452 m 412 409 q 426 376 412 390 q 459 363 440 363 q 493 377 479 363 q 507 412 507 391 q 492 444 507 431 q 458 457 477 457 q 425 443 437 457 q 412 409 412 428 z "},"﴿":{"ha":863,"x_min":106,"x_max":782,"o":"m 122 1068 q 125 1113 115 1094 q 153 1124 134 1131 q 505 702 437 1040 l 519 687 l 648 687 q 670 679 659 687 q 681 654 681 670 l 681 526 l 772 434 q 782 412 782 424 q 772 388 782 398 l 681 296 l 681 168 q 670 144 681 153 q 648 135 660 135 l 519 135 l 498 113 q 153 -271 425 -191 q 116 -243 126 -257 q 124 -214 106 -229 q 227 -78 184 -163 q 292 133 269 8 l 290 135 l 161 135 q 128 168 130 135 l 128 654 q 161 687 128 687 l 290 687 l 294 691 q 122 1068 250 952 m 436 137 q 445 153 439 147 l 482 191 q 505 201 492 201 l 615 201 l 615 310 q 625 333 615 323 l 703 411 l 625 489 q 615 512 615 498 l 615 621 l 505 621 q 482 631 492 621 l 451 663 q 441 680 444 670 q 256 1002 401 890 q 361 686 334 858 q 353 657 365 668 l 327 631 q 303 621 317 621 l 194 621 l 194 201 l 303 201 q 327 191 317 201 l 351 167 q 360 138 363 155 q 264 -144 336 -9 q 436 137 397 -37 m 298 406 q 329 485 298 452 q 405 517 359 517 q 479 486 447 517 q 511 413 511 455 q 481 335 511 368 q 405 302 450 302 q 331 333 363 302 q 298 406 298 364 m 452 409 q 439 443 452 428 q 405 457 426 457 q 371 444 386 457 q 357 412 357 431 q 371 377 357 391 q 404 363 385 363 q 438 376 424 363 q 452 409 452 390 z "},"ﷲ":{"ha":1704,"x_min":26,"x_max":1644,"o":"m 845 1021 l 845 1278 l 916 1278 l 916 1021 l 845 1021 m 914 991 q 917 935 915 964 q 927 886 918 906 q 957 866 935 866 q 986 880 977 866 q 996 928 996 895 q 992 964 996 939 q 983 1013 988 988 l 1055 1025 q 1066 980 1062 1003 q 1069 935 1069 957 q 963 790 1069 791 q 923 798 943 790 q 891 820 903 806 q 847 773 877 785 q 788 760 817 760 q 712 793 736 760 q 688 888 688 827 q 691 927 688 909 q 699 963 694 946 l 764 952 q 757 890 757 919 q 796 840 757 840 q 841 867 834 840 q 848 958 848 894 l 848 991 l 914 991 m 26 320 q 115 518 26 435 q 365 654 204 600 l 359 689 l 548 728 l 609 286 q 636 222 615 241 q 696 203 656 203 l 718 203 l 718 0 l 694 0 q 454 136 516 0 q 292 90 380 90 q 163 114 224 90 q 64 189 102 138 q 26 320 26 240 m 395 461 q 261 387 298 421 q 225 328 225 352 q 236 296 225 307 q 288 285 248 285 q 372 310 337 285 q 408 368 408 336 q 406 400 408 384 l 395 461 m 888 55 q 812 11 855 22 q 720 0 769 0 l 691 0 l 691 203 l 721 203 q 771 213 756 203 q 788 250 785 222 q 791 332 791 277 l 791 732 l 987 732 l 987 332 q 990 245 987 273 q 1004 211 992 218 q 1045 203 1017 203 l 1074 203 l 1074 0 l 1047 0 q 959 12 1000 0 q 888 55 918 24 m 1048 0 l 1048 203 l 1069 203 q 1124 224 1112 203 q 1136 314 1136 244 l 1136 836 l 1332 836 l 1332 315 q 1307 153 1332 224 q 1224 41 1282 81 q 1068 0 1166 0 l 1048 0 m 1448 947 l 1644 947 l 1644 1 l 1448 1 l 1448 947 z "},"﷼":{"ha":2163,"x_min":26,"x_max":2075,"o":"m 1124 -165 l 1242 -48 l 1357 -163 l 1472 -48 l 1590 -166 l 1472 -284 l 1357 -169 l 1242 -284 l 1124 -165 m 280 306 q 240 183 258 248 q 223 65 223 118 q 278 -100 223 -49 q 458 -151 334 -151 q 624 -96 571 -151 q 677 87 677 -41 l 679 947 l 874 947 l 873 113 q 768 -232 873 -111 q 457 -353 662 -353 q 139 -245 253 -353 q 26 66 26 -138 q 47 222 26 138 q 100 379 69 305 l 280 306 m 2001 409 q 2055 248 2035 333 q 2075 77 2075 162 q 2028 -139 2075 -40 q 1884 -309 1980 -238 q 1640 -414 1788 -380 l 1554 -239 q 1800 -125 1718 -199 q 1881 66 1881 -51 q 1862 203 1881 129 q 1815 342 1843 278 l 2001 409 m 1651 323 q 1572 87 1651 175 q 1343 0 1493 0 l 1261 0 l 1261 203 l 1343 203 q 1431 227 1408 203 q 1454 321 1454 250 q 1443 431 1454 367 q 1421 544 1432 495 l 1609 589 q 1639 457 1626 530 q 1651 323 1651 385 m 1291 0 l 1274 0 q 1057 78 1135 0 q 979 315 979 155 l 979 947 l 1175 947 l 1175 315 q 1198 223 1175 243 q 1274 203 1220 203 l 1291 203 l 1291 0 z "},"ﹰ":{"ha":401,"x_min":33,"x_max":355,"o":"m 33 710 l 33 795 l 355 927 l 355 842 l 33 710 m 33 566 l 33 652 l 355 783 l 355 699 l 33 566 z "},"ﹱ":{"ha":401,"x_min":-14,"x_max":415,"o":"m 194 0 l 194 203 l 415 203 l 415 0 l 194 0 m -14 0 l -14 203 l 208 203 l 208 0 l -14 0 m 33 710 l 33 795 l 355 927 l 355 842 l 33 710 m 33 566 l 33 652 l 355 783 l 355 699 l 33 566 z "},"ﹲ":{"ha":504,"x_min":32,"x_max":463,"o":"m 218 754 q 252 839 218 806 q 336 871 286 871 q 419 839 387 871 q 452 753 452 806 q 437 677 452 718 q 463 675 449 675 l 463 610 q 437 612 450 610 q 408 616 425 613 q 312 544 374 570 q 186 518 251 518 q 115 548 134 518 q 96 622 96 578 q 98 653 96 637 q 102 686 100 669 l 32 670 l 35 740 l 178 773 q 164 695 171 734 q 157 630 157 656 q 187 585 157 585 q 265 597 220 585 q 340 633 309 610 q 256 675 293 644 q 218 754 218 705 m 370 690 q 381 723 377 706 q 386 753 386 739 q 372 789 386 774 q 338 803 358 803 q 301 789 315 803 q 286 751 286 775 q 312 714 286 728 q 370 690 338 699 z "},"ﹳ":{"ha":447,"x_min":26,"x_max":460,"o":"m 26 330 l 26 385 l 233 385 l 233 328 q 271 235 233 266 q 410 203 309 203 l 460 203 l 460 0 l 403 0 q 124 84 223 0 q 26 330 26 168 z "},"ﹴ":{"ha":401,"x_min":37,"x_max":359,"o":"m 37 -299 l 37 -214 l 359 -82 l 359 -168 l 37 -299 m 37 -443 l 37 -357 l 359 -226 l 359 -311 l 37 -443 z "},"ﹶ":{"ha":401,"x_min":32,"x_max":355,"o":"m 32 585 l 32 671 l 355 802 l 355 717 l 32 585 z "},"ﹷ":{"ha":401,"x_min":-14,"x_max":415,"o":"m 32 585 l 32 671 l 355 802 l 355 717 l 32 585 m 194 0 l 194 203 l 415 203 l 415 0 l 194 0 m -14 0 l -14 203 l 208 203 l 208 0 l -14 0 z "},"ﹸ":{"ha":401,"x_min":43,"x_max":357,"o":"m 357 657 q 298 661 324 657 q 195 588 262 612 q 43 559 128 564 l 43 625 q 154 645 104 631 q 229 679 203 659 q 148 721 184 690 q 111 799 111 751 q 144 884 111 852 q 228 916 178 916 q 312 883 278 916 q 345 798 345 851 q 330 723 345 762 q 357 722 342 722 l 357 657 m 262 735 q 274 767 269 751 q 278 798 278 784 q 264 833 278 820 q 231 847 250 847 q 193 833 207 847 q 178 796 178 820 q 204 759 178 773 q 262 735 231 744 z "},"ﹹ":{"ha":401,"x_min":-14,"x_max":415,"o":"m 194 0 l 194 203 l 415 203 l 415 0 l 194 0 m -14 0 l -14 203 l 208 203 l 208 0 l -14 0 m 357 657 q 298 661 324 657 q 195 588 262 612 q 43 559 128 564 l 43 625 q 154 645 104 631 q 229 679 203 659 q 148 721 184 690 q 111 799 111 751 q 144 884 111 852 q 228 916 178 916 q 312 883 278 916 q 345 798 345 851 q 330 723 345 762 q 357 722 342 722 l 357 657 m 262 735 q 274 767 269 751 q 278 798 278 784 q 264 833 278 820 q 231 847 250 847 q 193 833 207 847 q 178 796 178 820 q 204 759 178 773 q 262 735 231 744 z "},"ﹺ":{"ha":401,"x_min":35,"x_max":357,"o":"m 35 -323 l 35 -238 l 357 -106 l 357 -191 l 35 -323 z "},"ﹻ":{"ha":401,"x_min":-14,"x_max":415,"o":"m 194 0 l 194 203 l 415 203 l 415 0 l 194 0 m -14 0 l -14 203 l 208 203 l 208 0 l -14 0 m 35 -323 l 35 -238 l 357 -106 l 357 -191 l 35 -323 z "},"ﹼ":{"ha":401,"x_min":10,"x_max":392,"o":"m 237 781 q 239 726 237 755 q 249 676 241 696 q 279 656 258 656 q 309 671 299 656 q 318 718 318 685 q 314 754 318 730 q 305 804 311 779 l 378 815 q 388 770 385 793 q 392 725 392 747 q 286 581 392 582 q 246 588 266 581 q 214 610 226 596 q 170 563 199 576 q 111 551 140 551 q 35 584 59 551 q 10 678 10 617 q 13 718 10 699 q 21 753 16 736 l 87 743 q 79 681 79 709 q 119 631 79 631 q 164 657 157 631 q 171 748 171 684 l 171 781 l 237 781 z "},"ﹽ":{"ha":401,"x_min":-14,"x_max":415,"o":"m 237 781 q 239 726 237 755 q 249 676 241 696 q 279 656 258 656 q 309 671 299 656 q 318 718 318 685 q 314 754 318 730 q 305 804 311 779 l 378 815 q 388 770 385 793 q 392 725 392 747 q 286 581 392 582 q 246 588 266 581 q 214 610 226 596 q 170 563 199 576 q 111 551 140 551 q 35 584 59 551 q 10 678 10 617 q 13 718 10 699 q 21 753 16 736 l 87 743 q 79 681 79 709 q 119 631 79 631 q 164 657 157 631 q 171 748 171 684 l 171 781 l 237 781 m 194 0 l 194 203 l 415 203 l 415 0 l 194 0 m -14 0 l -14 203 l 208 203 l 208 0 l -14 0 z "},"ﹾ":{"ha":401,"x_min":77,"x_max":325,"o":"m 77 690 q 113 777 77 741 q 201 814 150 814 q 288 777 252 814 q 325 690 325 741 q 288 602 325 639 q 201 566 252 566 q 113 602 150 566 q 77 690 77 639 m 144 690 q 160 650 144 666 q 201 633 177 633 q 241 650 224 633 q 257 690 257 666 q 241 730 257 713 q 201 747 224 747 q 160 730 177 747 q 144 690 144 713 z "},"ﹿ":{"ha":401,"x_min":-14,"x_max":415,"o":"m 77 690 q 113 777 77 741 q 201 814 150 814 q 288 777 252 814 q 325 690 325 741 q 288 602 325 639 q 201 566 252 566 q 113 602 150 566 q 77 690 77 639 m 144 690 q 160 650 144 666 q 201 633 177 633 q 241 650 224 633 q 257 690 257 666 q 241 730 257 713 q 201 747 224 747 q 160 730 177 747 q 144 690 144 713 m 194 0 l 194 203 l 415 203 l 415 0 l 194 0 m -14 0 l -14 203 l 208 203 l 208 0 l -14 0 z "},"ﺀ":{"ha":563,"x_min":29,"x_max":539,"o":"m 123 175 q 64 245 85 205 q 43 335 43 285 q 77 474 43 414 q 169 566 111 533 q 300 599 227 599 q 410 574 363 599 q 497 511 458 549 l 433 353 q 374 391 407 371 q 309 411 341 411 q 227 336 227 411 q 245 302 227 323 q 311 258 262 281 q 409 282 361 273 q 510 299 457 292 l 539 111 q 296 42 425 96 q 29 -87 168 -11 l 29 121 q 77 150 52 136 q 123 175 101 163 z "},"ﺁ":{"ha":315,"x_min":-119,"x_max":408,"o":"m 81 980 q 25 953 53 980 q -30 892 -2 926 l -119 964 q -38 1056 -83 1015 q 64 1097 7 1097 q 126 1085 96 1097 q 185 1061 157 1073 q 237 1048 213 1048 q 289 1064 261 1048 q 350 1096 317 1079 l 408 998 q 329 955 371 975 q 241 935 288 935 q 183 946 211 935 q 129 969 155 958 q 81 980 104 980 m 60 851 l 256 851 l 256 1 l 60 1 l 60 851 z "},"ﺂ":{"ha":357,"x_min":-15,"x_max":396,"o":"m 140 954 q 94 933 116 954 q 50 886 73 912 l -15 938 q 49 1009 14 979 q 126 1039 83 1039 q 175 1029 151 1039 q 221 1010 199 1020 q 265 1001 244 1001 q 306 1013 285 1001 q 353 1038 327 1025 l 396 966 q 335 933 367 947 q 268 918 302 918 q 200 936 232 918 q 140 954 169 954 m 371 0 l 354 0 q 137 77 215 0 q 60 315 60 155 l 60 812 l 256 812 l 256 315 q 278 223 256 243 q 354 203 300 203 l 371 203 l 371 0 z "},"ﺃ":{"ha":315,"x_min":12,"x_max":283,"o":"m 83 966 q 51 1014 63 987 q 38 1076 38 1041 q 45 1124 38 1103 q 65 1161 53 1145 q 112 1198 84 1185 q 169 1211 140 1211 q 218 1203 199 1211 q 256 1183 237 1195 l 257 1101 q 218 1119 237 1112 q 178 1126 199 1126 q 153 1122 166 1126 q 130 1109 140 1119 q 114 1067 114 1095 q 128 1029 115 1048 q 174 1002 142 1010 q 180 999 177 1000 q 186 998 183 998 q 192 999 189 998 l 283 1017 l 283 937 l 12 872 l 12 950 l 83 966 m 60 810 l 256 810 l 256 2 l 60 2 l 60 810 z "},"ﺄ":{"ha":357,"x_min":12,"x_max":371,"o":"m 83 966 q 51 1014 63 987 q 38 1076 38 1041 q 45 1124 38 1103 q 65 1161 53 1145 q 112 1198 84 1185 q 169 1211 140 1211 q 218 1203 199 1211 q 256 1183 237 1195 l 257 1101 q 218 1119 237 1112 q 178 1126 199 1126 q 153 1122 166 1126 q 130 1109 140 1119 q 114 1067 114 1095 q 128 1029 115 1048 q 174 1002 142 1010 q 180 999 177 1000 q 186 998 183 998 q 192 999 189 998 l 283 1017 l 283 937 l 12 872 l 12 950 l 83 966 m 371 0 l 354 0 q 137 77 215 0 q 60 315 60 155 l 60 812 l 256 812 l 256 315 q 278 223 256 243 q 354 203 300 203 l 371 203 l 371 0 z "},"ﺅ":{"ha":597,"x_min":18,"x_max":571,"o":"m 213 725 q 181 773 193 746 q 168 835 168 800 q 176 882 168 861 q 195 920 183 903 q 242 957 214 944 q 299 969 270 969 q 348 961 329 969 q 387 942 367 954 l 387 860 q 348 878 367 871 q 309 884 330 884 q 283 881 296 884 q 260 868 271 878 q 244 826 244 853 q 258 788 245 806 q 304 760 272 769 q 310 758 307 759 q 317 757 313 757 q 322 758 319 757 l 413 776 l 413 696 l 142 631 l 142 709 l 213 725 m 355 4 q 304 0 327 0 q 101 60 177 0 q 26 241 26 121 q 41 353 26 296 q 89 458 57 410 q 172 535 121 506 q 290 564 222 564 q 420 528 367 564 q 507 431 474 491 q 556 298 541 370 q 571 153 571 225 q 446 -195 571 -63 q 88 -370 321 -328 l 18 -189 q 232 -117 145 -165 q 355 4 319 -70 m 374 207 q 339 332 364 301 q 285 363 314 363 q 248 344 262 363 q 226 298 233 325 q 219 245 219 271 q 232 211 219 222 q 307 201 245 201 q 374 207 341 201 z "},"ﺆ":{"ha":636,"x_min":18,"x_max":650,"o":"m 213 725 q 181 773 193 746 q 168 835 168 800 q 176 882 168 861 q 195 920 183 903 q 242 957 214 944 q 299 969 270 969 q 348 961 329 969 q 387 942 367 954 l 387 860 q 348 878 367 871 q 309 884 330 884 q 283 881 296 884 q 260 868 271 878 q 244 826 244 853 q 258 788 245 806 q 304 760 272 769 q 310 758 307 759 q 317 757 313 757 q 322 758 319 757 l 413 776 l 413 696 l 142 631 l 142 709 l 213 725 z "},"ﺇ":{"ha":315,"x_min":3,"x_max":273,"o":"m 73 -324 q 41 -276 54 -303 q 28 -214 28 -250 q 36 -167 28 -188 q 56 -130 43 -146 q 102 -93 75 -105 q 159 -80 130 -80 q 208 -88 189 -80 q 247 -107 227 -96 l 248 -189 q 209 -172 227 -178 q 169 -165 190 -165 q 144 -168 157 -165 q 121 -181 131 -172 q 104 -223 104 -196 q 119 -261 105 -243 q 164 -289 132 -280 q 171 -291 168 -290 q 177 -292 174 -292 q 182 -292 180 -292 l 273 -273 l 273 -353 l 3 -418 l 3 -340 l 73 -324 m 60 947 l 256 947 l 256 1 l 60 1 l 60 947 z "},"ﺈ":{"ha":357,"x_min":57,"x_max":371,"o":"m 127 -324 q 95 -276 108 -303 q 83 -214 83 -250 q 90 -167 83 -188 q 110 -130 98 -146 q 157 -93 129 -105 q 214 -80 184 -80 q 262 -88 243 -80 q 301 -107 281 -96 l 302 -189 q 263 -172 281 -178 q 223 -165 244 -165 q 198 -168 211 -165 q 175 -181 185 -172 q 159 -223 159 -196 q 173 -261 159 -243 q 218 -289 186 -280 q 225 -291 222 -290 q 231 -292 228 -292 q 237 -292 234 -292 l 328 -273 l 328 -353 l 57 -418 l 57 -340 l 127 -324 m 371 0 l 354 0 q 137 78 215 0 q 60 315 60 155 l 60 947 l 256 947 l 256 315 q 278 223 256 243 q 354 203 300 203 l 371 203 l 371 0 z "},"ﺉ":{"ha":1002,"x_min":26,"x_max":977,"o":"m 330 581 q 297 629 310 602 q 285 691 285 656 q 292 739 285 718 q 312 776 300 760 q 359 813 331 800 q 416 825 387 825 q 465 818 446 825 q 503 798 484 810 l 504 716 q 465 734 484 727 q 425 741 446 741 q 400 737 413 741 q 377 724 387 734 q 361 682 361 709 q 375 644 361 663 q 420 616 389 625 q 427 614 424 615 q 433 613 430 613 q 439 614 436 613 l 530 632 l 530 552 l 259 487 l 259 565 l 330 581 m 298 385 q 246 233 269 313 q 223 90 223 152 q 282 -84 223 -32 q 484 -138 342 -137 q 629 -119 561 -138 q 741 -70 697 -100 q 784 -3 784 -39 q 779 9 784 7 q 758 11 774 11 l 661 11 q 509 66 564 11 q 453 219 453 121 q 498 388 453 311 q 622 513 543 466 q 802 561 701 561 q 888 550 839 561 q 977 524 937 540 l 940 334 q 878 352 911 344 q 802 360 844 360 q 715 337 749 360 q 665 283 681 315 q 649 228 649 252 q 652 214 649 217 q 667 212 656 212 l 776 212 q 924 152 872 212 q 975 8 975 92 q 937 -140 975 -75 q 830 -248 898 -204 q 675 -315 763 -292 q 488 -338 587 -338 q 150 -228 274 -338 q 26 94 26 -118 q 53 274 26 180 q 118 458 80 368 l 298 385 z "},"ﺊ":{"ha":1057,"x_min":26,"x_max":1072,"o":"m 973 0 l 973 203 l 1071 203 l 1071 0 l 973 0 m 271 311 q 238 200 252 259 q 224 81 224 142 q 286 -100 224 -50 q 488 -151 348 -151 q 638 -130 573 -151 q 740 -82 703 -110 q 776 -32 776 -54 q 765 -13 776 -26 q 705 0 753 0 l 615 0 q 563 15 578 0 q 543 56 549 31 l 524 136 q 522 191 513 178 q 565 203 531 203 l 988 203 l 988 0 l 964 0 q 967 -20 966 -11 q 967 -37 967 -29 q 929 -168 967 -109 q 826 -267 892 -226 q 673 -330 760 -308 q 488 -352 587 -352 q 150 -241 274 -352 q 26 82 26 -130 q 46 237 26 154 q 94 384 66 320 l 271 311 m 351 451 q 318 499 331 472 q 306 561 306 526 q 313 608 306 587 q 333 646 321 629 q 380 683 352 670 q 437 695 408 695 q 486 687 467 695 q 524 668 505 680 l 525 586 q 486 604 505 597 q 446 610 467 610 q 421 607 434 610 q 398 594 408 604 q 382 552 382 579 q 396 514 382 532 q 441 486 410 495 q 448 484 445 485 q 454 483 451 483 q 460 484 457 483 l 551 502 l 551 422 l 280 357 l 280 435 l 351 451 z "},"ﺋ":{"ha":401,"x_min":-14,"x_max":376,"o":"m 376 323 q 296 87 376 175 q 67 0 217 0 l -14 0 l -14 203 l 67 203 q 155 227 132 203 q 178 321 178 250 q 168 431 178 367 q 145 544 157 495 l 333 589 q 363 457 351 530 q 376 323 376 385 m 125 701 q 93 748 105 722 q 80 810 80 775 q 87 858 80 837 q 107 895 95 879 q 154 932 126 920 q 211 945 182 945 q 260 937 241 945 q 298 918 279 929 l 299 836 q 260 853 279 846 q 220 860 241 860 q 195 857 208 860 q 172 844 182 853 q 156 802 156 829 q 170 763 157 782 q 216 736 184 745 q 222 733 219 734 q 229 732 225 732 q 234 733 231 732 l 325 751 l 325 671 l 54 606 l 54 684 l 125 701 z "},"ﺌ":{"ha":466,"x_min":-14,"x_max":479,"o":"m 479 0 l 463 0 q 275 73 342 0 q 181 18 234 35 q 68 0 129 0 l -14 0 l -14 203 l 68 203 q 157 225 136 203 q 178 310 178 248 q 176 392 178 349 q 171 475 173 435 l 363 498 l 376 289 q 398 222 380 240 q 465 203 417 203 l 479 203 l 479 0 m 144 627 q 112 675 125 648 q 100 737 100 702 q 107 785 100 764 q 127 822 115 806 q 174 859 146 846 q 231 871 201 871 q 279 864 260 871 q 318 844 298 856 l 319 762 q 280 780 298 773 q 240 787 261 787 q 215 783 228 787 q 192 770 202 780 q 176 728 176 755 q 190 690 176 709 q 235 663 203 671 q 242 660 239 661 q 248 659 245 659 q 254 660 251 659 l 345 678 l 345 598 l 74 533 l 74 611 l 144 627 z "},"ﺍ":{"ha":315,"x_min":60,"x_max":256,"o":"m 60 947 l 256 947 l 256 1 l 60 1 l 60 947 z "},"ﺎ":{"ha":357,"x_min":60,"x_max":371,"o":"m 371 0 l 354 0 q 137 78 215 0 q 60 315 60 155 l 60 947 l 256 947 l 256 315 q 278 223 256 243 q 354 203 300 203 l 371 203 l 371 0 z "},"ﺏ":{"ha":1205,"x_min":26,"x_max":1179,"o":"m 501 -205 l 629 -79 l 756 -205 l 629 -333 l 501 -205 m 661 0 l 570 0 q 282 40 405 0 q 93 161 160 79 q 26 369 26 243 q 43 487 26 431 q 81 593 60 543 l 259 526 q 237 459 248 496 q 226 386 226 423 q 302 252 227 300 q 563 203 378 203 l 656 203 q 829 210 756 203 q 941 247 902 217 q 981 345 981 277 q 976 399 981 364 q 963 474 970 435 q 948 544 956 513 l 1136 590 q 1157 510 1147 555 q 1173 421 1166 464 q 1179 355 1179 379 q 1138 168 1179 239 q 1024 61 1097 98 q 858 13 951 25 q 661 0 765 0 z "},"ﺐ":{"ha":1274,"x_min":26,"x_max":1287,"o":"m 485 -205 l 612 -79 l 740 -205 l 612 -333 l 485 -205 m 668 0 l 570 0 q 282 40 405 0 q 93 161 160 79 q 26 369 26 243 q 43 487 26 431 q 81 593 60 543 l 259 526 q 237 456 248 496 q 226 379 226 416 q 302 249 227 294 q 563 203 378 203 l 665 203 q 870 224 794 203 q 972 276 947 245 q 982 296 978 283 q 987 334 987 309 q 984 405 987 369 q 980 475 982 441 l 1170 498 l 1183 288 q 1205 221 1187 239 q 1270 203 1223 203 l 1287 203 l 1287 0 l 1270 0 q 1059 99 1133 0 q 890 23 989 47 q 668 0 791 0 z "},"ﺑ":{"ha":401,"x_min":-14,"x_max":376,"o":"m 376 323 q 296 87 376 175 q 67 0 217 0 l -14 0 l -14 203 l 67 203 q 155 227 132 203 q 178 321 178 250 q 168 431 178 367 q 145 544 157 495 l 333 589 q 363 457 351 530 q 376 323 376 385 m 12 -205 l 139 -79 l 267 -205 l 139 -333 l 12 -205 z "},"ﺒ":{"ha":466,"x_min":-14,"x_max":479,"o":"m 479 0 l 463 0 q 275 73 342 0 q 181 18 234 35 q 68 0 129 0 l -14 0 l -14 203 l 68 203 q 157 225 136 203 q 178 310 178 248 q 176 392 178 349 q 171 475 173 435 l 363 498 l 376 289 q 398 222 380 240 q 465 203 417 203 l 479 203 l 479 0 m 12 -205 l 139 -79 l 267 -205 l 139 -333 l 12 -205 z "},"ﺓ":{"ha":625,"x_min":26,"x_max":600,"o":"m 241 730 q 428 576 347 656 q 554 416 509 496 q 600 260 600 336 q 562 124 600 182 q 459 34 524 66 q 313 3 395 3 q 165 31 231 3 q 63 117 100 60 q 26 260 26 174 q 60 406 26 334 q 157 554 94 478 l 130 578 l 241 730 m 304 417 q 239 331 258 370 q 220 264 220 292 q 236 220 220 237 q 312 203 252 203 q 390 218 374 203 q 405 264 405 232 q 382 328 405 287 q 304 417 359 368 m 62 894 l 180 1011 l 295 897 l 410 1011 l 528 893 l 410 775 l 295 890 l 180 775 l 62 894 z "},"ﺔ":{"ha":704,"x_min":26,"x_max":718,"o":"m 160 889 l 278 1006 l 393 892 l 508 1006 l 626 888 l 508 770 l 393 886 l 278 770 l 160 889 m 26 320 q 115 518 26 435 q 365 654 204 600 l 359 689 l 548 728 l 609 286 q 636 222 615 241 q 696 203 656 203 l 718 203 l 718 0 l 694 0 q 454 136 516 0 q 292 90 380 90 q 163 114 224 90 q 64 189 102 138 q 26 320 26 240 m 395 461 q 261 387 298 421 q 225 328 225 352 q 236 296 225 307 q 288 285 248 285 q 372 310 337 285 q 408 368 408 336 q 406 400 408 384 l 395 461 z "},"ﺕ":{"ha":1205,"x_min":26,"x_max":1179,"o":"m 661 0 l 570 0 q 282 40 405 0 q 93 161 160 79 q 26 369 26 243 q 43 487 26 431 q 81 593 60 543 l 259 526 q 237 459 248 496 q 226 386 226 423 q 302 252 227 300 q 563 203 378 203 l 656 203 q 829 210 756 203 q 941 247 902 217 q 981 345 981 277 q 976 399 981 364 q 963 474 970 435 q 948 544 956 513 l 1136 590 q 1157 510 1147 555 q 1173 421 1166 464 q 1179 355 1179 379 q 1138 168 1179 239 q 1024 61 1097 98 q 858 13 951 25 q 661 0 765 0 m 374 644 l 492 762 l 608 647 l 722 762 l 840 644 l 722 526 l 608 641 l 492 526 l 374 644 z "},"ﺖ":{"ha":1274,"x_min":26,"x_max":1287,"o":"m 385 644 l 503 761 l 618 646 l 732 761 l 850 643 l 732 525 l 618 640 l 503 525 l 385 644 m 668 0 l 570 0 q 282 40 405 0 q 93 161 160 79 q 26 369 26 243 q 43 487 26 431 q 81 593 60 543 l 259 526 q 237 456 248 496 q 226 379 226 416 q 302 249 227 294 q 563 203 378 203 l 665 203 q 870 224 794 203 q 972 276 947 245 q 982 296 978 283 q 987 334 987 309 q 984 405 987 369 q 980 475 982 441 l 1170 498 l 1183 288 q 1205 221 1187 239 q 1270 203 1223 203 l 1287 203 l 1287 0 l 1270 0 q 1059 99 1133 0 q 890 23 989 47 q 668 0 791 0 z "},"ﺗ":{"ha":456,"x_min":-23,"x_max":443,"o":"m 387 590 q 417 458 405 530 q 430 323 430 385 q 342 79 430 157 q 87 0 254 0 l -14 0 l -14 203 l 87 203 q 181 210 151 203 q 222 242 212 217 q 233 321 233 267 q 222 431 233 367 q 199 544 211 495 l 387 590 m -23 766 l 95 884 l 210 769 l 325 884 l 443 766 l 325 648 l 210 763 l 95 648 l -23 766 z "},"ﺘ":{"ha":520,"x_min":-22,"x_max":534,"o":"m 534 0 l 517 0 q 330 73 395 0 q 222 17 284 35 q 87 0 161 0 l -14 0 l -14 203 l 89 203 q 182 211 152 203 q 223 240 213 219 q 233 303 233 262 q 230 390 233 345 q 224 476 227 435 l 417 498 l 431 288 q 453 222 434 240 q 519 203 471 203 l 534 203 l 534 0 m -22 710 l 96 827 l 211 713 l 326 827 l 444 709 l 326 591 l 211 707 l 96 591 l -22 710 z "},"ﺙ":{"ha":1205,"x_min":26,"x_max":1179,"o":"m 661 0 l 570 0 q 282 40 405 0 q 93 161 160 79 q 26 369 26 243 q 43 487 26 431 q 81 593 60 543 l 259 526 q 237 459 248 496 q 226 386 226 423 q 302 252 227 300 q 563 203 378 203 l 656 203 q 829 210 756 203 q 941 247 902 217 q 981 345 981 277 q 976 399 981 364 q 963 474 970 435 q 948 544 956 513 l 1136 590 q 1157 510 1147 555 q 1173 421 1166 464 q 1179 355 1179 379 q 1138 168 1179 239 q 1024 61 1097 98 q 858 13 951 25 q 661 0 765 0 m 494 771 l 606 882 l 719 771 l 606 659 l 494 771 m 611 593 l 723 705 l 836 593 l 723 481 l 611 593 m 380 593 l 492 705 l 605 593 l 492 481 l 380 593 z "},"ﺚ":{"ha":1274,"x_min":26,"x_max":1287,"o":"m 502 772 l 614 883 l 726 772 l 614 659 l 502 772 m 618 594 l 730 705 l 843 594 l 730 481 l 618 594 m 388 594 l 500 705 l 612 594 l 500 481 l 388 594 m 668 0 l 570 0 q 282 40 405 0 q 93 161 160 79 q 26 369 26 243 q 43 487 26 431 q 81 593 60 543 l 259 526 q 237 456 248 496 q 226 379 226 416 q 302 249 227 294 q 563 203 378 203 l 665 203 q 870 224 794 203 q 972 276 947 245 q 982 296 978 283 q 987 334 987 309 q 984 405 987 369 q 980 475 982 441 l 1170 498 l 1183 288 q 1205 221 1187 239 q 1270 203 1223 203 l 1287 203 l 1287 0 l 1270 0 q 1059 99 1133 0 q 890 23 989 47 q 668 0 791 0 z "},"ﺛ":{"ha":456,"x_min":-23,"x_max":432,"o":"m 387 590 q 417 458 405 530 q 430 323 430 385 q 342 79 430 157 q 87 0 254 0 l -14 0 l -14 203 l 87 203 q 181 210 151 203 q 222 242 212 217 q 233 321 233 267 q 222 431 233 367 q 199 544 211 495 l 387 590 m 91 924 l 203 1035 l 315 924 l 203 811 l 91 924 m 208 746 l 319 857 l 432 746 l 319 633 l 208 746 m -23 746 l 89 857 l 201 746 l 89 633 l -23 746 z "},"ﺜ":{"ha":520,"x_min":-22,"x_max":534,"o":"m 534 0 l 517 0 q 330 73 395 0 q 222 17 284 35 q 87 0 161 0 l -14 0 l -14 203 l 89 203 q 182 211 152 203 q 223 240 213 219 q 233 303 233 262 q 230 390 233 345 q 224 476 227 435 l 417 498 l 431 288 q 453 222 434 240 q 519 203 471 203 l 534 203 l 534 0 m 92 857 l 204 968 l 317 857 l 204 745 l 92 857 m 209 680 l 321 791 l 433 680 l 321 567 l 209 680 m -22 680 l 90 791 l 203 680 l 90 567 l -22 680 z "},"ﺝ":{"ha":913,"x_min":9,"x_max":877,"o":"m 441 420 q 423 428 432 424 q 406 434 414 431 q 323 458 340 458 q 270 441 298 458 q 220 397 241 425 l 180 347 l 9 432 l 41 488 q 161 613 87 566 q 324 661 235 661 q 431 641 376 661 q 547 591 486 621 q 652 543 609 562 q 731 514 696 524 q 800 498 766 503 q 877 492 834 494 l 862 300 q 607 258 724 289 q 403 180 490 227 q 268 74 316 133 q 220 -51 220 16 q 293 -208 220 -154 q 541 -262 366 -262 q 692 -247 625 -262 q 829 -200 759 -233 l 876 -394 q 718 -445 798 -431 q 532 -459 637 -459 q 275 -417 390 -459 q 94 -287 161 -375 q 26 -62 26 -199 q 135 225 26 98 q 441 420 243 353 m 418 -12 l 545 115 l 673 -12 l 545 -140 l 418 -12 z "},"ﺞ":{"ha":935,"x_min":9,"x_max":948,"o":"m 353 -40 l 481 87 l 608 -40 l 481 -168 l 353 -40 m 876 -394 q 718 -445 798 -431 q 532 -459 637 -459 q 275 -417 389 -459 q 93 -287 160 -375 q 26 -62 26 -199 q 135 225 26 98 q 441 420 243 353 q 423 428 432 424 q 406 434 414 431 q 323 458 340 458 q 270 441 298 458 q 220 397 241 425 l 180 347 l 9 432 l 41 488 q 161 613 87 566 q 324 661 235 661 q 431 641 376 661 q 547 591 486 621 q 652 543 609 562 q 731 514 696 524 q 800 498 766 503 q 877 492 834 494 l 862 300 q 797 294 830 297 q 734 288 764 292 q 770 220 741 237 q 882 203 798 203 l 948 203 l 948 0 l 884 0 q 653 56 740 0 q 552 249 566 112 q 299 110 377 191 q 220 -51 220 28 q 293 -208 220 -154 q 541 -262 366 -262 q 692 -247 625 -262 q 829 -200 759 -233 l 876 -394 z "},"ﺟ":{"ha":905,"x_min":-14,"x_max":886,"o":"m 303 -205 l 431 -79 l 558 -205 l 431 -333 l 303 -205 m -14 0 l -14 203 l 97 203 q 232 217 169 203 q 360 258 295 231 q 500 323 425 285 l 547 347 q 526 355 536 351 q 503 364 516 359 q 336 422 361 422 q 282 405 311 422 q 232 360 253 388 l 193 310 l 22 395 l 54 451 q 173 577 99 530 q 336 624 247 624 q 444 604 389 624 q 559 555 498 585 q 664 506 621 525 q 742 477 707 488 q 810 462 777 467 q 886 455 844 457 l 884 264 q 824 255 850 260 q 771 240 799 250 q 704 209 743 229 q 603 157 665 189 q 440 78 519 113 q 276 21 360 42 q 95 0 192 0 l -14 0 z "},"ﺠ":{"ha":916,"x_min":-14,"x_max":930,"o":"m 303 -205 l 431 -79 l 558 -205 l 431 -333 l 303 -205 m 884 264 q 820 256 845 260 q 755 237 795 252 q 794 215 763 226 q 893 203 826 203 l 930 203 l 930 0 l 890 0 q 701 34 780 0 q 591 151 621 67 q 351 45 474 90 q 95 0 229 0 l -14 0 l -14 203 l 97 203 q 232 217 169 203 q 360 258 295 231 q 500 323 425 285 l 547 347 q 526 355 536 351 q 503 364 516 359 q 336 422 361 422 q 282 405 311 422 q 232 360 253 388 l 193 310 l 22 395 l 54 451 q 173 577 99 530 q 336 624 247 624 q 444 604 389 624 q 559 555 498 585 q 664 506 621 525 q 742 477 707 488 q 810 462 777 467 q 886 455 844 457 l 884 264 z "},"ﺡ":{"ha":913,"x_min":9,"x_max":877,"o":"m 441 420 q 423 428 432 424 q 406 434 414 431 q 323 458 340 458 q 270 441 298 458 q 220 397 241 425 l 180 347 l 9 432 l 41 488 q 161 613 87 566 q 324 661 235 661 q 431 641 376 661 q 547 591 486 621 q 652 543 609 562 q 731 514 696 524 q 800 498 766 503 q 877 492 834 494 l 862 300 q 607 258 724 289 q 403 180 490 227 q 268 74 316 133 q 220 -51 220 16 q 293 -208 220 -154 q 541 -262 366 -262 q 692 -247 625 -262 q 829 -200 759 -233 l 876 -394 q 718 -445 798 -431 q 532 -459 637 -459 q 275 -417 390 -459 q 94 -287 161 -375 q 26 -62 26 -199 q 135 225 26 98 q 441 420 243 353 z "},"ﺢ":{"ha":935,"x_min":9,"x_max":948,"o":"m 876 -394 q 718 -445 798 -431 q 532 -459 637 -459 q 275 -417 389 -459 q 93 -287 160 -375 q 26 -62 26 -199 q 135 225 26 98 q 441 420 243 353 q 423 428 432 424 q 406 434 414 431 q 323 458 340 458 q 270 441 298 458 q 220 397 241 425 l 180 347 l 9 432 l 41 488 q 161 613 87 566 q 324 661 235 661 q 431 641 376 661 q 547 591 486 621 q 652 543 609 562 q 731 514 696 524 q 800 498 766 503 q 877 492 834 494 l 862 300 q 797 294 830 297 q 734 288 764 292 q 770 220 741 237 q 882 203 798 203 l 948 203 l 948 0 l 884 0 q 653 56 740 0 q 552 249 566 112 q 299 110 377 191 q 220 -51 220 28 q 293 -208 220 -154 q 541 -262 366 -262 q 692 -247 625 -262 q 829 -200 759 -233 l 876 -394 z "},"ﺣ":{"ha":905,"x_min":-14,"x_max":886,"o":"m -14 0 l -14 203 l 97 203 q 232 217 169 203 q 360 258 295 231 q 500 323 425 285 l 547 347 q 526 355 536 351 q 503 364 516 359 q 336 422 361 422 q 282 405 311 422 q 232 360 253 388 l 193 310 l 22 395 l 54 451 q 173 577 99 530 q 336 624 247 624 q 444 604 389 624 q 559 555 498 585 q 664 506 621 525 q 742 477 707 488 q 810 462 777 467 q 886 455 844 457 l 884 264 q 824 255 850 260 q 771 240 799 250 q 704 209 743 229 q 603 157 665 189 q 440 78 519 113 q 276 21 360 42 q 95 0 192 0 l -14 0 z "}}}
